<svg xmlns="http://www.w3.org/2000/svg" viewBox="0 0 255.68 255.68"><defs><style>.cls-1{fill:#f1f1f1;}.cls-2{fill:#0097db;}</style></defs><g id="Layer_2" data-name="Layer 2"><g id="レイヤー_1" data-name="レイヤー 1"><circle class="cls-1" cx="127.84" cy="127.84" r="127.84"/><path class="cls-2" d="M189.27,95.48c0-26.4-26.46-47.88-59-47.88s-59,21.48-59,47.88c0,23.67,21,43.49,49.34,47.24,1.92.41,4.54,1.26,5.2,2.91A12.15,12.15,0,0,1,126,151s-.69,4.16-.84,5c-.26,1.49-1.19,5.83,5.11,3.18s34-20,46.35-34.25h0C185.18,115.56,189.27,106.05,189.27,95.48Zm-79.81,13a2.2,2.2,0,0,1-2.2,2.2H91.78a1.11,1.11,0,0,1-.79-.32h0l0,0a1.19,1.19,0,0,1-.32-.79V84.93a2.21,2.21,0,0,1,2.21-2.21h2a2.21,2.21,0,0,1,2.21,2.21v18.3a1.06,1.06,0,0,0,1.06,1.06h10.18a1.14,1.14,0,0,1,1.15,1.15Zm10,0a2.2,2.2,0,0,1-2.21,2.2h-2a2.2,2.2,0,0,1-2.2-2.2V84.93a2.21,2.21,0,0,1,2.21-2.21h3.08a1.16,1.16,0,0,1,1.15,1.15Zm28.48,0a2.2,2.2,0,0,1-2.2,2.2h-3.08a1,1,0,0,1-.3,0h0l-.07,0h0l-.05,0-.06,0,0,0-.07,0h0a1.14,1.14,0,0,1-.3-.28l-9.88-13.36a1.06,1.06,0,0,0-1.91.63v11a2.2,2.2,0,0,1-2.2,2.2h-2a2.2,2.2,0,0,1-2.21-2.2V84.93a2.21,2.21,0,0,1,2.21-2.21H129l.06,0h0l.07,0h0l.06,0,0,0,.06,0,0,0,.06,0,0,0,.06,0s0,0,0,0a.46.46,0,0,1,.07.07h0l.09.11,9.87,13.34a1.06,1.06,0,0,0,1.91-.63v-11a2.2,2.2,0,0,1,2.2-2.21h3.08a1.15,1.15,0,0,1,1.15,1.15ZM170.77,87a2.2,2.2,0,0,1-2.2,2.21h-9.13a1.06,1.06,0,0,0-1.06,1.06v2.23a1.06,1.06,0,0,0,1.06,1h9.13a2.2,2.2,0,0,1,2.2,2.21v2a2.2,2.2,0,0,1-2.2,2.2h-9.13a1.06,1.06,0,0,0-1.06,1.06v2.23a1.07,1.07,0,0,0,1.06,1.06h9.13a2.19,2.19,0,0,1,2.2,2.2v2a2.19,2.19,0,0,1-2.2,2.2H153.09a1.13,1.13,0,0,1-.79-.32h0v0a1.13,1.13,0,0,1-.32-.79V83.87a1.15,1.15,0,0,1,.31-.79l0,0h0a1.12,1.12,0,0,1,.79-.33h15.48a2.2,2.2,0,0,1,2.2,2.21Z"/><path class="cls-2" d="M47.68,177.57h4.43v18.48h9v3.72H47.68Z"/><path class="cls-2" d="M66.48,177.57h4.44v22.2H66.48Z"/><path class="cls-2" d="M77.88,177.57h4.53l6.45,11.82,2.22,4.8h.15c-.24-2.31-.57-5.25-.57-7.77v-8.85h4.2v22.2h-4.5l-6.42-11.88-2.25-4.77h-.15c.21,2.4.54,5.19.54,7.74v8.91h-4.2Z"/><path class="cls-2" d="M101.85,177.57h13.62v3.69h-9.18v5.13h7.8v3.72h-7.8v5.94h9.51v3.72h-14Z"/><path class="cls-2" d="M122.82,179.1c2.49-.21,7.41-.66,12.84-1.14,3.06-.24,6.3-.42,8.4-.51l0,3.84a30.68,30.68,0,0,0-5.73.39,9,9,0,0,0-6.27,8.31c0,4.89,4.56,6.66,9.6,6.9L140.31,201c-6.24-.39-12.12-3.75-12.12-10.2a11.78,11.78,0,0,1,4.38-9.15c-2.58.27-8.82.93-12.27,1.68l-.39-4.08C121.11,179.22,122.25,179.16,122.82,179.1Zm19.5,9.15-2.28,1a23.15,23.15,0,0,0-2.34-4.17l2.22-.93A39.32,39.32,0,0,1,142.32,188.25Zm3.48-1.47-2.25,1.08a26.39,26.39,0,0,0-2.46-4.05l2.19-1A44.87,44.87,0,0,1,145.8,186.78Z"/><path class="cls-2" d="M176.28,180a40.87,40.87,0,0,1-3.87,3,20.18,20.18,0,0,0,4.71,2.64,12.75,12.75,0,0,0-2.37,3,21.33,21.33,0,0,1-6.42-4.53v1.23h-11v-1a26.37,26.37,0,0,1-6.78,4.74,12.68,12.68,0,0,0-2.13-2.61,20.9,20.9,0,0,0,5.07-3.09,20.9,20.9,0,0,0-3.21-2.52l1.95-1.95a18.11,18.11,0,0,1,3.39,2.43,18.88,18.88,0,0,0,2.25-3h-6.15v-2.88h7.86l.6-.15,2.31,1.2a20.19,20.19,0,0,1-3.39,5.85h7.71a29,29,0,0,1-4.11-6.93l3.06-1a19.44,19.44,0,0,0,1.59,3,25.11,25.11,0,0,0,3-2.85l2.7,1.92c-1.29,1.08-2.79,2.22-4.11,3.12.45.54.93,1.05,1.41,1.53a26.3,26.3,0,0,0,3.36-3.09ZM170,195.57c-.63,1.23-1.23,2.4-1.74,3.27h7.53v2.94h-25.8v-2.94h7.26a14.35,14.35,0,0,0-1.38-3.12l1.56-.39h-3.27V187h17.37v8.31h-2.7Zm-12.39-3.06h10.23v-2.67H157.56Zm1.8,2.82a12.21,12.21,0,0,1,1.44,3.18l-1.14.33h5.91l-.81-.18a28.56,28.56,0,0,0,1.56-3.33Z"/><path class="cls-2" d="M191.76,197.19c1.5-.87,3.48-2.13,5.43-3.42l1.08,2.7c-1.77,1.35-3.69,2.73-5.4,3.9l-1-1.71.09.87c-3.72.78-7.68,1.62-10.71,2.19l-.66-3.24c1.26-.18,2.76-.42,4.41-.69V190h-4.08v-3H185v-2.19h-2.64v-1.35l-.57.54a9.77,9.77,0,0,0-2.13-2.31,19.17,19.17,0,0,0,5.19-7.26h2.94a29.81,29.81,0,0,1,5,5.16l-1.89,2.25h.27v3H188.1V187h3.72v3H188.1v7.26l3.6-.63Zm-8.25-6.09a34.27,34.27,0,0,1,1.05,5.16l-2.4.66a27.3,27.3,0,0,0-.93-5.25Zm6.72-9.3a27.89,27.89,0,0,0-3.42-4.11,28.35,28.35,0,0,1-2.91,4.11Zm-1.8,13.92a36.79,36.79,0,0,0,1-4.86l2.58.63c-.54,1.68-1,3.6-1.47,4.83Zm14.85-3.39a13.83,13.83,0,0,0,5.49,5.58,13.25,13.25,0,0,0-2.28,2.94,15.1,15.1,0,0,1-4.92-5.79V199c0,1.5-.21,2.34-1.14,2.82a7.89,7.89,0,0,1-3.78.57,12.18,12.18,0,0,0-.84-3.09c.84.06,1.74,0,2,0s.42-.09.42-.39V187.17h-6.18v-3h10.44v-1.53h-8.34v-2.7h8.34v-1.62h-9v-2.94h12.3v8.79h2.22v3h-6.48v1a19.46,19.46,0,0,0,1.23,3.21,25,25,0,0,0,2.7-3.6l2.79,1.71c-1.2,1.38-2.55,2.79-3.6,3.78Zm-8.7-4.11a14.65,14.65,0,0,1,3.09,3.78l-2.49,1.65a17.15,17.15,0,0,0-2.94-3.93Z"/></g></g></svg>