<svg xmlns="http://www.w3.org/2000/svg" viewBox="0 0 255.68 255.68"><defs><style>.cls-1{fill:#f1f1f1;}.cls-2{fill:#0097db;}</style></defs><g id="Layer_2" data-name="Layer 2"><g id="レイヤー_1" data-name="レイヤー 1"><circle class="cls-1" cx="127.84" cy="127.84" r="127.84"/><path class="cls-2" d="M79.89,69.6H75.35A12.91,12.91,0,0,0,62.44,82.51v64.42a12.91,12.91,0,0,0,12.91,12.91h4.54A12.91,12.91,0,0,0,92.8,146.93V82.51A12.91,12.91,0,0,0,79.89,69.6Z"/><path class="cls-2" d="M173.24,87.05V46.37H107.47V87.05a15.94,15.94,0,0,0-9,14.33v41.76a16,16,0,0,0,16,16h51.88a16,16,0,0,0,16-16V101.38A15.93,15.93,0,0,0,173.24,87.05ZM114,52.87h52.76V95.51H114Zm-.72,67.62V108.56h54.21v11.93Zm47.92,27.1a7,7,0,1,1,7.05-7.05A7.05,7.05,0,0,1,161.17,147.59Z"/><rect class="cls-2" x="121.06" y="64.11" width="37.94" height="3.79"/><rect class="cls-2" x="121.06" y="76.04" width="23.85" height="3.79"/><path class="cls-2" d="M54.7,177.57H68.38v3.69H59.14v5.79H67v3.72H59.14v9H54.7Z"/><path class="cls-2" d="M82.84,194.07h-7.2l-1.56,5.7h-4.5l7.11-22.2h5.22l7.14,22.2H84.4Zm-1-3.45-.66-2.43c-.69-2.31-1.29-4.86-2-7.26h-.12c-.57,2.43-1.23,4.95-1.89,7.26l-.66,2.43Z"/><path class="cls-2" d="M97,188.31l-5.85-10.74H96l2.22,4.56c.51,1.05,1,2.13,1.65,3.51h.15c.54-1.38,1-2.46,1.47-3.51l2.1-4.56h4.68l-5.85,11,6.24,11.25h-4.92l-2.49-4.92c-.57-1.14-1.08-2.31-1.74-3.66h-.12c-.57,1.35-1.08,2.52-1.62,3.66l-2.37,4.92H90.73Z"/><path class="cls-2" d="M114.37,179.1c2.49-.21,7.41-.66,12.84-1.14,3.06-.24,6.3-.42,8.4-.51l0,3.84a30.68,30.68,0,0,0-5.73.39,9,9,0,0,0-6.27,8.31c0,4.89,4.56,6.66,9.6,6.9L131.86,201c-6.24-.39-12.12-3.75-12.12-10.2a11.78,11.78,0,0,1,4.38-9.15c-2.58.27-8.82.93-12.27,1.68l-.39-4.08C112.66,179.22,113.8,179.16,114.37,179.1Zm19.5,9.15-2.28,1a23.15,23.15,0,0,0-2.34-4.17l2.22-.93A39.32,39.32,0,0,1,133.87,188.25Zm3.48-1.47-2.25,1.08a26.39,26.39,0,0,0-2.46-4.05l2.19-1A44.87,44.87,0,0,1,137.35,186.78Z"/><path class="cls-2" d="M167.83,180a40.87,40.87,0,0,1-3.87,3,20.18,20.18,0,0,0,4.71,2.64,12.75,12.75,0,0,0-2.37,3,21.33,21.33,0,0,1-6.42-4.53v1.23h-11v-1a26.37,26.37,0,0,1-6.78,4.74,12.68,12.68,0,0,0-2.13-2.61,20.9,20.9,0,0,0,5.07-3.09,20.9,20.9,0,0,0-3.21-2.52l2-1.95a18.11,18.11,0,0,1,3.39,2.43,18.88,18.88,0,0,0,2.25-3h-6.15v-2.88h7.86l.6-.15,2.31,1.2a20.19,20.19,0,0,1-3.39,5.85h7.71a29,29,0,0,1-4.11-6.93l3.06-1a19.44,19.44,0,0,0,1.59,3,25.11,25.11,0,0,0,3-2.85l2.7,1.92c-1.29,1.08-2.79,2.22-4.11,3.12.45.54.93,1.05,1.41,1.53a26.3,26.3,0,0,0,3.36-3.09Zm-6.33,15.6c-.63,1.23-1.23,2.4-1.74,3.27h7.53v2.94h-25.8v-2.94h7.26a14.35,14.35,0,0,0-1.38-3.12l1.56-.39h-3.27V187H163v8.31h-2.7Zm-12.39-3.06h10.23v-2.67H149.11Zm1.8,2.82a12.21,12.21,0,0,1,1.44,3.18l-1.14.33h5.91l-.81-.18a28.56,28.56,0,0,0,1.56-3.33Z"/><path class="cls-2" d="M183.31,197.19c1.5-.87,3.48-2.13,5.43-3.42l1.08,2.7c-1.77,1.35-3.69,2.73-5.4,3.9l-1-1.71.09.87c-3.72.78-7.68,1.62-10.71,2.19l-.66-3.24c1.26-.18,2.76-.42,4.41-.69V190h-4.08v-3h4.08v-2.19h-2.64v-1.35l-.57.54a9.77,9.77,0,0,0-2.13-2.31,19.17,19.17,0,0,0,5.19-7.26h2.94a29.81,29.81,0,0,1,5,5.16l-1.89,2.25h.27v3h-3.09V187h3.72v3h-3.72v7.26l3.6-.63Zm-8.25-6.09a34.27,34.27,0,0,1,1.05,5.16l-2.4.66a27.3,27.3,0,0,0-.93-5.25Zm6.72-9.3a27.89,27.89,0,0,0-3.42-4.11,28.35,28.35,0,0,1-2.91,4.11ZM180,195.72a36.79,36.79,0,0,0,1.05-4.86l2.58.63c-.54,1.68-1,3.6-1.47,4.83Zm14.85-3.39a13.83,13.83,0,0,0,5.49,5.58,13.25,13.25,0,0,0-2.28,2.94,15.1,15.1,0,0,1-4.92-5.79V199c0,1.5-.21,2.34-1.14,2.82a7.89,7.89,0,0,1-3.78.57,12.18,12.18,0,0,0-.84-3.09c.84.06,1.74,0,2,0s.42-.09.42-.39V187.17h-6.18v-3h10.44v-1.53h-8.34v-2.7h8.34v-1.62h-9v-2.94h12.3v8.79h2.22v3h-6.48v1a19.46,19.46,0,0,0,1.23,3.21,25,25,0,0,0,2.7-3.6l2.79,1.71c-1.2,1.38-2.55,2.79-3.6,3.78Zm-8.7-4.11a14.65,14.65,0,0,1,3.09,3.78l-2.49,1.65a17.15,17.15,0,0,0-2.94-3.93Z"/></g></g></svg>