<svg xmlns="http://www.w3.org/2000/svg" viewBox="0 0 433.09 119.78"><defs><style>.cls-1{fill:#fff;}</style></defs><g id="Layer_2" data-name="Layer 2"><g id="レイヤー_1" data-name="レイヤー 1"><path d="M379.79,0H53.3A53.3,53.3,0,0,0,0,53.3v.35A53.3,53.3,0,0,0,53.3,107H199.83l18.36,12.82L236.56,107H379.79a53.31,53.31,0,0,0,53.3-53.31V53.3A53.3,53.3,0,0,0,379.79,0Z"/><path class="cls-1" d="M91.94,43.29a40.87,40.87,0,0,1-3.87,3A20.18,20.18,0,0,0,92.78,49a12.75,12.75,0,0,0-2.37,3A21.33,21.33,0,0,1,84,47.4v1.23H73v-1a26.37,26.37,0,0,1-6.78,4.74A12.68,12.68,0,0,0,64,49.74a20.9,20.9,0,0,0,5.07-3.09,20.9,20.9,0,0,0-3.21-2.52l1.95-2a18.11,18.11,0,0,1,3.39,2.43,18.88,18.88,0,0,0,2.25-3H67.34V38.76H75.2l.6-.15,2.31,1.2a20.19,20.19,0,0,1-3.39,5.85h7.71a29,29,0,0,1-4.11-6.93l3.06-1a19.44,19.44,0,0,0,1.59,3A25.11,25.11,0,0,0,86,38l2.7,1.92C87.38,41,85.88,42.09,84.56,43c.45.54.93,1,1.41,1.53a26.3,26.3,0,0,0,3.36-3.09Zm-6.33,15.6c-.63,1.23-1.23,2.4-1.74,3.27H91.4V65.1H65.6V62.16h7.26A14.35,14.35,0,0,0,71.48,59L73,58.65H69.77V50.34H87.14v8.31h-2.7ZM73.22,55.83H83.45V53.16H73.22ZM75,58.65a12.21,12.21,0,0,1,1.44,3.18l-1.14.33h5.91L80.42,62A28.56,28.56,0,0,0,82,58.65Z"/><path class="cls-1" d="M107.42,60.51c1.5-.87,3.48-2.13,5.43-3.42l1.08,2.7c-1.77,1.35-3.69,2.73-5.4,3.9l-1-1.71.09.87c-3.72.78-7.68,1.62-10.71,2.19l-.66-3.24c1.26-.18,2.76-.42,4.41-.69V53.28H96.59v-3h4.08V48.09H98V46.74l-.57.54A9.77,9.77,0,0,0,95.33,45a19.17,19.17,0,0,0,5.19-7.26h2.94a29.81,29.81,0,0,1,5,5.16l-1.89,2.25h.27v3h-3.09v2.19h3.72v3h-3.72v7.26l3.6-.63Zm-8.25-6.09a34.27,34.27,0,0,1,1,5.16l-2.4.66A27.3,27.3,0,0,0,96.89,55Zm6.72-9.3A27.89,27.89,0,0,0,102.47,41a28.35,28.35,0,0,1-2.91,4.11ZM104.09,59a36.79,36.79,0,0,0,1-4.86l2.58.63c-.54,1.68-1,3.6-1.47,4.83Zm14.85-3.39a13.83,13.83,0,0,0,5.49,5.58,13.25,13.25,0,0,0-2.28,2.94,15.1,15.1,0,0,1-4.92-5.79v3.93c0,1.5-.21,2.34-1.14,2.82a7.89,7.89,0,0,1-3.78.57,12.18,12.18,0,0,0-.84-3.09c.84.06,1.74,0,2,0s.42-.09.42-.39V50.49h-6.18v-3h10.44V45.93h-8.34v-2.7h8.34V41.61h-9V38.67h12.3v8.79h2.22v3h-6.48v1a19.46,19.46,0,0,0,1.23,3.21,25,25,0,0,0,2.7-3.6L124,52.8c-1.2,1.38-2.55,2.79-3.6,3.78Zm-8.7-4.11a14.65,14.65,0,0,1,3.09,3.78L110.84,57A17.15,17.15,0,0,0,107.9,53Z"/><path class="cls-1" d="M152.81,46c-1.8-.09-4.59-.15-8.61-.15,0,1.5,0,3.12,0,4.41a7.33,7.33,0,0,1,1.11,4.11c0,3.87-2.28,8.79-9.54,10.83L132.65,62c3-.63,5.61-1.62,7.26-3.39a6.41,6.41,0,0,1-1.35.15,5.23,5.23,0,0,1-5.13-5.46c0-3.36,2.7-5.55,5.94-5.55a7.13,7.13,0,0,1,1.17.09l0-2c-4.5.06-9.09.24-12.75.45l-.09-3.6c3.39,0,8.79-.15,12.78-.21a7.62,7.62,0,0,0,0-.9,20.1,20.1,0,0,0-.27-2.58h4.32c-.09.48-.18,2.07-.21,2.55,0,.24,0,.54,0,.9,3,0,7.05,0,8.61,0Zm-13.53,9.48c1.23,0,2.34-.93,1.95-3.51a2.12,2.12,0,0,0-1.95-1,2.28,2.28,0,1,0,0,4.56Z"/><path class="cls-1" d="M177.2,42.51q-1.08.68-2.07,1.35c-1.59,1.11-4.71,3.75-6.57,5.25a10,10,0,0,1,2.79-.33c5,0,8.88,3.15,8.88,7.47,0,4.68-3.57,8.4-10.74,8.4-4.14,0-7.26-1.89-7.26-4.86,0-2.4,2.19-4.62,5.34-4.62a6,6,0,0,1,6.33,5.07,4.33,4.33,0,0,0,2.43-4.05c0-2.67-2.7-4.47-6.15-4.47-4.56,0-7.53,2.43-10.71,6L156.77,55c2.1-1.71,5.67-4.74,7.44-6.18s4.74-3.87,6.21-5.16c-1.53,0-5.61.21-7.17.33a19.61,19.61,0,0,0-2.43.24l-.12-3.87c.84.09,1.86.15,2.7.15,1.56,0,7.92-.15,9.6-.3a14.33,14.33,0,0,0,2.28-.3ZM170.48,61.2c-.18-1.92-1.29-3.18-2.91-3.18-1.11,0-1.83.66-1.83,1.41,0,1.11,1.26,1.86,3,1.86A15.66,15.66,0,0,0,170.48,61.2Z"/><path class="cls-1" d="M206.57,45.63c-.9.54-1.86,1-2.94,1.59a91,91,0,0,0-8.28,4.41c-2.49,1.62-4.14,3.33-4.14,5.4s2.07,3.27,6.18,3.27a49.69,49.69,0,0,0,9.72-1.08l-.06,4.29a58.1,58.1,0,0,1-9.54.72c-5.91,0-10.38-1.65-10.38-6.75,0-3.3,2.07-5.73,4.92-7.83-1.38-2.55-2.82-5.7-4.17-8.85l3.75-1.53a69.65,69.65,0,0,0,3.72,8.22c2.43-1.41,5-2.73,6.42-3.51a20.51,20.51,0,0,0,2.73-1.8Z"/><path class="cls-1" d="M232.19,46.5c-.9.54-1.83,1-2.94,1.59a81.67,81.67,0,0,0-7.35,4c-2.46,1.62-4.11,3.33-4.11,5.4s2,3.27,6.18,3.27a49.64,49.64,0,0,0,9.69-1.08l-.06,4.26a54.58,54.58,0,0,1-9.54.75c-5.91,0-10.38-1.65-10.38-6.78,0-3.27,2.07-5.7,4.92-7.8-1.35-2.52-2.79-5.7-4.14-8.85l3.75-1.53a69.65,69.65,0,0,0,3.72,8.22c2.19-1.29,4.29-2.34,5.67-3.15A19.61,19.61,0,0,0,230.33,43Zm.45-7.32a44.3,44.3,0,0,1,2.4,4.11l-2.43,1a35.9,35.9,0,0,0-2.34-4.17Zm3.57-1.38a40.2,40.2,0,0,1,2.4,4.11l-2.37,1a31.81,31.81,0,0,0-2.43-4.14Z"/><path class="cls-1" d="M252.89,49.68a26.66,26.66,0,0,0-7.74,1.44c-.87.27-2,.72-2.88,1l-1.11-4.23a29.13,29.13,0,0,0,3.24-.51,41.16,41.16,0,0,1,9-1.35c4.71,0,8,2.67,8,7.32,0,6.36-5.88,10.32-14.13,11.46l-2.16-3.72c7.38-.84,12.09-3.24,12.09-7.89C257.18,51.27,255.68,49.65,252.89,49.68Zm6-9.39-.6,3.66c-3.48-.24-9.93-.81-13.35-1.41l.6-3.6A83.92,83.92,0,0,0,258.89,40.29Z"/><path class="cls-1" d="M282.47,45.6a43.54,43.54,0,0,1-5.16,1A54.84,54.84,0,0,1,271,59.34l-3.63-1.83A45.33,45.33,0,0,0,273.38,47c-.51,0-1,0-1.53,0-1.23,0-2.43,0-3.72-.09l-.27-3.48a37.76,37.76,0,0,0,4,.21c.87,0,1.77,0,2.67-.09a25.3,25.3,0,0,0,.81-5l4.11.42c-.24,1-.6,2.46-1,4a31.38,31.38,0,0,0,4-.93Zm3.9,2.67c-.09,1.26,0,2.49,0,3.81,0,.84.09,2.28.18,3.75a19.79,19.79,0,0,1,6.15,3.81l-2,3.18a26.45,26.45,0,0,0-4-3.15v.27c0,2.76-1.5,4.92-5.73,4.92-3.69,0-6.6-1.65-6.6-4.92,0-2.91,2.43-5.16,6.57-5.16.69,0,1.38.06,2,.12-.09-2.22-.24-4.83-.33-6.63Zm-3.27,9.84a10.51,10.51,0,0,0-2.4-.3c-1.71,0-2.82.72-2.82,1.77s.93,1.86,2.55,1.86c2,0,2.67-1.17,2.67-2.76Zm8.37-8.25a39.61,39.61,0,0,0-7.14-4.23l1.92-2.94a53.46,53.46,0,0,1,7.32,4Z"/><path class="cls-1" d="M318.44,42.51q-1.08.68-2.07,1.35c-1.59,1.11-4.71,3.75-6.57,5.25a10,10,0,0,1,2.79-.33c5,0,8.88,3.15,8.88,7.47,0,4.68-3.57,8.4-10.74,8.4-4.14,0-7.26-1.89-7.26-4.86,0-2.4,2.19-4.62,5.34-4.62a6,6,0,0,1,6.33,5.07,4.33,4.33,0,0,0,2.43-4.05c0-2.67-2.7-4.47-6.15-4.47-4.56,0-7.53,2.43-10.71,6L298,55c2.1-1.71,5.67-4.74,7.44-6.18s4.74-3.87,6.21-5.16c-1.53,0-5.61.21-7.17.33a19.61,19.61,0,0,0-2.43.24l-.12-3.87c.84.09,1.86.15,2.7.15,1.56,0,7.92-.15,9.6-.3a14.33,14.33,0,0,0,2.28-.3ZM311.72,61.2c-.18-1.92-1.29-3.18-2.91-3.18-1.11,0-1.83.66-1.83,1.41,0,1.11,1.26,1.86,3,1.86A15.66,15.66,0,0,0,311.72,61.2Z"/><path class="cls-1" d="M339.38,60.81c1.14-.15,2-.3,2.76-.48,3.81-.9,6.75-3.63,6.75-7.95,0-4.11-2.22-7.17-6.21-7.86a64.56,64.56,0,0,1-1.77,8.07c-1.77,6-4.35,9.66-7.59,9.66s-6.06-3.63-6.06-8.64c0-6.84,6-12.72,13.68-12.72,7.35,0,12,5.13,12,11.61,0,6.24-3.84,10.68-11.34,11.82Zm-2.31-9a47.69,47.69,0,0,0,1.59-7.2,9.32,9.32,0,0,0-7.53,8.61c0,3,1.2,4.47,2.31,4.47S335.87,55.83,337.07,51.81Z"/><path class="cls-1" d="M370.1,46.68c0-1.8-1.44-2.82-3.78-2.82a6.22,6.22,0,0,0-4.8,2.37L359.06,44a10,10,0,0,1,7.74-3.66c4.35,0,7.53,2,7.53,6,0,4.41-6.54,4.92-6.09,9.09h-3.87C363.74,50.67,370.1,49.59,370.1,46.68Zm-3.78,10.77a3,3,0,1,1-3.12,2.94A2.92,2.92,0,0,1,366.32,57.45Z"/></g></g></svg>