<svg xmlns="http://www.w3.org/2000/svg" viewBox="0 0 682 475.97"><defs><style>.cls-1{fill:#f1f1f1;}.cls-2{opacity:0.4;}.cls-3{fill:#03b3d9;}.cls-4{fill:#0074b6;}.cls-5{opacity:0.2;}.cls-6{fill:#fff;}.cls-7{fill:none;stroke:#000;stroke-miterlimit:10;stroke-width:2px;}</style></defs><g id="Layer_2" data-name="Layer 2"><g id="レイヤー_4" data-name="レイヤー 4"><path class="cls-1" d="M390.66,231.15a7.59,7.59,0,1,0-7.59-7.59A7.58,7.58,0,0,0,390.66,231.15Z"/></g><g id="レイヤー_1" data-name="レイヤー 1"><g class="cls-2"><path class="cls-3" d="M207.56,385h-34V369.84h34V359.28h-34V344.14h27.46L160.21,279h37l13.38,29.57c6.68,14.61,8.27,18.48,12.49,27.81h1.06c4.4-9.33,6.34-13.91,12.5-27.81l13-29.57h36.26l-40.83,65.12h27.45v15.14H238.89v10.56h33.62V385H238.89v25.7H207.56Z"/><path class="cls-3" d="M304.38,278.3c0-90.12,37.32-134.48,92.59-134.48s92.95,45.06,92.95,134.48c0,90.13-37.67,137.31-92.95,137.31S304.38,368.43,304.38,278.3Zm126.39,0c0-71.47-15.14-86.25-33.8-86.25s-33.44,14.78-33.44,86.25c0,71.82,14.78,88.72,33.44,88.72S430.77,350.12,430.77,278.3Z"/></g><circle class="cls-4" cx="102.6" cy="70.02" r="70.02"/><g class="cls-5"><path class="cls-6" d="M62.88,92.76H53.07V88.39h9.81v-3H53.07V81H61L49.21,62.18H59.88l3.86,8.53c1.93,4.22,2.39,5.34,3.61,8h.3c1.27-2.69,1.83-4,3.61-8L75,62.18H85.49L73.7,81h7.93v4.37H71.92v3h9.71v4.37H71.92v7.42h-9Z"/><path class="cls-6" d="M90.82,62c0-26,10.77-38.82,26.72-38.82s26.82,13,26.82,38.82c0,26-10.87,39.63-26.82,39.63S90.82,88,90.82,62Zm36.47,0c0-20.63-4.37-24.9-9.75-24.9s-9.65,4.27-9.65,24.9,4.26,25.6,9.65,25.6S127.29,82.71,127.29,62Z"/></g><path class="cls-7" d="M37.69,56.43A36.69,36.69,0,0,0,1,93.12V438.28A36.69,36.69,0,0,0,37.69,475H644.31A36.69,36.69,0,0,0,681,438.28V93.12a36.69,36.69,0,0,0-36.69-36.69H527.87"/><path d="M277.76,31.17a35.67,35.67,0,0,1-3.35,2.62,17,17,0,0,0,4.08,2.29,11.09,11.09,0,0,0-2.06,2.58,18.49,18.49,0,0,1-5.56-3.93V35.8H261.3v-.89A22.72,22.72,0,0,1,255.42,39a10.78,10.78,0,0,0-1.84-2.26A18.23,18.23,0,0,0,258,34.08a17.39,17.39,0,0,0-2.78-2.18l1.69-1.69a15.51,15.51,0,0,1,2.94,2.1,16.74,16.74,0,0,0,1.95-2.57h-5.33v-2.5h6.81l.52-.13,2,1a17.23,17.23,0,0,1-2.94,5.07h6.69a25.27,25.27,0,0,1-3.57-6l2.66-.84A16.47,16.47,0,0,0,270,29a22.23,22.23,0,0,0,2.6-2.47l2.34,1.66c-1.12.94-2.42,1.93-3.57,2.71a17.27,17.27,0,0,0,1.23,1.32,23.3,23.3,0,0,0,2.91-2.67Zm-5.49,13.52c-.54,1.06-1.06,2.08-1.5,2.83h6.52v2.55H254.93V47.52h6.29a12.41,12.41,0,0,0-1.19-2.7l1.35-.34h-2.84v-7.2H273.6v7.2h-2.34ZM261.53,42h8.87V39.72h-8.87Zm1.56,2.44a10.36,10.36,0,0,1,1.25,2.76l-1,.28h5.13l-.7-.15a25.87,25.87,0,0,0,1.35-2.89Z"/><path d="M291.17,46.09c1.3-.75,3-1.84,4.71-3l.94,2.34c-1.54,1.17-3.2,2.36-4.68,3.38l-.86-1.48.08.75c-3.23.68-6.66,1.4-9.29,1.9l-.57-2.81c1.09-.16,2.39-.36,3.82-.6V39.83h-3.53v-2.6h3.53v-1.9H283V34.16l-.5.47a8.61,8.61,0,0,0-1.84-2,16.53,16.53,0,0,0,4.49-6.29h2.55a25.88,25.88,0,0,1,4.34,4.47l-1.63,1.95h.23v2.58H288v1.9h3.23v2.6H288v6.29l3.12-.55ZM284,40.81a29.2,29.2,0,0,1,.91,4.48l-2.08.57a23.45,23.45,0,0,0-.8-4.55Zm5.83-8.06a24.16,24.16,0,0,0-3-3.56,24.32,24.32,0,0,1-2.52,3.56Zm-1.56,12.07a32.46,32.46,0,0,0,.91-4.21l2.23.54c-.46,1.46-.88,3.12-1.27,4.19Zm12.87-2.94a12,12,0,0,0,4.76,4.84,11.22,11.22,0,0,0-2,2.54,13,13,0,0,1-4.26-5v3.4c0,1.3-.18,2-1,2.45a6.89,6.89,0,0,1-3.28.49,10.59,10.59,0,0,0-.72-2.68c.72.05,1.5,0,1.76,0s.37-.08.37-.34V37.41h-5.36V34.78h9.05V33.46h-7.23V31.12h7.23V29.71h-7.8V27.16h10.66v7.62h1.92v2.63h-5.61v.86a17.84,17.84,0,0,0,1.06,2.78,21.7,21.7,0,0,0,2.34-3.12l2.42,1.48c-1,1.2-2.21,2.42-3.12,3.28Zm-7.54-3.56a13,13,0,0,1,2.68,3.27L294.14,43a14.7,14.7,0,0,0-2.55-3.4Z"/><path d="M315.09,28.33a22.48,22.48,0,0,0-.62,2.29,68.28,68.28,0,0,0-1.22,10,11.56,11.56,0,0,0,.1,1.66c.34-.91.76-1.76,1.15-2.62l1.58,1.27A59,59,0,0,0,314.24,47a4.75,4.75,0,0,0-.13,1.19c0,.26,0,.71,0,1.07l-2.91.21a31.12,31.12,0,0,1-1-8.22,76.87,76.87,0,0,1,1.06-10.74,18.11,18.11,0,0,0,.24-2.52ZM330.9,47.76a24.7,24.7,0,0,0-3.12-2.58c-.15,2.45-1.56,4.21-5,4.21S317,47.89,317,45.18s2.21-4.42,5.72-4.42a11.25,11.25,0,0,1,1.69.11c-.08-1.59-.16-3.46-.18-5.28-.63,0-1.25,0-1.85,0-1.51,0-3,0-4.5-.15V32.39a41.58,41.58,0,0,0,4.5.23c.6,0,1.22,0,1.82,0,0-1.28,0-2.32-.05-2.86a14.21,14.21,0,0,0-.16-1.69h3.69c-.07.49-.13,1.12-.15,1.66s-.08,1.54-.08,2.68c1.4-.16,2.76-.34,4-.6V35c-1.25.18-2.6.34-4,.44.06,2.5.19,4.55.29,6.29a16.47,16.47,0,0,1,5,3.33Zm-6.39-4.19a8.15,8.15,0,0,0-2.08-.29c-1.46,0-2.45.6-2.45,1.56s1,1.51,2.4,1.51c1.58,0,2.13-.83,2.13-2.34Z"/><path d="M356.28,33a10.71,10.71,0,0,0-.18,1.38c-.11,2.81-.42,10.06-1.54,12.71a3.19,3.19,0,0,1-3.35,2c-1.48,0-3-.1-4.32-.2l-.39-3.49a21.07,21.07,0,0,0,3.64.37,1.39,1.39,0,0,0,1.49-.91c.75-1.64,1.09-6.84,1.09-9.65h-5.85c-1,6.86-3.43,11-8.09,14.25l-3-2.45a14.82,14.82,0,0,0,3.4-2.54,15.31,15.31,0,0,0,4.29-9.26H340c-.88,0-2.31,0-3.43.1V32c1.09.1,2.44.18,3.43.18h3.72c0-.73.05-1.48.05-2.26a20,20,0,0,0-.18-2.39h3.82c-.08.59-.13,1.69-.16,2.31,0,.81,0,1.59-.1,2.34h4.89a13.12,13.12,0,0,0,2-.18Z"/><path d="M371.7,42.48a24.69,24.69,0,0,0,9.46-10.12l2,3.67a27.63,27.63,0,0,1-9.62,9.62,28.22,28.22,0,0,1-9.65,3.67l-2.18-3.44A26.7,26.7,0,0,0,371.7,42.48Zm0-8.43-2.65,2.73a55.3,55.3,0,0,0-6.5-5.61l2.44-2.6A54.54,54.54,0,0,1,371.7,34.05Z"/><path d="M407.63,31.74a12.3,12.3,0,0,0-.86,1.85,29.66,29.66,0,0,1-3.59,7.12c1,.6,1.85,1.2,2.5,1.66l-2.37,3.05a29.41,29.41,0,0,0-2.41-1.85A24.9,24.9,0,0,1,391.3,50l-3-2.62A22,22,0,0,0,398,41.59c-1.76-1.14-3.53-2.21-4.86-3l2.21-2.47c1.38.7,3.15,1.69,4.89,2.73a19.08,19.08,0,0,0,2.7-5.54h-7.46a30.58,30.58,0,0,1-6.86,6.71l-2.81-2.16a23.77,23.77,0,0,0,8.29-8.63,11.27,11.27,0,0,0,1.17-2.73L399,27.71c-.62.91-1.3,2.11-1.61,2.65l0,0h5.33A8.33,8.33,0,0,0,405,30.1Z"/><path d="M421.8,42.48a24.62,24.62,0,0,0,9.46-10.12l2,3.67a27.55,27.55,0,0,1-9.62,9.62A28.17,28.17,0,0,1,414,49.32l-2.19-3.44A26.7,26.7,0,0,0,421.8,42.48Zm0-8.43-2.65,2.73a53.72,53.72,0,0,0-6.5-5.61l2.44-2.6A54.54,54.54,0,0,1,421.8,34.05Z"/><path class="cls-4" d="M207.36,81.79a23.85,23.85,0,0,1-2.12,1.88,38.22,38.22,0,0,0-3.49-2.81,22.18,22.18,0,0,0,7.45-8.6l4.17,1.22A19,19,0,0,1,212,76h21.6v3.78h-3.39v4.61h4.68V88.2h-4.68v4.57h4.18v3.82H203.08V92.77h4.28V88.2h-4.82V84.39h4.82Zm-5.18,22.47a17.89,17.89,0,0,0,4-6.92l4.14,1a19.68,19.68,0,0,1-4.1,7.56Zm9-19.87h2.59V79.78h-2.59Zm0,8.38h2.59V88.2h-2.59Zm5.51,5.37a45.92,45.92,0,0,1,.86,6.73l-4.17.61a45.32,45.32,0,0,0-.69-6.88ZM220,84.39V79.78H217.3v4.61ZM217.3,88.2v4.57H220V88.2ZM223.81,98a39.26,39.26,0,0,1,2.09,6.7l-4.28.83a38.74,38.74,0,0,0-1.84-6.84Zm2.45-18.21h-2.73v4.61h2.73Zm0,8.42h-2.73v4.57h2.73Zm4.75,9a49.09,49.09,0,0,1,4.54,7.2l-4.39,1.48a46.75,46.75,0,0,0-4.25-7.38Z"/><path class="cls-4" d="M251.89,97.81a47.44,47.44,0,0,0-2.59-4.68v12.64h-4V93.06a36.79,36.79,0,0,1-4.14,8.86,25.23,25.23,0,0,0-1.94-4.43A33.28,33.28,0,0,0,244,88.17h-4.1v-4h5.43V72.4h4V84.17h5.33v4H249.3v.25c1,1,4.47,5.07,5.22,6.08Zm-10.4-14.32a35.41,35.41,0,0,0-1.62-8.28l3-.79a35.87,35.87,0,0,1,1.84,8.24ZM255.28,75c-.94,2.88-2,6.3-2.88,8.38l-2.7-.75a63.1,63.1,0,0,0,2-8.42Zm14,21.09v9.72h-4v-9l-10,1.8-.65-4,10.69-1.9V72.22h4V92l3.68-.69.64,4ZM256.93,83.05A31.89,31.89,0,0,1,263,87.19l-2.16,3.42a30.43,30.43,0,0,0-5.9-4.46Zm5.22-1.29a28.5,28.5,0,0,0-5.58-4.68l2.06-2.88a27.25,27.25,0,0,1,5.72,4.35Z"/><path class="cls-4" d="M280.77,77.94c3-.25,8.89-.79,15.4-1.37,3.67-.28,7.56-.5,10.08-.61l0,4.61a37,37,0,0,0-6.88.47,10.82,10.82,0,0,0-7.52,10c0,5.87,5.47,8,11.52,8.28l-1.66,4.93c-7.48-.47-14.54-4.5-14.54-12.24a14.11,14.11,0,0,1,5.26-11c-3.1.33-10.59,1.12-14.73,2l-.46-4.9C278.72,78.09,280.08,78,280.77,77.94Zm23.39,11-2.73,1.23a28,28,0,0,0-2.81-5L301.28,84A44.81,44.81,0,0,1,304.16,88.92Zm4.18-1.76-2.7,1.29a32.15,32.15,0,0,0-2.95-4.86l2.63-1.22A53.9,53.9,0,0,1,308.34,87.16Z"/><path class="cls-4" d="M323.79,91.55c-1.05.32-2.13.61-3.21.93v8.57c0,2.13-.36,3.28-1.51,3.93s-2.88.86-5.36.86a15.7,15.7,0,0,0-1.19-4.18,32.89,32.89,0,0,0,3.35,0c.43,0,.61-.14.61-.68V93.64l-4,1.08-.9-4.14c1.37-.29,3.06-.69,4.9-1.12V83H312.3V79.06h4.18V72.29h4.1v6.77h3V83h-3v5.47l2.74-.72Zm21.09-3.42s0,1.15-.11,1.65c-.5,9.54-1.08,13.22-2.23,14.55a4.06,4.06,0,0,1-2.84,1.44,35.32,35.32,0,0,1-4.57,0,9.91,9.91,0,0,0-.87-3.13h-4c-3.6,0-4.39-1-4.39-4.28V95.47c-.47.43-.94.87-1.41,1.23a20.65,20.65,0,0,0-3-2.92,19.22,19.22,0,0,0,6.37-7.7h-2.34V73.37h17.74V86.08h-11a17,17,0,0,1-.94,2ZM334,99.4c.83,0,1-.29,1.12-2.06a11,11,0,0,0,3.2,1.3c-.29,2.2-.83,3.28-2,3.74.64,0,1.18,0,1.51,0a1.56,1.56,0,0,0,1.29-.47c.72-.72,1.23-3.56,1.62-10.29H329.15c-.22.28-.4.54-.61.82h.93v2a29.55,29.55,0,0,0,5.15-1.84l2.48,2.63a42.67,42.67,0,0,1-7.63,2.2v.93c0,.9.18,1.05,1.23,1.05Zm-4.6-21.1h9.79V76.39h-9.79Zm0,4.75h9.79V81.11h-9.79Z"/><path class="cls-4" d="M381.78,86.11A41.91,41.91,0,0,1,376,98c.79,2.34,1.73,3.71,2.81,3.71.72,0,1.08-1.73,1.26-5.9a9.93,9.93,0,0,0,3.38,2.26c-.58,6.27-1.87,7.82-5,7.82-2.3,0-4.07-1.59-5.4-4.29a31.7,31.7,0,0,1-5.22,4.36,13.29,13.29,0,0,0-2.84-3.24h-3.35v3.2h-3.74v-3.2h-7.06v-3.1h7.06v-1.4H351.9V89.35h5.84V88h-6.48V85h6.48V83.38h-7.46V79.85h7.38V77.94h-5.79V74.7h5.79V72.29h4.11V74.7h5.76v3.24h-5.76v1.91h7.56c-.11-2.48-.15-5-.15-7.56h4.32c-.07,2.59,0,5.11,0,7.56h9.32v3.53h-9.18a86.12,86.12,0,0,0,1,9.21A35.49,35.49,0,0,0,378,84.93Zm-26.89,6.66h3.24V91.44h-3.24Zm0,3.35h3.24V94.79h-3.24Zm9.65-3.35V91.44h-3.31v1.33Zm0,3.35V94.79h-3.31v1.33Zm3.6,4.28a24.32,24.32,0,0,0,3.27-3.16,71.25,71.25,0,0,1-1.9-13.86h-7.92V85h6.58v3h-6.58v1.4h6.08v8.86h-6.12v1.4h6.59ZM379,79.63a29.38,29.38,0,0,0-4.32-5.14l3.13-2.09a31.82,31.82,0,0,1,4.54,4.93Z"/><path class="cls-4" d="M390.82,77.94c3-.25,8.89-.79,15.41-1.37,3.67-.28,7.55-.5,10.07-.61l0,4.61a36.87,36.87,0,0,0-6.87.47,10.82,10.82,0,0,0-7.53,10c0,5.87,5.47,8,11.52,8.28l-1.66,4.93c-7.48-.47-14.54-4.5-14.54-12.24a14.14,14.14,0,0,1,5.26-11c-3.1.33-10.58,1.12-14.72,2l-.47-4.9C388.77,78.09,390.14,78,390.82,77.94Zm23.4,11-2.74,1.23a27.36,27.36,0,0,0-2.81-5L411.34,84A48.27,48.27,0,0,1,414.22,88.92Zm4.17-1.76-2.7,1.29a32.15,32.15,0,0,0-2.95-4.86l2.63-1.22A51.7,51.7,0,0,1,418.39,87.16Z"/><path class="cls-4" d="M449.89,86.33a41.12,41.12,0,0,1-5.5,1.44c.9,1.91,1.9,4,2.95,5.94l-2.13,2.7c-2-.36-5.4-.9-7.77-1.19l.39-3.42c1.41.18,2.81.29,3.78.4L440,88.49a90.41,90.41,0,0,1-15.65.22l-.18-4.11a71.18,71.18,0,0,0,14.21.07l-.61-1.4-.86-2a70.71,70.71,0,0,1-12.28-.14L424.41,77a67.39,67.39,0,0,0,10.8.4v0a33.46,33.46,0,0,0-1.73-3.06l5.07-1a31.69,31.69,0,0,0,1.12,3.56,42.5,42.5,0,0,0,6.84-1.65l.76,4a50.48,50.48,0,0,1-6.12,1.44l.68,1.55.83,1.8A38.43,38.43,0,0,0,449,82.3Zm-20,6.69a10.58,10.58,0,0,0-.87,3.46c0,2.23,1.59,3.74,6.23,3.74a51.36,51.36,0,0,0,9.43-.79l-.14,4.57a62.21,62.21,0,0,1-9.18.69c-6.66,0-10.77-2.27-10.77-7.2a18.33,18.33,0,0,1,.87-4.86Z"/><path class="cls-4" d="M479.74,78.05c-.87.54-1.69,1.08-2.49,1.62-1.9,1.33-5.65,4.5-7.88,6.3a12.18,12.18,0,0,1,3.35-.4c6,0,10.65,3.78,10.65,9,0,5.61-4.28,10.08-12.88,10.08-5,0-8.71-2.27-8.71-5.84,0-2.88,2.62-5.54,6.4-5.54,4.4,0,7.06,2.7,7.6,6.08a5.2,5.2,0,0,0,2.91-4.86c0-3.2-3.24-5.36-7.37-5.36-5.48,0-9,2.92-12.85,7.24L455.23,93c2.52-2,6.8-5.69,8.92-7.42s5.69-4.64,7.45-6.19c-1.83,0-6.73.25-8.6.4a21.54,21.54,0,0,0-2.92.29l-.14-4.65a32,32,0,0,0,3.24.18c1.87,0,9.5-.18,11.52-.36a17.15,17.15,0,0,0,2.73-.36Zm-8.06,22.43c-.22-2.31-1.55-3.82-3.5-3.82-1.33,0-2.19.79-2.19,1.69,0,1.33,1.51,2.23,3.6,2.23A19.53,19.53,0,0,0,471.68,100.48Z"/><path d="M39.83,190.79c1.27,2,3.61,2.84,6.68,3s9.1.05,12.3-.16a7.5,7.5,0,0,0-.63,1.82c-3,.13-8.66.18-11.65.08-3.43-.13-5.82-1.07-7.46-3.12-1,1.14-2.13,2.23-3.33,3.38l-1-1.8a40.28,40.28,0,0,0,3.3-3v-6.73H35v-1.82h4.81Zm-1.2-12.4a17.28,17.28,0,0,0-3.54-4.55l1.54-1a17.41,17.41,0,0,1,3.61,4.44ZM45,181.77c0,3.35-.5,7.49-3.1,10.5a7.79,7.79,0,0,0-1.24-1.11c2.44-2.92,2.73-6.87,2.73-9.88v-3.85h-2.4v-1.64h3.54v-3.51h1.77v3.51h3.53v1.33a15.8,15.8,0,0,0,1.88-4.94l1.69.36a22.72,22.72,0,0,1-.78,2.55h5.82v1.64h-6.5a13.57,13.57,0,0,1-1.72,2.8,8.94,8.94,0,0,0-1.37-1,9.17,9.17,0,0,0,.8-1.06H45v2.75h4.18s0,.55,0,.78c-.18,7.39-.37,9.88-.91,10.66a1.81,1.81,0,0,1-1.35.73,20.42,20.42,0,0,1-2.14,0,4.26,4.26,0,0,0-.44-1.61c.78.07,1.48.07,1.82.07s.47,0,.63-.28c.39-.52.57-2.68.7-8.79ZM55,190.51c0,.85-.16,1.35-.81,1.61a8.2,8.2,0,0,1-3,.31,6.8,6.8,0,0,0-.57-1.64c1.07,0,2,0,2.34,0s.39-.08.39-.31v-4.39H49.84v-1.62h3.48v-2.15h.83a17.29,17.29,0,0,0,1.48-1.82H50.69V179h6.06l.34-.1,1.07.78A20.33,20.33,0,0,1,55,183.46v1h3.51v1.62H55Z"/><path d="M67.64,183.54a20.06,20.06,0,0,0-4.44-2.73l1.06-1.43A17.88,17.88,0,0,1,68.73,182Zm2,3.74c-1.17,2.73-2.73,6-4.06,8.4l-1.69-1.2a76.48,76.48,0,0,0,4.21-8.34Zm-.73-10.45a18,18,0,0,0-4.37-2.91l1.09-1.41A16.86,16.86,0,0,1,70,175.3ZM68.71,195a8.77,8.77,0,0,0,2.91-4.83l1.56.54a9.72,9.72,0,0,1-3,5.36Zm2.81-14c-.39.41-.81.8-1.2,1.17a12.92,12.92,0,0,0-1.48-1.48A22.92,22.92,0,0,0,75,172.28l1.9.57c-.26.6-.55,1.17-.86,1.74h4.65l.37-.1,1.24.88a25.68,25.68,0,0,1-2,3.41h5.25v10.3H71.52Zm1.74,2.21H77.5v-2.78H73.26Zm0,4.34H77.5v-2.83H73.26ZM75,176.28a29.55,29.55,0,0,1-1.69,2.5h4.75a18.54,18.54,0,0,0,1.49-2.5Zm1.35,14.07a20.16,20.16,0,0,1,.7,5.07l-1.69.29a20,20,0,0,0-.57-5.1Zm3.53-.13a19.07,19.07,0,0,1,1.88,5l-1.62.5a19.59,19.59,0,0,0-1.79-5.07Zm3.72-9.85H79.26v2.78h4.37Zm0,4.29H79.26v2.83h4.37Zm.24,5.22a22.67,22.67,0,0,1,3.25,5.23l-1.59.88a24,24,0,0,0-3.15-5.35Z"/><path d="M101.62,183.1l1.15-.11v1.64l-1.15.13v9.1c0,1-.15,1.51-.78,1.79a7.4,7.4,0,0,1-3.07.34,7.37,7.37,0,0,0-.54-1.71c1,0,2,0,2.26,0s.44-.11.44-.42v-8.94l-5,.49c0,3.33-.31,7.77-2.15,10.63a6.08,6.08,0,0,0-1.46-.93c1.69-2.71,1.92-6.48,2-9.52l-1.69.16L91.43,184c.57-.06,1.19-.11,1.87-.16v-8.09h2.37a26.86,26.86,0,0,0,.93-3.51l2.08.42c-.41,1-.83,2.16-1.22,3.09h4.16Zm-6.66.62c1.54-.13,3.23-.31,5-.47v-5.82H95Zm2.27-5.25a12.11,12.11,0,0,1,1.51,3.46l-1.33.54A12.86,12.86,0,0,0,96,178.94ZM98,191.86H96.68v-5.8H98ZM107.63,173c-.6,4.19-1.67,8.17-3.56,10.84a8.08,8.08,0,0,0-1.38-1.11c1.69-2.45,2.65-6.32,3.07-10.14ZM104,184.6h10v11.24h-1.87v-1h-6.32V196H104Zm1.82,1.8V193h6.32V186.4Zm5.7-13.89c.67,3.83,2.1,7.78,4,9.7a6.63,6.63,0,0,0-1.4,1.54c-2-2.34-3.44-6.61-4.19-10.87Z"/><path d="M139.68,179.17a18.64,18.64,0,0,0,2.37-.13v2.18c-.26,0-1.22-.07-2.37-.07h-2.86v.91c0,6.94-1.48,10.5-7.43,13.15l-1.75-1.64c4.74-1.82,7.1-4,7.1-11.33v-1.09h-7.41v4.21c0,1,.08,2.1.11,2.36h-2.29c0-.26.1-1.37.1-2.36v-4.21h-2.78c-1.14,0-2.31.07-2.63.1V179a19.78,19.78,0,0,0,2.63.18h2.78v-3.33c0-.83-.08-1.64-.1-1.9h2.31a17.59,17.59,0,0,0-.13,1.9v3.33h7.41v-3.25a14.81,14.81,0,0,0-.13-2.13H137c0,.26-.13,1.12-.13,2.13v3.25Z"/><path d="M148,182.76c.78.05,2.16.13,3.61.13h14.25c1.3,0,2.24-.08,2.81-.13v2.55c-.52,0-1.61-.13-2.78-.13H151.61c-1.43,0-2.81,0-3.61.13Z"/><path d="M194.22,182.24c.58,0,1.51-.05,2.06-.11v2.16c-.57,0-1.35-.1-2-.1H187a12.31,12.31,0,0,1-6.65,10.89l-2-1.43c4.08-1.9,6.24-4.81,6.55-9.46h-7.72c-.83,0-1.72.05-2.32.1v-2.16c.58.06,1.49.11,2.27.11h7.82v-4.73c-2.62.26-5.56.33-7.56.36l-.52-1.92a64.64,64.64,0,0,0,8.73-.39,35.74,35.74,0,0,0,6.71-1.51l1.38,1.79-1.48.39c-1.28.34-3.28.73-5.15,1v5Z"/><path d="M206.21,174.23a12,12,0,0,0-.45,1.74,63.24,63.24,0,0,0-1.27,10.38,23.08,23.08,0,0,0,.23,3.51c.42-1.17,1-2.71,1.46-3.75l1.09.86a55.55,55.55,0,0,0-1.82,5.69,4.67,4.67,0,0,0-.13,1.15,8.72,8.72,0,0,0,.08.88l-1.85.16a31.21,31.21,0,0,1-1-8.17,78.8,78.8,0,0,1,1.17-10.81,11.92,11.92,0,0,0,.18-1.82ZM223,193a19.51,19.51,0,0,0-3.87-2.94v.47c0,2.13-1,4.21-4.48,4.21s-5.35-1.43-5.35-3.72,1.92-3.93,5.3-3.93a11.12,11.12,0,0,1,2.39.24c-.07-2-.23-4.45-.26-6.58-.83,0-1.63.05-2.47.05-1.45,0-2.8-.08-4.31-.15v-2a39.2,39.2,0,0,0,4.37.23c.8,0,1.61,0,2.41,0v-3.2a10.37,10.37,0,0,0-.13-1.56h2.37a15.44,15.44,0,0,0-.16,1.54c0,.7,0,1.9-.07,3.09a31.52,31.52,0,0,0,4.44-.6v2c-1.4.24-2.91.39-4.44.5,0,2.57.2,5.14.31,7.3a17.42,17.42,0,0,1,5.07,3.36ZM217,189.15a8.16,8.16,0,0,0-2.62-.41c-1.93,0-3.25.86-3.25,2s1.24,2,3.09,2c2.18,0,2.81-1.06,2.81-2.78C217.05,189.78,217.05,189.47,217,189.15Z"/><path d="M249.23,175.27a40.86,40.86,0,0,1-7,5.64V192a20.34,20.34,0,0,0,.15,2.78h-2.55A23.4,23.4,0,0,0,240,192v-9.83a51.88,51.88,0,0,1-9.78,4.06l-1.19-2a41,41,0,0,0,11.62-4.78,28.78,28.78,0,0,0,6.84-5.75Z"/><path d="M265.64,188.58a24.5,24.5,0,0,0,8.68-9.57l1.25,2.21a25.93,25.93,0,0,1-8.74,9.23,27.94,27.94,0,0,1-10.22,4.06l-1.37-2.13A26.81,26.81,0,0,0,265.64,188.58Zm-1.54-8.24L262.46,182a54.47,54.47,0,0,0-6.47-5.44l1.48-1.58A55.5,55.5,0,0,1,264.1,180.34Z"/><path d="M299.9,177.35a11.79,11.79,0,0,0-.6,1.4,26.46,26.46,0,0,1-3.79,7.73c1,.62,1.87,1.22,2.52,1.69L296.6,190c-.62-.5-1.48-1.12-2.47-1.8a24.65,24.65,0,0,1-10.19,6.92l-1.87-1.61a22.85,22.85,0,0,0,10.27-6.48c-2.06-1.32-4.24-2.62-5.7-3.43l1.33-1.53c1.51.78,3.69,2,5.72,3.25a21.8,21.8,0,0,0,3.35-6.94H288.2a28.12,28.12,0,0,1-6.89,6.83l-1.74-1.35a23.15,23.15,0,0,0,8.35-9,11,11,0,0,0,.83-2.08l2.34.75c-.42.68-.89,1.56-1.15,2.06a10.75,10.75,0,0,1-.54,1h7.1a4.59,4.59,0,0,0,1.71-.26Z"/><path d="M305.93,182.76c.78.05,2.16.13,3.61.13h14.25c1.3,0,2.24-.08,2.81-.13v2.55c-.52,0-1.61-.13-2.78-.13H309.54c-1.43,0-2.8,0-3.61.13Z"/><path d="M352.39,178.29c-.47.49-1,1.09-1.46,1.56a31.83,31.83,0,0,1-5.87,5.4c0,2.14,0,5.26,0,7,0,.91.08,2.05.13,2.86h-2.37a23.13,23.13,0,0,0,.16-2.86c0-1.51,0-3.9,0-5.67a41.25,41.25,0,0,1-8.79,3.61l-1.25-1.92a32.62,32.62,0,0,0,10.53-4.42,22.44,22.44,0,0,0,5.28-4.76H338c-.91,0-2.39,0-3.17.11V177a29.09,29.09,0,0,0,3.14.13H343v-1.66a14.52,14.52,0,0,0-.16-2.29h2.39a15.9,15.9,0,0,0-.15,2.29v1.66h4.29A6.28,6.28,0,0,0,351,177ZM348.7,185a65.37,65.37,0,0,1,6.26,3.77l-1.35,1.77a45.52,45.52,0,0,0-6.27-4Z"/><path d="M364.66,186.22l-2,.72a46.64,46.64,0,0,0-2.31-5.85l1.92-.75C362.81,181.46,364.16,184.86,364.66,186.22Zm13.08-5.72c-.19.54-.29,1-.39,1.3a20.39,20.39,0,0,1-3.7,8,20.05,20.05,0,0,1-8.47,6.19l-1.72-1.77a17.31,17.31,0,0,0,8.45-5.51,17.85,17.85,0,0,0,3.59-8.9Zm-7.36,4.16-1.93.67a48.91,48.91,0,0,0-2-5.64l1.89-.65C368.77,180.08,370,183.51,370.38,184.66Z"/><path d="M398.66,187.33a68.22,68.22,0,0,0-10.22-4.18l0,8.58a29.11,29.11,0,0,0,.16,3.07h-2.5a29.68,29.68,0,0,0,.16-3.07V176.6a17.19,17.19,0,0,0-.21-2.71h2.55c-.08.81-.19,1.93-.19,2.71v4.23a85.54,85.54,0,0,1,11.11,4.29Z"/><path d="M414.73,173.89c-.11.5-.24,1-.31,1.54-.16.75-.39,2.26-.68,3.64,1.2-.11,2.26-.19,2.89-.19,2.31,0,4.18.91,4.18,4.4,0,3.07-.41,7.12-1.48,9.28a3.64,3.64,0,0,1-3.77,2.13,15.83,15.83,0,0,1-3-.36l-.34-2.21a11.84,11.84,0,0,0,3.17.57,2.16,2.16,0,0,0,2.24-1.33c.83-1.71,1.22-5.07,1.22-7.85,0-2.34-1.07-2.75-2.73-2.75-.62,0-1.64.07-2.76.18-.93,3.69-2.7,9.49-5.4,13.8l-2.11-.85c2.63-3.51,4.52-9.31,5.41-12.74l-3.25.33c-.63.08-1.67.19-2.32.32l-.2-2.27c.8,0,1.45,0,2.28,0s2.34-.15,3.9-.28a27.51,27.51,0,0,0,.65-5.59Zm8.84,2.94a43.29,43.29,0,0,1,4.7,9.15l-2,1a31.34,31.34,0,0,0-4.6-9.26Zm1.06.42a32.32,32.32,0,0,0-2.1-3.62l1.38-.57a35.76,35.76,0,0,1,2.15,3.56Zm2.94-1.07a28.7,28.7,0,0,0-2.16-3.59l1.38-.57a34.23,34.23,0,0,1,2.19,3.54Z"/><path d="M442.13,178.26c-.31.47-.76,1.17-1.15,1.79-.05.52-.07,1.1-.13,1.64a13,13,0,0,1,8.17-3.2,6.49,6.49,0,0,1,6.78,6.5c0,5.18-3.77,7.93-9.38,9l-.94-2c4.34-.65,8.24-2.65,8.22-7.1a4.68,4.68,0,0,0-5-4.55c-3,0-5.69,1.48-8,3.69-.05,1.07-.08,2.11-.08,3,0,2.34,0,3.9.1,6.21,0,.45.08,1.1.13,1.56h-2.26c0-.36.08-1.11.08-1.53,0-2.47,0-3.74.08-6.6,0-.26,0-.6,0-1-1.24,1.9-2.93,4.37-4.18,6.08l-1.3-1.79c1.43-1.8,4.39-5.8,5.69-7.83,0-.83.11-1.66.16-2.47-1.17.13-3.41.44-5,.65l-.21-2.16a12,12,0,0,0,1.69,0c.83-.05,2.34-.21,3.67-.42.08-1.22.13-2.13.13-2.42a9.77,9.77,0,0,0-.11-1.92l2.47.08c-.13.62-.33,2.08-.52,3.87l.13-.05Z"/><path d="M471,173.81c-.1.47-.2,1-.31,1.51-.13.76-.36,2.26-.65,3.64,1.2-.08,2.26-.15,2.89-.15,2.29,0,4.18.88,4.18,4.36,0,3.07-.44,7.13-1.5,9.29a3.63,3.63,0,0,1-3.77,2.15,14.82,14.82,0,0,1-3-.39l-.34-2.18a12.64,12.64,0,0,0,3.15.57,2.17,2.17,0,0,0,2.26-1.32c.81-1.75,1.2-5.07,1.2-7.88,0-2.34-1.07-2.76-2.71-2.76-.62,0-1.64.08-2.75.18-.94,3.7-2.68,9.47-5.41,13.84l-2.13-.86c2.62-3.51,4.55-9.34,5.4-12.77l-3.25.34-2.31.31-.21-2.26a21.87,21.87,0,0,0,2.29,0c.86,0,2.37-.16,3.93-.29a30.46,30.46,0,0,0,.65-5.59Zm8.87,2.73a45.75,45.75,0,0,1,4.71,9.21l-2,1a30.77,30.77,0,0,0-4.6-9.33Z"/><path d="M492.64,185.57a12.18,12.18,0,0,1,8.32-3.1c4,0,6.58,2.37,6.58,5.38,0,4.63-4.08,7.75-13.65,7l-.63-2.14c8.12,1,12.09-1.35,12.09-4.86,0-2.05-1.89-3.48-4.52-3.48a10,10,0,0,0-8,3.4,6.12,6.12,0,0,0-.78,1.3l-1.95-.46a89.74,89.74,0,0,0,1.3-10.46l2.21.29C493.32,180.16,492.87,183.9,492.64,185.57Zm1.59-11.86a69.51,69.51,0,0,0,9.95,2l-.49,2c-2.44-.33-8-1.48-10-2Z"/><path d="M527.19,178.42a30.8,30.8,0,0,1-4.65.93,46.85,46.85,0,0,1-5.62,10.9l-2-1a37,37,0,0,0,5.51-9.62c-.75,0-1.5.07-2.26.07-1,0-2,0-3-.07l-.15-2a24.19,24.19,0,0,0,3.17.18c.91,0,1.87,0,2.86-.13a21,21,0,0,0,.8-4.45l2.32.21c-.26.94-.6,2.5-1,4a26,26,0,0,0,4-.94Zm3,3a23.66,23.66,0,0,0,0,2.78c0,.93.13,2.62.18,4.18a17.27,17.27,0,0,1,5.33,3.23l-1.12,1.77a17.69,17.69,0,0,0-4.13-2.94c0,.39,0,.75,0,1,0,2.05-1.36,3.74-4.53,3.74-2.83,0-5.15-1.17-5.15-3.72,0-2.36,2.24-3.9,5.15-3.9a12,12,0,0,1,2.45.24c-.08-2.11-.21-4.63-.26-6.42Zm-1.75,8.24a9.13,9.13,0,0,0-2.6-.37c-1.89,0-3.14.86-3.14,2s1,2,3,2,2.81-1.17,2.81-2.44C528.49,190.53,528.49,190.12,528.46,189.65Zm6.87-7.54a30.91,30.91,0,0,0-5.88-3.54l1-1.61a39.24,39.24,0,0,1,6,3.43Z"/><path d="M545.39,178.42c0,1.61,0,4,.18,6.08.42,4.32,1.66,7.15,3.48,7.15,1.33,0,2.53-2.65,3.2-5.25l1.64,1.87c-1.53,4.37-3.12,5.85-4.89,5.85-2.42,0-4.76-2.42-5.46-9.1a68,68,0,0,1-.28-6.86,13.71,13.71,0,0,0-.16-2.29l2.5,0A22.17,22.17,0,0,0,545.39,178.42Zm18.15,10.81-2.11.83c-.44-4.62-2-9.72-4.45-12.74l2-.7C561.33,179.61,563.17,184.89,563.54,189.23Z"/><path d="M578.53,178.57c-.07,1.41-.18,2.84-.39,4.27h10.35s0,.62,0,.93c-.52,7.41-1,10.27-2.05,11.31a2.89,2.89,0,0,1-2.21.86,42.76,42.76,0,0,1-4.35-.08,4.46,4.46,0,0,0-.67-1.87c1.84.18,3.69.18,4.34.18s1,0,1.22-.28c.78-.68,1.28-3.23,1.72-9.23h-8.58c-.91,4.6-3,8.89-8.27,11.44a6.45,6.45,0,0,0-1.38-1.59c7.18-3.22,7.93-10,8.24-15.94h-8v-1.84H579V172.2h1.95v4.53h10.66v1.84Z"/><path d="M615.11,183a8.52,8.52,0,0,1,2.66,5.95c0,3.82-3.46,6.16-8.53,6.16-3.51,0-6.35-1.53-6.35-5.74,0-.71.08-1.75.21-3a24.91,24.91,0,0,1-5.36-.93l.11-2a21.05,21.05,0,0,0,5.43,1c.18-1.51.39-3.12.57-4.63a35.06,35.06,0,0,1-5.48-.88l.1-1.93a23.24,23.24,0,0,0,5.62.94c.13-1,.23-2,.28-2.68a9.7,9.7,0,0,0,0-1.79l2.34.13a14.92,14.92,0,0,0-.34,1.79c-.08.65-.21,1.56-.34,2.63a40.11,40.11,0,0,0,5.21-.31l-.06,1.95c-1.64.15-3.17.26-5.22.26h-.19c-.2,1.5-.39,3.12-.57,4.6h.5a42.26,42.26,0,0,0,5.35-.31l-.05,2a47,47,0,0,1-5,.24h-.94c-.1,1-.16,1.92-.16,2.54,0,2.45,1.41,4,4.35,4,3.9,0,6.39-1.67,6.39-4.34a7.07,7.07,0,0,0-2.83-5.26Z"/><path d="M627.15,175.79a18.05,18.05,0,0,1-2.26,2.76,11.48,11.48,0,0,0-1.59-1,14.34,14.34,0,0,0,3.74-5.36l1.8.47c-.24.54-.5,1.09-.78,1.64h6.84v1.53h-4.84a11.68,11.68,0,0,1,1,2.13l-1.66.5a15.31,15.31,0,0,0-1.22-2.63Zm-.29,9.7V196h-1.79V178.83h9.07v6.66Zm0-5.38v1.43h5.51v-1.43Zm5.51,4.1v-1.45h-5.51v1.45Zm7.7,9.65h-7.85v.94h-1.74v-8h9.59ZM632.22,188v1.66h6.13V188Zm6.13,4.6V190.9h-6.13v1.74Zm8.43-18.38v1.53h-5.41a13,13,0,0,1,1.38,2.13l-1.72.57a12.61,12.61,0,0,0-1.71-2.7h-2a14.33,14.33,0,0,1-2.39,2.55,9.69,9.69,0,0,0-1.67-1,12.62,12.62,0,0,0,4.06-5.23l1.84.44a14.41,14.41,0,0,1-.83,1.67Zm-1.07,19.52c0,1.07-.26,1.61-1,1.9a13,13,0,0,1-4,.29,8.21,8.21,0,0,0-.6-1.72c1.45.08,2.81.05,3.22.05s.52-.15.52-.52v-8.29h-7.56v-6.66h9.38Zm-7.62-13.67v1.43h5.8v-1.43Zm5.8,4.1v-1.45h-5.8v1.45Z"/><path d="M58.34,235.36H47.68V240h-2v-4.66H35.25v-1.79H45.73V231.2h-8V220.83h2.4a20.13,20.13,0,0,0-2.45-3.56l1.64-.73a21.28,21.28,0,0,1,2.65,3.61l-1.32.68H46.2a17,17,0,0,0-2-4l1.72-.65a17.84,17.84,0,0,1,2.13,4l-1.48.6h4.63a27.87,27.87,0,0,0,2.73-4.52L56,217c-.81,1.3-1.77,2.73-2.63,3.85H56.1V231.2H47.68v2.37H58.34ZM39.59,225.25h6.14v-2.78H39.59Zm6.14,4.32v-2.79H39.59v2.79Zm8.4-7.1H47.68v2.78h6.45Zm0,4.31H47.68v2.79h6.45Z"/><path d="M68.72,218.52a16.54,16.54,0,0,0-.49,1.74A58.56,58.56,0,0,0,67,230.11a26.28,26.28,0,0,0,.21,3.54c.44-1.17,1-2.68,1.43-3.69l1.11.83a57.57,57.57,0,0,0-1.82,5.77,7.24,7.24,0,0,0-.13,1.14l.08.91-1.87.13a32.17,32.17,0,0,1-.94-8.26,71.81,71.81,0,0,1,1.15-10.33,14.74,14.74,0,0,0,.18-1.82ZM74.6,231a9.23,9.23,0,0,0-.34,2.36c0,1.17.78,2.32,4.31,2.32a27.84,27.84,0,0,0,6.37-.68l0,2.18a33.54,33.54,0,0,1-6.42.52c-4.32,0-6.24-1.43-6.24-3.84a15.28,15.28,0,0,1,.41-3.05Zm-1-10.51a44.56,44.56,0,0,0,10.58,0v2.13a64.07,64.07,0,0,1-10.55,0Z"/><path d="M95.85,230.24v7.41c0,1.09-.24,1.64-.89,2a8.81,8.81,0,0,1-3.43.34,8,8,0,0,0-.57-1.85c1.17,0,2.23,0,2.57,0s.47-.11.47-.5v-6.86l-3.51,1.09L90.05,230c1.09-.26,2.44-.65,4-1.09v-5.67H90.49v-1.77H94v-5.2h1.85v5.2h2.6v1.77h-2.6v5.12l2.49-.73.24,1.74Zm17.76-2.31s0,.57-.08.83c-.42,7-.81,9.54-1.61,10.43a2.31,2.31,0,0,1-1.75.75,24.54,24.54,0,0,1-3.25-.05,4,4,0,0,0-.49-1.61c1.3.13,2.52.13,3,.13a1.11,1.11,0,0,0,1-.32c.55-.59,1-2.83,1.33-8.55H102a11.54,11.54,0,0,1-.73,1h.65v1.93a24.65,24.65,0,0,0,4.76-1.75l1.22,1.25a35.53,35.53,0,0,1-6,1.93v1.43c0,.59.13.67,1.12.67h3.43c.73,0,.86-.21.94-1.82a5.4,5.4,0,0,0,1.53.63c-.21,2.23-.73,2.75-2.29,2.75h-3.79c-2.11,0-2.6-.44-2.6-2.21V231.7a16.15,16.15,0,0,1-1.85,1.71,11,11,0,0,0-1.4-1.3,15.6,15.6,0,0,0,5-6.16h-2v-8.79h12.27V226H104a14.49,14.49,0,0,1-1,2Zm-11.86-7.1h8.71v-2.21h-8.71Zm0,3.64h8.71v-2.24h-8.71Z"/><path d="M140.94,225.59a32,32,0,0,1-4.29,8.73c.81,2.42,1.85,3.8,3.07,3.8.67,0,1-1.25,1.14-4.45a4.33,4.33,0,0,0,1.56,1c-.31,4.11-1,5.33-2.88,5.33s-3.23-1.45-4.24-3.9A21,21,0,0,1,131,240a9.25,9.25,0,0,0-1.38-1.43,15.48,15.48,0,0,0,1.64-1.14h-4.68V240h-1.72v-2.6h-5.56v-1.51h5.56v-1.4h-4.55v-6.32h4.52v-1.41h-5.14v-1.45h5.14v-1.64h1.77v1.64h5.23v1.45h-5.23v1.41h4.68v6.32h-4.7v1.4h5.35v.94a20.43,20.43,0,0,0,2.68-2.81A52.6,52.6,0,0,1,133,223.61h-14V222h5.85v-2.08h-4.68v-1.56h4.68v-2.08h1.85v2.08h4.68v1.56h-4.68V222h6.27c-.11-1.82-.16-3.71-.16-5.66h1.95c0,2,0,3.87.1,5.66h7.28v1.64h-7.2A59.69,59.69,0,0,0,136,232a28.83,28.83,0,0,0,3.2-7Zm-19.21,5.2h3.19v-1.46h-3.19Zm0,2.57h3.19v-1.48h-3.19Zm8-4h-3.3v1.46h3.3Zm0,2.55h-3.3v1.48h3.3ZM140,221.19a22.59,22.59,0,0,0-3.59-3.64l1.38-.93a19.23,19.23,0,0,1,3.61,3.51Z"/><path d="M156.68,217.89c-.11.5-.24,1-.31,1.54-.16.75-.39,2.26-.68,3.64,1.2-.11,2.26-.19,2.89-.19,2.31,0,4.18.91,4.18,4.4,0,3.07-.41,7.12-1.48,9.28a3.64,3.64,0,0,1-3.77,2.13,15.83,15.83,0,0,1-3-.36l-.34-2.21a11.84,11.84,0,0,0,3.17.57,2.16,2.16,0,0,0,2.24-1.33c.83-1.71,1.22-5.07,1.22-7.85,0-2.34-1.07-2.75-2.73-2.75-.62,0-1.64.07-2.76.18-.93,3.69-2.7,9.49-5.4,13.8l-2.11-.85c2.63-3.51,4.52-9.31,5.41-12.74l-3.25.33c-.63.08-1.67.19-2.32.32l-.2-2.27c.8,0,1.45,0,2.28,0s2.34-.15,3.9-.28a27.51,27.51,0,0,0,.65-5.59Zm8.84,2.94a43.29,43.29,0,0,1,4.7,9.15l-2,1a31.34,31.34,0,0,0-4.6-9.26Zm1.06.42a32.32,32.32,0,0,0-2.1-3.62l1.38-.57a35.76,35.76,0,0,1,2.15,3.56Zm2.94-1.07a28.7,28.7,0,0,0-2.16-3.59l1.38-.57a34.23,34.23,0,0,1,2.19,3.54Z"/><path d="M197.9,220h-3.2v17.22c0,1.4-.34,2.08-1.33,2.36A19.73,19.73,0,0,1,188,240a9.87,9.87,0,0,0-.83-2.06c2.08.11,4.21.08,4.81.05s.75-.2.75-.75V220H174.89V218.1h23Zm-18.49,13.45v2.08h-1.87V223.82h10.55v9.65Zm0-7.78v5.93h6.79v-5.93Z"/><path d="M211.84,218.07a25.19,25.19,0,0,1,3.38,5.78l-1.64.72a13.82,13.82,0,0,0-.67-1.53c-3.64.21-7.39.39-10,.55l-.18-1.82,2-.08a40.55,40.55,0,0,0,2.4-5.44l1.95.47c-.71,1.59-1.54,3.41-2.34,4.89l5.33-.23a31,31,0,0,0-1.74-2.68Zm1.61,19.71c0,1-.18,1.51-.88,1.82a10.76,10.76,0,0,1-3.49.31,7.25,7.25,0,0,0-.62-1.74c1.22.05,2.32,0,2.68,0s.42-.08.42-.41v-3.07h-5.49V240h-1.8V225.46h9.18Zm-7.38-10.71v2.24h5.49v-2.24Zm5.49,6.14v-2.4h-5.49v2.4Zm7.46-5.62c-2.47,0-3.12-.57-3.12-2.7v-8.58h1.9v4.34a43.26,43.26,0,0,0,6-2.45l1.3,1.41a53.55,53.55,0,0,1-7.3,2.62v2.63c0,.83.2,1,1.37,1h4.14c1,0,1.17-.42,1.27-3a5.73,5.73,0,0,0,1.77.75c-.23,3.15-.83,4-2.89,4Zm4.5,10.48c1.09,0,1.27-.52,1.4-3.43a5.13,5.13,0,0,0,1.74.72c-.26,3.49-.83,4.4-3,4.4h-4.6c-2.5,0-3.17-.57-3.17-2.71v-8.73h1.9v4.11a29.48,29.48,0,0,0,6.31-2.73l1.28,1.45A37.63,37.63,0,0,1,217.8,234v3c0,.86.23,1,1.45,1Z"/><path d="M233.33,220.78c1.69-.16,6.55-.63,11.28-1,2.81-.24,5.23-.37,6.94-.44v2.08a21.29,21.29,0,0,0-5,.41,9,9,0,0,0-5.88,8.14c0,5,4.68,6.6,8.87,6.76l-.76,2.18c-4.75-.2-10.19-2.75-10.19-8.5a10.4,10.4,0,0,1,4.79-8.68c-2.27.26-9.29.93-12.07,1.51l-.23-2.29C232,220.88,232.83,220.83,233.33,220.78ZM250,228.14l-1.32.62a24.44,24.44,0,0,0-2.13-3.67l1.32-.57A29.57,29.57,0,0,1,250,228.14Zm3-1.12-1.35.62a23.55,23.55,0,0,0-2.21-3.61l1.3-.6A41,41,0,0,1,253,227Z"/><path d="M270.75,222.62c0,1.46,0,3,.05,4.22a6.22,6.22,0,0,1,.83,3.3c0,3.48-1.69,7.36-7.67,9.15l-1.79-1.74c3.38-.78,5.77-2.19,6.84-4.47a3.74,3.74,0,0,1-2.21.65,4.15,4.15,0,0,1-4.27-4.32,4.53,4.53,0,0,1,4.55-4.5,5.21,5.21,0,0,1,1.72.29c0-.76,0-1.67,0-2.55-3.9,0-8.27.21-11.49.44l0-2c2.86-.05,7.69-.2,11.52-.26,0-.72,0-1.32-.06-1.69,0-.54-.1-1.3-.15-1.61h2.36l-.13,1.61c0,.39,0,1,0,1.67h.39l7.54,0,0,1.95c-1.45-.07-3.79-.13-7.56-.13Zm-1.38,5.65a2.29,2.29,0,0,0-2.29-1.59,2.62,2.62,0,0,0-2.6,2.7,2.48,2.48,0,0,0,2.63,2.55C268.62,231.93,269.6,230.71,269.37,228.27Z"/><path d="M287.84,234.79c1.27,2,3.61,2.84,6.68,3s9.1.05,12.3-.16a7.49,7.49,0,0,0-.62,1.82c-3,.13-8.66.18-11.65.08-3.43-.13-5.83-1.07-7.46-3.12-1,1.14-2.14,2.23-3.33,3.38l-1-1.8a40.32,40.32,0,0,0,3.31-3v-6.73h-3v-1.82h4.81Zm-1.2-12.4a17,17,0,0,0-3.53-4.55l1.53-1a17.68,17.68,0,0,1,3.62,4.44Zm6.32,3.38c0,3.35-.49,7.49-3.09,10.5a7.45,7.45,0,0,0-1.25-1.11c2.44-2.92,2.73-6.87,2.73-9.88v-3.85H289v-1.64h3.53v-3.51h1.77v3.51h3.54v1.33a15.55,15.55,0,0,0,1.87-4.94l1.69.36a22.72,22.72,0,0,1-.78,2.55h5.82v1.64h-6.5a14,14,0,0,1-1.71,2.8,9,9,0,0,0-1.38-1,8.2,8.2,0,0,0,.81-1.06H293v2.75h4.19s0,.55,0,.78c-.18,7.39-.36,9.88-.91,10.66a1.81,1.81,0,0,1-1.35.73,20.27,20.27,0,0,1-2.13,0,4.66,4.66,0,0,0-.44-1.61c.78.07,1.48.07,1.82.07s.46,0,.62-.28c.39-.52.57-2.68.7-8.79ZM303,234.51c0,.85-.15,1.35-.8,1.61a8.26,8.26,0,0,1-3,.31,6.43,6.43,0,0,0-.58-1.64c1.07,0,2.06,0,2.34,0s.39-.08.39-.31v-4.39h-3.48v-1.62h3.48v-2.15h.84a17.29,17.29,0,0,0,1.48-1.82h-4.94V223h6.06l.33-.1,1.07.78a19.58,19.58,0,0,1-3.15,3.77v1h3.51v1.62H303Z"/><path d="M315.56,227.54a20.06,20.06,0,0,0-4.44-2.73l1.06-1.43a18.14,18.14,0,0,1,4.48,2.57Zm2,3.74c-1.17,2.73-2.73,6-4.06,8.4l-1.69-1.2a76.38,76.38,0,0,0,4.22-8.34Zm-.73-10.45a18,18,0,0,0-4.37-2.91l1.1-1.41A16.86,16.86,0,0,1,318,219.3ZM316.63,239a8.77,8.77,0,0,0,2.91-4.83l1.56.54a9.72,9.72,0,0,1-3,5.36Zm2.81-14c-.39.41-.81.8-1.2,1.17a12.92,12.92,0,0,0-1.48-1.48,22.92,22.92,0,0,0,6.11-8.35l1.9.57c-.26.6-.55,1.17-.86,1.74h4.65l.37-.1,1.25.88a25.77,25.77,0,0,1-2.06,3.41h5.25v10.3H319.44Zm1.74,2.21h4.24v-2.78h-4.24Zm0,4.34h4.24v-2.83h-4.24ZM323,220.28a27.35,27.35,0,0,1-1.69,2.5H326a18.5,18.5,0,0,0,1.48-2.5Zm1.35,14.07a20.16,20.16,0,0,1,.7,5.07l-1.69.29a20,20,0,0,0-.57-5.1Zm3.54-.13a19.38,19.38,0,0,1,1.87,5l-1.61.5a20,20,0,0,0-1.8-5.07Zm3.71-9.85h-4.36v2.78h4.36Zm0,4.29h-4.36v2.83h4.36Zm.24,5.22a22.67,22.67,0,0,1,3.25,5.23l-1.59.88a24.32,24.32,0,0,0-3.14-5.35Z"/><path d="M349.45,227.1l1.14-.11v1.64l-1.14.13v9.1c0,1-.16,1.51-.78,1.79a7.4,7.4,0,0,1-3.07.34,7.37,7.37,0,0,0-.54-1.71c1,0,2,0,2.26,0s.44-.11.44-.42v-8.94l-5,.49c0,3.33-.31,7.77-2.15,10.63a6.08,6.08,0,0,0-1.46-.93c1.69-2.71,1.92-6.48,1.95-9.52l-1.69.16-.18-1.74c.57-.06,1.19-.11,1.87-.16v-8.09h2.37a26.86,26.86,0,0,0,.93-3.51l2.08.42c-.41,1-.83,2.16-1.22,3.09h4.16Zm-6.66.62c1.54-.13,3.23-.31,5-.47v-5.82h-5Zm2.27-5.25a11.8,11.8,0,0,1,1.5,3.46l-1.32.54a12.86,12.86,0,0,0-1.38-3.53Zm.72,13.39h-1.27v-5.8h1.27ZM355.46,217c-.6,4.19-1.67,8.17-3.57,10.84a7.63,7.63,0,0,0-1.37-1.11c1.69-2.45,2.65-6.32,3.06-10.14Zm-3.62,11.62h10v11.24H360v-1h-6.32V240h-1.82Zm1.82,1.8V237H360V230.4Zm5.7-13.89c.67,3.83,2.1,7.78,3.95,9.7a6.9,6.9,0,0,0-1.41,1.54c-2-2.34-3.43-6.61-4.18-10.87Z"/><path d="M387.42,223.17a18.79,18.79,0,0,0,2.37-.13v2.18c-.26,0-1.23-.07-2.37-.07h-2.86v.91c0,6.94-1.48,10.5-7.44,13.15l-1.74-1.64c4.73-1.82,7.1-4,7.1-11.33v-1.09h-7.41v4.21c0,1,.08,2.1.1,2.36h-2.29c0-.26.11-1.37.11-2.36v-4.21h-2.78c-1.15,0-2.32.07-2.63.1V223a19.63,19.63,0,0,0,2.63.18H373v-3.33a18.25,18.25,0,0,0-.11-1.9h2.32a15.23,15.23,0,0,0-.13,1.9v3.33h7.41v-3.25a14.81,14.81,0,0,0-.13-2.13h2.34a18.7,18.7,0,0,0-.13,2.13v3.25Z"/><path d="M395.64,226.76c.78.05,2.16.13,3.62.13h14.25c1.3,0,2.23-.08,2.8-.13v2.55c-.52,0-1.61-.13-2.78-.13H399.26c-1.43,0-2.81,0-3.62.13Z"/><path d="M441.78,226.24c.57,0,1.5-.05,2.05-.11v2.16c-.57,0-1.35-.1-2-.1h-7.26a12.31,12.31,0,0,1-6.65,10.89l-2-1.43c4.08-1.9,6.24-4.81,6.55-9.46h-7.72c-.83,0-1.72.05-2.31.1v-2.16c.57.06,1.48.11,2.26.11h7.82v-4.73c-2.62.26-5.56.33-7.56.36l-.52-1.92a64.58,64.58,0,0,0,8.73-.39,35.74,35.74,0,0,0,6.71-1.51l1.38,1.79-1.48.39c-1.28.34-3.28.73-5.15,1v5Z"/><path d="M453.67,218.23a12,12,0,0,0-.45,1.74A63.24,63.24,0,0,0,452,230.35a23.08,23.08,0,0,0,.23,3.51c.42-1.17,1-2.71,1.46-3.75l1.09.86a55.55,55.55,0,0,0-1.82,5.69,4.67,4.67,0,0,0-.13,1.15,8.72,8.72,0,0,0,.08.88l-1.85.16a31.21,31.21,0,0,1-1-8.17,78.8,78.8,0,0,1,1.17-10.81,11.92,11.92,0,0,0,.18-1.82ZM470.41,237a19.51,19.51,0,0,0-3.87-2.94v.47c0,2.13-1,4.21-4.48,4.21s-5.35-1.43-5.35-3.72,1.92-3.93,5.3-3.93a11.28,11.28,0,0,1,2.4.24c-.08-2-.24-4.45-.26-6.58-.84,0-1.64.05-2.48.05-1.45,0-2.8-.08-4.31-.15v-2a39.2,39.2,0,0,0,4.37.23c.8,0,1.61,0,2.42,0v-3.2a11.86,11.86,0,0,0-.13-1.56h2.36a13,13,0,0,0-.15,1.54c0,.7-.06,1.9-.08,3.09a31.32,31.32,0,0,0,4.44-.6v2c-1.4.24-2.91.39-4.44.5,0,2.57.21,5.14.31,7.3a17.42,17.42,0,0,1,5.07,3.36Zm-5.93-3.83a8.16,8.16,0,0,0-2.62-.41c-1.93,0-3.25.86-3.25,2s1.24,2,3.09,2c2.19,0,2.81-1.06,2.81-2.78C464.51,233.78,464.51,233.47,464.48,233.15Z"/><path d="M496.6,219.27a40.56,40.56,0,0,1-7,5.64V236a20.08,20.08,0,0,0,.16,2.78h-2.55a23.4,23.4,0,0,0,.16-2.78v-9.83a51.88,51.88,0,0,1-9.78,4.06l-1.19-2a41,41,0,0,0,11.62-4.78,28.78,28.78,0,0,0,6.84-5.75Z"/><path d="M512.91,232.58A24.46,24.46,0,0,0,521.6,223l1.24,2.21a25.9,25.9,0,0,1-8.73,9.23,28,28,0,0,1-10.22,4.06l-1.38-2.13A26.81,26.81,0,0,0,512.91,232.58Zm-1.53-8.24L509.74,226a54.47,54.47,0,0,0-6.47-5.44l1.48-1.58A57.14,57.14,0,0,1,511.38,224.34Z"/><path d="M547.09,221.35a10.35,10.35,0,0,0-.6,1.4,26.51,26.51,0,0,1-3.8,7.73c1,.62,1.87,1.22,2.52,1.69L543.78,234c-.62-.5-1.48-1.12-2.47-1.8a24.59,24.59,0,0,1-10.19,6.92l-1.87-1.61a22.85,22.85,0,0,0,10.27-6.48c-2.06-1.32-4.24-2.62-5.7-3.43l1.33-1.53c1.51.78,3.69,2,5.72,3.25a21.84,21.84,0,0,0,3.36-6.94h-8.85a27.94,27.94,0,0,1-6.89,6.83l-1.74-1.35a23.15,23.15,0,0,0,8.35-9,11,11,0,0,0,.83-2.08l2.34.75c-.41.68-.88,1.56-1.14,2.06-.16.31-.34.62-.55,1h7.1a4.68,4.68,0,0,0,1.72-.26Z"/><path d="M553,226.76c.78.05,2.16.13,3.62.13h14.24c1.3,0,2.24-.08,2.81-.13v2.55c-.52,0-1.61-.13-2.78-.13H556.64c-1.43,0-2.81,0-3.62.13Z"/><path d="M599.39,222.29c-.47.49-1,1.09-1.46,1.56a31.83,31.83,0,0,1-5.87,5.4c0,2.14,0,5.26,0,7,0,.91.08,2.05.13,2.86h-2.37a23.13,23.13,0,0,0,.16-2.86c0-1.51,0-3.9,0-5.67a41.25,41.25,0,0,1-8.79,3.61l-1.25-1.92a32.62,32.62,0,0,0,10.53-4.42,22.65,22.65,0,0,0,5.28-4.76H585c-.91,0-2.39,0-3.17.11V221a29.09,29.09,0,0,0,3.14.13H590v-1.66a14.52,14.52,0,0,0-.16-2.29h2.39a15.9,15.9,0,0,0-.15,2.29v1.66h4.29A6.32,6.32,0,0,0,598,221ZM595.7,229a66.63,66.63,0,0,1,6.26,3.77l-1.35,1.77a45.52,45.52,0,0,0-6.27-4Z"/><path d="M611.57,230.22l-2,.72a46.64,46.64,0,0,0-2.31-5.85l1.92-.75C609.72,225.46,611.07,228.86,611.57,230.22Zm13.07-5.72c-.18.54-.28,1-.39,1.3a20.37,20.37,0,0,1-3.69,8,20.05,20.05,0,0,1-8.47,6.19l-1.72-1.77a17.31,17.31,0,0,0,8.45-5.51,17.85,17.85,0,0,0,3.59-8.9Zm-7.35,4.16-1.93.67a47.19,47.19,0,0,0-2-5.64l1.9-.65C615.67,224.08,617,227.51,617.29,228.66Z"/><path d="M645.48,231.33a68.66,68.66,0,0,0-10.22-4.18l0,8.58c0,.83.05,2.21.15,3.07H633a29.78,29.78,0,0,0,.15-3.07V220.6a16.08,16.08,0,0,0-.21-2.71h2.55c-.08.81-.18,1.93-.18,2.71v4.23a85.38,85.38,0,0,1,11.1,4.29Z"/><path d="M44.77,261.89c-.11.5-.24,1-.32,1.54-.15.75-.39,2.26-.67,3.64,1.19-.11,2.26-.19,2.88-.19,2.32,0,4.19.91,4.19,4.4,0,3.07-.42,7.12-1.48,9.28a3.64,3.64,0,0,1-3.77,2.13,15.83,15.83,0,0,1-3-.36l-.34-2.21a11.84,11.84,0,0,0,3.17.57,2.16,2.16,0,0,0,2.24-1.33c.83-1.71,1.22-5.07,1.22-7.85,0-2.34-1.07-2.75-2.73-2.75-.63,0-1.64.07-2.76.18-.93,3.69-2.7,9.49-5.41,13.8l-2.1-.85c2.62-3.51,4.52-9.31,5.41-12.74l-3.25.33c-.63.08-1.67.19-2.32.32l-.21-2.27c.81,0,1.46,0,2.29,0s2.34-.15,3.9-.28a27.51,27.51,0,0,0,.65-5.59Zm8.84,2.94a43.76,43.76,0,0,1,4.7,9.15l-2,1a31.34,31.34,0,0,0-4.6-9.26Zm1.06.42a32.32,32.32,0,0,0-2.1-3.62l1.37-.57a35.82,35.82,0,0,1,2.16,3.56Zm2.94-1.07a28.7,28.7,0,0,0-2.16-3.59l1.38-.57A32.48,32.48,0,0,1,59,263.56Z"/><path d="M71.32,266.26c-.31.47-.75,1.17-1.14,1.79-.05.52-.08,1.1-.13,1.64a13,13,0,0,1,8.16-3.2A6.51,6.51,0,0,1,85,273c0,5.18-3.77,7.93-9.39,9L74.68,280c4.34-.65,8.24-2.65,8.21-7.1a4.68,4.68,0,0,0-5-4.55c-3,0-5.7,1.48-8,3.69,0,1.07-.08,2.11-.08,3,0,2.34,0,3.9.11,6.21,0,.45.08,1.1.13,1.56H67.79c0-.36.07-1.11.07-1.53,0-2.47,0-3.74.08-6.6,0-.26,0-.6,0-1-1.25,1.9-2.94,4.37-4.19,6.08L62.48,278c1.43-1.8,4.4-5.8,5.7-7.83,0-.83.1-1.66.15-2.47-1.17.13-3.4.44-5,.65l-.2-2.16a12,12,0,0,0,1.69,0c.83,0,2.34-.21,3.66-.42.08-1.22.13-2.13.13-2.42a9.74,9.74,0,0,0-.1-1.92l2.47.08c-.13.62-.34,2.08-.52,3.87l.13,0Z"/><path d="M99.34,261.81c-.11.47-.21,1-.32,1.51-.13.76-.36,2.26-.65,3.64,1.2-.08,2.27-.15,2.89-.15,2.29,0,4.19.88,4.19,4.36,0,3.07-.45,7.13-1.51,9.29a3.63,3.63,0,0,1-3.77,2.15,14.91,14.91,0,0,1-3-.39L96.81,280a12.64,12.64,0,0,0,3.15.57,2.17,2.17,0,0,0,2.26-1.32c.81-1.75,1.2-5.07,1.2-7.88,0-2.34-1.07-2.76-2.71-2.76-.62,0-1.63.08-2.75.18-.94,3.7-2.68,9.47-5.41,13.84l-2.13-.86C93,278.3,95,272.47,95.83,269l-3.25.34-2.32.31-.21-2.26a21.87,21.87,0,0,0,2.29,0c.86,0,2.37-.16,3.93-.29a30.46,30.46,0,0,0,.65-5.59Zm8.86,2.73a45.75,45.75,0,0,1,4.71,9.21l-2,1a30.77,30.77,0,0,0-4.6-9.33Z"/><path d="M120.15,273.57a12.18,12.18,0,0,1,8.32-3.1c3.95,0,6.57,2.37,6.57,5.38,0,4.63-4.08,7.75-13.65,6.95l-.62-2.14c8.11,1,12.09-1.35,12.09-4.86,0-2.05-1.9-3.48-4.52-3.48a10,10,0,0,0-8,3.4,5.73,5.73,0,0,0-.78,1.3l-1.95-.46A92,92,0,0,0,119,266.1l2.21.29C120.82,268.16,120.38,271.9,120.15,273.57Zm1.58-11.86a69.37,69.37,0,0,0,10,2l-.49,2c-2.45-.33-8-1.48-10-2Z"/><path d="M153.85,266.42a30.8,30.8,0,0,1-4.65.93,46.1,46.1,0,0,1-5.62,10.9l-2-1a37.07,37.07,0,0,0,5.52-9.62c-.76.05-1.51.07-2.26.07-1,0-2,0-3-.07l-.15-1.95a24.19,24.19,0,0,0,3.17.18c.91,0,1.87-.05,2.86-.13a21,21,0,0,0,.81-4.45l2.31.21c-.26.94-.6,2.5-1,4a26.11,26.11,0,0,0,4-.94Zm3,3a26,26,0,0,0,0,2.78c0,.93.13,2.62.19,4.18a17.39,17.39,0,0,1,5.33,3.23l-1.12,1.77a17.56,17.56,0,0,0-4.14-2.94c0,.39,0,.75,0,1,0,2-1.35,3.74-4.52,3.74-2.84,0-5.15-1.17-5.15-3.72,0-2.36,2.23-3.9,5.15-3.9a11.88,11.88,0,0,1,2.44.24c-.08-2.11-.21-4.63-.26-6.42Zm-1.74,8.24a9.18,9.18,0,0,0-2.6-.37c-1.9,0-3.15.86-3.15,2s1,2,3,2,2.8-1.17,2.8-2.44C155.15,278.53,155.15,278.12,155.13,277.65Zm6.86-7.54a31.15,31.15,0,0,0-5.87-3.54l1-1.61a39.24,39.24,0,0,1,6,3.43Z"/><path d="M171.21,266.42c0,1.61,0,4,.18,6.08.41,4.32,1.66,7.15,3.48,7.15,1.33,0,2.52-2.65,3.2-5.25l1.64,1.87c-1.54,4.37-3.12,5.85-4.89,5.85-2.42,0-4.76-2.42-5.46-9.1a68.35,68.35,0,0,1-.29-6.86,13.69,13.69,0,0,0-.15-2.29l2.49.05A24.81,24.81,0,0,0,171.21,266.42Zm18.14,10.81-2.1.83c-.44-4.62-2-9.72-4.45-12.74l2-.7C187.14,267.61,189,272.89,189.35,277.23Z"/><path d="M203.51,266.57c-.08,1.41-.18,2.84-.39,4.27h10.35s0,.62-.05.93c-.52,7.41-1,10.27-2.06,11.31a2.87,2.87,0,0,1-2.21.86,42.54,42.54,0,0,1-4.34-.08,4.34,4.34,0,0,0-.68-1.87c1.85.18,3.7.18,4.35.18s1,0,1.22-.28c.78-.68,1.27-3.23,1.71-9.23h-8.58c-.91,4.6-3,8.89-8.26,11.44a6.66,6.66,0,0,0-1.38-1.59c7.17-3.22,7.93-10,8.24-15.94h-8v-1.84h10.48V260.2h1.95v4.53h10.66v1.84Z"/><path d="M239.24,271a8.52,8.52,0,0,1,2.66,5.95c0,3.82-3.46,6.16-8.53,6.16-3.51,0-6.35-1.53-6.35-5.74,0-.71.08-1.75.21-3a24.81,24.81,0,0,1-5.35-.93l.1-2a21.05,21.05,0,0,0,5.43,1l.58-4.63a35,35,0,0,1-5.49-.88l.1-1.93a23.4,23.4,0,0,0,5.62.94c.13-1,.23-2,.29-2.68a10.68,10.68,0,0,0,0-1.79l2.34.13a14.92,14.92,0,0,0-.34,1.79c-.07.65-.2,1.56-.33,2.63a39.94,39.94,0,0,0,5.2-.31l-.06,2c-1.63.15-3.17.26-5.22.26h-.18c-.21,1.5-.39,3.12-.58,4.6h.5a42.26,42.26,0,0,0,5.35-.31l-.05,2a46.86,46.86,0,0,1-5,.24h-.94c-.1,1-.15,1.92-.15,2.54,0,2.45,1.4,4,4.34,4,3.9,0,6.39-1.67,6.39-4.34a7.07,7.07,0,0,0-2.83-5.26Z"/><path d="M250.44,263.79a18.08,18.08,0,0,1-2.27,2.76,10.8,10.8,0,0,0-1.58-1,14.34,14.34,0,0,0,3.74-5.36l1.8.47c-.24.54-.5,1.09-.78,1.64h6.83v1.53h-4.83a11.68,11.68,0,0,1,1,2.13l-1.66.5a15.31,15.31,0,0,0-1.22-2.63Zm-.29,9.7V284h-1.79V266.83h9.07v6.66Zm0-5.38v1.43h5.51v-1.43Zm5.51,4.1v-1.45h-5.51v1.45Zm7.7,9.65h-7.85v.94h-1.75v-8h9.6ZM255.51,276v1.66h6.13V276Zm6.13,4.6V278.9h-6.13v1.74Zm8.43-18.38v1.53h-5.41a13,13,0,0,1,1.38,2.13l-1.72.57a12.69,12.69,0,0,0-1.72-2.7h-2a14,14,0,0,1-2.4,2.55,9.24,9.24,0,0,0-1.66-1,12.62,12.62,0,0,0,4.06-5.23l1.84.44a14.41,14.41,0,0,1-.83,1.67ZM269,281.78c0,1.07-.26,1.61-1,1.9a13,13,0,0,1-4,.29,7.63,7.63,0,0,0-.59-1.72c1.45.08,2.8.05,3.22.05s.52-.15.52-.52v-8.29h-7.57v-6.66H269Zm-7.62-13.67v1.43h5.8v-1.43Zm5.8,4.1v-1.45h-5.8v1.45Z"/><path d="M297.56,279.36H286.9V284H285v-4.66H274.47v-1.79H285V275.2h-8V264.83h2.4a20.13,20.13,0,0,0-2.45-3.56l1.64-.73a21.28,21.28,0,0,1,2.65,3.61l-1.32.68h5.59a17,17,0,0,0-2-3.95l1.72-.65a17.84,17.84,0,0,1,2.13,4l-1.48.6h4.63a27.87,27.87,0,0,0,2.73-4.52l2.08.67c-.81,1.3-1.77,2.73-2.63,3.85h2.73V275.2H286.9v2.37h10.66Zm-18.75-10.11H285v-2.78h-6.14Zm6.14,4.32v-2.79h-6.14v2.79Zm8.4-7.1H286.9v2.78h6.45Zm0,4.31H286.9v2.79h6.45Z"/><path d="M307.19,262.52a16.54,16.54,0,0,0-.49,1.74,58.56,58.56,0,0,0-1.25,9.85,26.28,26.28,0,0,0,.21,3.54c.44-1.17,1-2.68,1.43-3.69l1.11.83a57.57,57.57,0,0,0-1.82,5.77,7.24,7.24,0,0,0-.13,1.14l.08.91-1.87.13a32.17,32.17,0,0,1-.94-8.26,71.81,71.81,0,0,1,1.15-10.33,14.74,14.74,0,0,0,.18-1.82ZM313.07,275a9.23,9.23,0,0,0-.34,2.36c0,1.17.78,2.32,4.31,2.32a27.84,27.84,0,0,0,6.37-.68l0,2.18a33.54,33.54,0,0,1-6.42.52c-4.32,0-6.24-1.43-6.24-3.84a15.28,15.28,0,0,1,.41-3.05Zm-1-10.51a44.56,44.56,0,0,0,10.58,0v2.13a64.07,64.07,0,0,1-10.55,0Z"/><path d="M333.56,274.24v7.41c0,1.09-.23,1.64-.88,2a8.87,8.87,0,0,1-3.43.34,8,8,0,0,0-.57-1.85c1.17.05,2.23.05,2.57,0s.47-.11.47-.5v-6.86l-3.51,1.09-.44-1.87c1.09-.26,2.44-.65,4-1.09v-5.67h-3.51v-1.77h3.51v-5.2h1.84v5.2h2.6v1.77h-2.6v5.12l2.5-.73.23,1.74Zm17.76-2.31a7.81,7.81,0,0,1-.07.83c-.42,7-.81,9.54-1.62,10.43a2.31,2.31,0,0,1-1.74.75,24.53,24.53,0,0,1-3.25-.05,4.17,4.17,0,0,0-.49-1.61c1.3.13,2.52.13,3,.13a1.13,1.13,0,0,0,1-.32c.54-.59,1-2.83,1.32-8.55h-9.69c-.24.34-.47.65-.73,1h.65v1.93a24.65,24.65,0,0,0,4.76-1.75l1.22,1.25a35.83,35.83,0,0,1-6,1.93v1.43c0,.59.13.67,1.12.67h3.43c.73,0,.86-.21.93-1.82a5.47,5.47,0,0,0,1.54.63c-.21,2.23-.73,2.75-2.29,2.75h-3.8c-2.1,0-2.6-.44-2.6-2.21V275.7a15.3,15.3,0,0,1-1.84,1.71,10.45,10.45,0,0,0-1.41-1.3,15.54,15.54,0,0,0,5-6.16h-2v-8.79H350V270h-8.3a15.68,15.68,0,0,1-1,2Zm-11.85-7.1h8.71v-2.21h-8.71Zm0,3.64h8.71v-2.24h-8.71Z"/><path d="M377.91,269.59a32,32,0,0,1-4.29,8.73c.8,2.42,1.84,3.8,3.06,3.8.68,0,1-1.25,1.15-4.45a4.17,4.17,0,0,0,1.56,1c-.31,4.11-1,5.33-2.89,5.33s-3.22-1.45-4.24-3.9a21,21,0,0,1-4.34,3.9,8.81,8.81,0,0,0-1.38-1.43,14.51,14.51,0,0,0,1.64-1.14H363.5V284h-1.71v-2.6h-5.57v-1.51h5.57v-1.4h-4.55v-6.32h4.52v-1.41h-5.15v-1.45h5.15v-1.64h1.77v1.64h5.22v1.45h-5.22v1.41h4.68v6.32H363.5v1.4h5.36v.94a20.43,20.43,0,0,0,2.68-2.81A52.6,52.6,0,0,1,370,267.61h-14V266h5.85v-2.08h-4.68v-1.56h4.68v-2.08h1.85v2.08h4.68v1.56h-4.68V266h6.26c-.1-1.82-.15-3.71-.15-5.66h1.95c0,2,0,3.87.1,5.66h7.28v1.64h-7.2A58.25,58.25,0,0,0,373,276a28.43,28.43,0,0,0,3.19-7Zm-19.22,5.2h3.2v-1.46h-3.2Zm0,2.57h3.2v-1.48h-3.2Zm8-4h-3.3v1.46h3.3Zm0,2.55h-3.3v1.48h3.3Zm10.24-10.69a22.5,22.5,0,0,0-3.58-3.64l1.37-.93a19,19,0,0,1,3.62,3.51Z"/><path d="M392.89,261.89c-.1.5-.23,1-.31,1.54-.16.75-.39,2.26-.68,3.64,1.2-.11,2.27-.19,2.89-.19,2.31,0,4.19.91,4.19,4.4,0,3.07-.42,7.12-1.49,9.28a3.63,3.63,0,0,1-3.77,2.13,15.93,15.93,0,0,1-3-.36l-.34-2.21a12,12,0,0,0,3.18.57,2.14,2.14,0,0,0,2.23-1.33c.83-1.71,1.22-5.07,1.22-7.85,0-2.34-1.06-2.75-2.73-2.75-.62,0-1.63.07-2.75.18-.94,3.69-2.71,9.49-5.41,13.8l-2.11-.85c2.63-3.51,4.53-9.31,5.41-12.74l-3.25.33c-.62.08-1.66.19-2.31.32l-.21-2.27c.81,0,1.46,0,2.29,0s2.34-.15,3.9-.28a29,29,0,0,0,.65-5.59Zm8.84,2.94a43.8,43.8,0,0,1,4.71,9.15l-2,1a31.13,31.13,0,0,0-4.61-9.26Zm1.07.42a32.42,32.42,0,0,0-2.11-3.62l1.38-.57a37.82,37.82,0,0,1,2.16,3.56Zm2.94-1.07a28.7,28.7,0,0,0-2.16-3.59L405,260a34.12,34.12,0,0,1,2.18,3.54Z"/><path d="M433.36,264h-3.2v17.22c0,1.4-.34,2.08-1.32,2.36a19.82,19.82,0,0,1-5.39.37,9.87,9.87,0,0,0-.83-2.06c2.08.11,4.21.08,4.81,0s.76-.2.76-.75V264H410.35V262.1h23Zm-18.49,13.45v2.08H413V267.82h10.56v9.65Zm0-7.78v5.93h6.79v-5.93Z"/><path d="M446.55,262.07a25.19,25.19,0,0,1,3.38,5.78l-1.64.72a13.82,13.82,0,0,0-.67-1.53c-3.64.21-7.39.39-10,.55l-.18-1.82,2-.08a41.76,41.76,0,0,0,2.39-5.44l2,.47c-.7,1.59-1.54,3.41-2.34,4.89l5.33-.23A31,31,0,0,0,445,262.7Zm1.61,19.71c0,1-.18,1.51-.88,1.82a10.72,10.72,0,0,1-3.48.31,7.75,7.75,0,0,0-.63-1.74c1.22.05,2.32,0,2.68,0s.42-.08.42-.41v-3.07h-5.49V284H439V269.46h9.17Zm-7.38-10.71v2.24h5.49v-2.24Zm5.49,6.14v-2.4h-5.49v2.4Zm7.46-5.62c-2.47,0-3.12-.57-3.12-2.7v-8.58h1.9v4.34a43.26,43.26,0,0,0,6-2.45l1.3,1.41a53.55,53.55,0,0,1-7.3,2.62v2.63c0,.83.2,1,1.37,1H458c1,0,1.17-.42,1.27-3a5.73,5.73,0,0,0,1.77.75c-.23,3.15-.83,4-2.89,4Zm4.5,10.48c1.09,0,1.27-.52,1.4-3.43a5.13,5.13,0,0,0,1.74.72c-.26,3.49-.83,4.4-3,4.4h-4.6c-2.5,0-3.17-.57-3.17-2.71v-8.73h1.9v4.11a29.48,29.48,0,0,0,6.31-2.73l1.28,1.45a37.63,37.63,0,0,1-7.59,2.89v3c0,.86.23,1,1.45,1Z"/><path d="M467.29,264.78c1.69-.16,6.55-.63,11.28-1,2.81-.24,5.23-.37,6.94-.44v2.08a21.29,21.29,0,0,0-5,.41,9,9,0,0,0-5.88,8.14c0,5,4.68,6.6,8.87,6.76l-.76,2.18c-4.75-.2-10.19-2.75-10.19-8.5a10.4,10.4,0,0,1,4.79-8.68c-2.27.26-9.29.93-12.07,1.51l-.23-2.29C466,264.88,466.79,264.83,467.29,264.78ZM484,272.14l-1.32.62a24.44,24.44,0,0,0-2.13-3.67l1.32-.57A29.57,29.57,0,0,1,484,272.14Zm3-1.12-1.35.62a23.55,23.55,0,0,0-2.21-3.61l1.3-.6A41,41,0,0,1,487,271Z"/><path d="M504,266.62c0,1.46,0,3.05.05,4.22a6.31,6.31,0,0,1,.83,3.3c0,3.48-1.69,7.36-7.67,9.15l-1.79-1.74c3.38-.78,5.77-2.19,6.83-4.47a3.7,3.7,0,0,1-2.21.65,4.15,4.15,0,0,1-4.26-4.32,4.53,4.53,0,0,1,4.55-4.5,5.26,5.26,0,0,1,1.72.29c0-.76,0-1.67,0-2.55-3.9,0-8.27.21-11.49.44l-.05-2c2.86-.05,7.69-.2,11.51-.26,0-.72,0-1.32-.05-1.69,0-.54-.1-1.3-.15-1.61h2.36l-.13,1.61c0,.39,0,1,0,1.67h.39l7.54,0,0,1.95c-1.45-.07-3.79-.13-7.57-.13Zm-1.38,5.65a2.29,2.29,0,0,0-2.29-1.59,2.61,2.61,0,0,0-2.6,2.7,2.48,2.48,0,0,0,2.63,2.55C501.82,275.93,502.81,274.71,502.58,272.27Z"/><path d="M520.3,278.79c1.27,1.95,3.61,2.84,6.68,3s9.1.05,12.3-.16a7.5,7.5,0,0,0-.63,1.82c-3,.13-8.66.18-11.65.08-3.43-.13-5.82-1.07-7.46-3.12-1,1.14-2.13,2.23-3.33,3.38l-1-1.8a40.28,40.28,0,0,0,3.3-3v-6.73h-3v-1.82h4.81Zm-1.2-12.4a17.28,17.28,0,0,0-3.54-4.55l1.54-1a17.41,17.41,0,0,1,3.61,4.44Zm6.32,3.38c0,3.35-.5,7.49-3.1,10.5a7.79,7.79,0,0,0-1.24-1.11c2.44-2.92,2.73-6.87,2.73-9.88v-3.85h-2.4v-1.64H525v-3.51h1.77v3.51h3.53v1.33a15.8,15.8,0,0,0,1.88-4.94l1.69.36a22.72,22.72,0,0,1-.78,2.55h5.82v1.64h-6.5a13.57,13.57,0,0,1-1.72,2.8,8.94,8.94,0,0,0-1.37-1,9.17,9.17,0,0,0,.8-1.06h-4.65v2.75h4.18s0,.55,0,.78c-.18,7.39-.37,9.88-.91,10.66a1.81,1.81,0,0,1-1.35.73,20.42,20.42,0,0,1-2.14,0,4.26,4.26,0,0,0-.44-1.61c.78.07,1.48.07,1.82.07s.47,0,.63-.28c.39-.52.57-2.68.7-8.79Zm10.06,8.74c0,.85-.16,1.35-.81,1.61a8.2,8.2,0,0,1-3,.31,6.8,6.8,0,0,0-.57-1.64c1.07,0,2.05,0,2.34,0s.39-.08.39-.31v-4.39h-3.48v-1.62h3.48v-2.15h.83a17.29,17.29,0,0,0,1.48-1.82h-4.94V267h6.06l.34-.1,1.07.78a20.33,20.33,0,0,1-3.15,3.77v1H539v1.62h-3.51Z"/><path d="M547.27,271.54a20.14,20.14,0,0,0-4.45-2.73l1.07-1.43a18.07,18.07,0,0,1,4.47,2.57Zm2,3.74c-1.17,2.73-2.73,6-4,8.4l-1.69-1.2a76.48,76.48,0,0,0,4.21-8.34Zm-.72-10.45a18.23,18.23,0,0,0-4.37-2.91l1.09-1.41a16.86,16.86,0,0,1,4.42,2.79ZM548.33,283a8.72,8.72,0,0,0,2.92-4.83l1.56.54a9.67,9.67,0,0,1-3,5.36Zm2.81-14c-.39.41-.8.8-1.19,1.17a13,13,0,0,0-1.49-1.48,22.7,22.7,0,0,0,6.11-8.35l1.9.57a18.73,18.73,0,0,1-.86,1.74h4.66l.36-.1,1.25.88a26.8,26.8,0,0,1-2,3.41h5.25v10.3H551.14Zm1.74,2.21h4.24v-2.78h-4.24Zm0,4.34h4.24v-2.83h-4.24Zm1.77-11.21a27.35,27.35,0,0,1-1.69,2.5h4.76a17.51,17.51,0,0,0,1.48-2.5ZM556,278.35a20.19,20.19,0,0,1,.71,5.07l-1.69.29a20.52,20.52,0,0,0-.58-5.1Zm3.54-.13a19,19,0,0,1,1.87,5l-1.61.5a19.59,19.59,0,0,0-1.79-5.07Zm3.72-9.85h-4.37v2.78h4.37Zm0,4.29h-4.37v2.83h4.37Zm.23,5.22a22,22,0,0,1,3.25,5.23l-1.58.88a24,24,0,0,0-3.15-5.35Z"/><path d="M580.4,271.1l1.15-.11v1.64l-1.15.13v9.1c0,1-.15,1.51-.78,1.79a7.38,7.38,0,0,1-3.06.34,7.4,7.4,0,0,0-.55-1.71c1,0,2,0,2.26,0s.44-.11.44-.42v-8.94l-5,.49c0,3.33-.31,7.77-2.16,10.63a5.89,5.89,0,0,0-1.46-.93c1.69-2.71,1.93-6.48,2-9.52l-1.69.16-.18-1.74c.57-.06,1.2-.11,1.87-.16v-8.09h2.37a28.62,28.62,0,0,0,.94-3.51l2.08.42c-.42,1-.84,2.16-1.23,3.09h4.16Zm-6.65.62c1.53-.13,3.22-.31,5-.47v-5.82h-5Zm2.26-5.25a12.11,12.11,0,0,1,1.51,3.46l-1.33.54a12.55,12.55,0,0,0-1.38-3.53Zm.73,13.39h-1.28v-5.8h1.28ZM586.41,261c-.6,4.19-1.66,8.17-3.56,10.84a7.71,7.71,0,0,0-1.38-1.11c1.69-2.45,2.65-6.32,3.07-10.14ZM582.8,272.6h10v11.24h-1.88v-1h-6.31V284H582.8Zm1.82,1.8V281h6.31V274.4Zm5.69-13.89c.68,3.83,2.11,7.78,4,9.7a6.63,6.63,0,0,0-1.4,1.54c-2-2.34-3.43-6.61-4.19-10.87Z"/><path d="M617.62,267.17A18.64,18.64,0,0,0,620,267v2.18c-.26,0-1.22-.07-2.37-.07h-2.86v.91c0,6.94-1.48,10.5-7.44,13.15l-1.74-1.64c4.73-1.82,7.1-4.05,7.1-11.33v-1.09h-7.41v4.21c0,1,.08,2.1.1,2.36h-2.28c0-.26.1-1.37.1-2.36v-4.21h-2.78c-1.15,0-2.32.07-2.63.1V267a19.78,19.78,0,0,0,2.63.18h2.78v-3.33c0-.83-.08-1.64-.1-1.9h2.31a15.23,15.23,0,0,0-.13,1.9v3.33h7.41v-3.25a14.81,14.81,0,0,0-.13-2.13h2.34a18.7,18.7,0,0,0-.13,2.13v3.25Z"/><path d="M625.09,270.76c.78.05,2.16.13,3.62.13H643c1.3,0,2.23-.08,2.8-.13v2.55c-.52,0-1.61-.13-2.78-.13H628.71c-1.43,0-2.81.05-3.62.13Z"/><path d="M54.54,314.24c.57,0,1.51-.05,2.06-.11v2.16c-.58-.05-1.36-.1-2-.1H47.34c-.29,4.86-2.18,8.29-6.66,10.89l-2-1.43c4.08-1.9,6.24-4.81,6.55-9.46H37.49c-.84,0-1.72.05-2.32.1v-2.16c.57.06,1.48.11,2.26.11h7.83v-4.73c-2.63.26-5.56.33-7.57.36L37.17,308a64.72,64.72,0,0,0,8.74-.39,35.93,35.93,0,0,0,6.71-1.51L54,307.84l-1.49.39c-1.27.34-3.27.73-5.14,1v5Z"/><path d="M66.51,306.23a10.81,10.81,0,0,0-.44,1.74,63.21,63.21,0,0,0-1.28,10.38,21.88,21.88,0,0,0,.24,3.51c.41-1.17,1-2.71,1.45-3.75l1.09.86a55.55,55.55,0,0,0-1.82,5.69,5.2,5.2,0,0,0-.13,1.15c0,.26.06.62.08.88l-1.84.16a31.14,31.14,0,0,1-1-8.17A80.42,80.42,0,0,1,64,307.87a11.92,11.92,0,0,0,.18-1.82ZM83.25,325A19.51,19.51,0,0,0,79.38,322v.47c0,2.13-1,4.21-4.47,4.21s-5.36-1.43-5.36-3.72,1.92-3.93,5.3-3.93a11.28,11.28,0,0,1,2.4.24c-.08-2-.24-4.45-.26-6.58-.84,0-1.64,0-2.47,0-1.46,0-2.81-.08-4.32-.15v-2a39.33,39.33,0,0,0,4.37.23c.8,0,1.61,0,2.42-.05v-3.2a11.86,11.86,0,0,0-.13-1.56h2.36a13,13,0,0,0-.15,1.54c0,.7-.06,1.9-.08,3.09a31.32,31.32,0,0,0,4.44-.6v2c-1.4.24-2.91.39-4.44.5,0,2.57.21,5.14.31,7.3a17.42,17.42,0,0,1,5.07,3.36Zm-5.93-3.83a8.16,8.16,0,0,0-2.62-.41c-1.93,0-3.25.86-3.25,2.05s1.25,2,3.09,2c2.19,0,2.81-1.06,2.81-2.78C77.35,321.78,77.35,321.47,77.32,321.15Z"/><path d="M109.52,307.27a41,41,0,0,1-7,5.64V324a18.62,18.62,0,0,0,.16,2.78h-2.55a23.78,23.78,0,0,0,.15-2.78v-9.83a52.06,52.06,0,0,1-9.77,4.06l-1.2-2A41,41,0,0,0,101,311.46a28.39,28.39,0,0,0,6.84-5.75Z"/><path d="M125.9,320.58a24.46,24.46,0,0,0,8.69-9.57l1.25,2.21a25.93,25.93,0,0,1-8.74,9.23,28,28,0,0,1-10.22,4.06l-1.38-2.13A26.81,26.81,0,0,0,125.9,320.58Zm-1.53-8.24L122.73,314a54.47,54.47,0,0,0-6.47-5.44l1.48-1.58A56.31,56.31,0,0,1,124.37,312.34Z"/><path d="M160.15,309.35a11.76,11.76,0,0,0-.59,1.4,26.51,26.51,0,0,1-3.8,7.73c1,.62,1.87,1.22,2.52,1.69L156.85,322c-.62-.5-1.48-1.12-2.47-1.8a24.59,24.59,0,0,1-10.19,6.92l-1.87-1.61a22.85,22.85,0,0,0,10.27-6.48c-2.06-1.32-4.24-2.62-5.7-3.43l1.33-1.53c1.51.78,3.69,2,5.72,3.25a21.59,21.59,0,0,0,3.35-6.94h-8.84a27.94,27.94,0,0,1-6.89,6.83l-1.74-1.35a23.15,23.15,0,0,0,8.35-9,11,11,0,0,0,.83-2.08l2.34.75c-.42.68-.88,1.56-1.14,2.06-.16.31-.34.62-.55,1h7.1a4.59,4.59,0,0,0,1.71-.26Z"/><path d="M166.17,314.76c.78.05,2.15.13,3.61.13H184c1.3,0,2.23-.08,2.81-.13v2.55c-.52,0-1.62-.13-2.79-.13H169.78c-1.43,0-2.81.05-3.61.13Z"/><path d="M212.61,310.29c-.47.49-1,1.09-1.46,1.56a31.83,31.83,0,0,1-5.87,5.4c0,2.14,0,5.26,0,7,0,.91.08,2.05.13,2.86H203a23.13,23.13,0,0,0,.16-2.86c0-1.51,0-3.9,0-5.67a41.25,41.25,0,0,1-8.79,3.61l-1.25-1.92a32.62,32.62,0,0,0,10.53-4.42,22.65,22.65,0,0,0,5.28-4.76H198.18c-.91,0-2.39.05-3.17.11V309a29.09,29.09,0,0,0,3.14.13h5.1v-1.66a14.52,14.52,0,0,0-.16-2.29h2.39a15.9,15.9,0,0,0-.15,2.29v1.66h4.29a6.32,6.32,0,0,0,1.64-.15Zm-3.69,6.7a66.63,66.63,0,0,1,6.26,3.77l-1.35,1.77a45.52,45.52,0,0,0-6.27-4Z"/><path d="M224.86,318.22l-2,.72a46.64,46.64,0,0,0-2.31-5.85l1.92-.75C223,313.46,224.37,316.86,224.86,318.22Zm13.08-5.72c-.18.54-.29,1-.39,1.3a20.37,20.37,0,0,1-3.69,8,20.14,20.14,0,0,1-8.48,6.19l-1.72-1.77a17.31,17.31,0,0,0,8.45-5.51,17.85,17.85,0,0,0,3.59-8.9Zm-7.36,4.16-1.92.67a51,51,0,0,0-2-5.64l1.9-.65C229,312.08,230.24,315.51,230.58,316.66Z"/><path d="M258.85,319.33a68.66,68.66,0,0,0-10.22-4.18l0,8.58c0,.83.05,2.21.15,3.07h-2.49a29.78,29.78,0,0,0,.15-3.07V308.6a16.08,16.08,0,0,0-.21-2.71h2.55c-.08.81-.18,1.93-.18,2.71v4.23a85.38,85.38,0,0,1,11.1,4.29Z"/><path d="M274.9,305.89c-.11.5-.24,1-.32,1.54-.15.75-.39,2.26-.67,3.64,1.19-.11,2.26-.19,2.88-.19,2.32,0,4.19.91,4.19,4.4,0,3.07-.41,7.12-1.48,9.28a3.64,3.64,0,0,1-3.77,2.13,15.83,15.83,0,0,1-3-.36l-.34-2.21a11.84,11.84,0,0,0,3.17.57,2.16,2.16,0,0,0,2.24-1.33c.83-1.71,1.22-5.07,1.22-7.85,0-2.34-1.07-2.75-2.73-2.75-.63,0-1.64.07-2.76.18-.93,3.69-2.7,9.49-5.41,13.8l-2.1-.85c2.62-3.51,4.52-9.31,5.41-12.74l-3.25.33c-.63.08-1.67.19-2.32.32l-.21-2.27c.81,0,1.46,0,2.29,0s2.34-.15,3.9-.28a27.51,27.51,0,0,0,.65-5.59Zm8.84,2.94a43.29,43.29,0,0,1,4.7,9.15l-2,1a31.34,31.34,0,0,0-4.6-9.26Zm1.06.42a32.32,32.32,0,0,0-2.1-3.62l1.38-.57a35.76,35.76,0,0,1,2.15,3.56Zm2.94-1.07a28.7,28.7,0,0,0-2.16-3.59L287,304a34.23,34.23,0,0,1,2.19,3.54Z"/><path d="M302.28,310.26c-.31.47-.75,1.17-1.14,1.79-.06.52-.08,1.1-.13,1.64a13,13,0,0,1,8.16-3.2A6.51,6.51,0,0,1,316,317c0,5.18-3.77,7.93-9.39,9l-.94-1.95c4.35-.65,8.25-2.65,8.22-7.1a4.68,4.68,0,0,0-5-4.55c-3,0-5.7,1.48-8,3.69-.05,1.07-.08,2.11-.08,3,0,2.34,0,3.9.11,6.21,0,.45.07,1.1.13,1.56h-2.27c0-.36.08-1.11.08-1.53,0-2.47,0-3.74.08-6.6,0-.26,0-.6,0-1-1.25,1.9-2.94,4.37-4.19,6.08l-1.3-1.79c1.43-1.8,4.39-5.8,5.69-7.83.06-.83.11-1.66.16-2.47-1.17.13-3.41.44-5,.65l-.21-2.16a12,12,0,0,0,1.69,0c.84,0,2.34-.21,3.67-.42.08-1.22.13-2.13.13-2.42a9.74,9.74,0,0,0-.1-1.92l2.47.08c-.13.62-.34,2.08-.52,3.87l.13,0Z"/><path d="M331.12,305.81c-.1.47-.21,1-.31,1.51-.13.76-.36,2.26-.65,3.64,1.2-.08,2.26-.15,2.89-.15,2.28,0,4.18.88,4.18,4.36,0,3.07-.44,7.13-1.51,9.29-.8,1.71-2.08,2.15-3.77,2.15a14.72,14.72,0,0,1-3-.39L328.6,324a12.56,12.56,0,0,0,3.15.57,2.17,2.17,0,0,0,2.26-1.32c.8-1.75,1.19-5.07,1.19-7.88,0-2.34-1.06-2.76-2.7-2.76-.62,0-1.64.08-2.76.18-.93,3.7-2.68,9.47-5.41,13.84l-2.13-.86c2.63-3.51,4.55-9.34,5.41-12.77l-3.25.34c-.6.08-1.64.21-2.31.31l-.21-2.26a21.87,21.87,0,0,0,2.29,0c.85,0,2.36-.16,3.92-.29a29.62,29.62,0,0,0,.65-5.59Zm8.87,2.73a45.19,45.19,0,0,1,4.7,9.21l-2,1a31,31,0,0,0-4.61-9.33Z"/><path d="M352.76,317.57a12.18,12.18,0,0,1,8.32-3.1c3.95,0,6.58,2.37,6.58,5.38,0,4.63-4.08,7.75-13.65,6.95l-.63-2.14c8.12,1,12.09-1.35,12.09-4.86,0-2.05-1.89-3.48-4.52-3.48a10,10,0,0,0-8,3.4,5.73,5.73,0,0,0-.78,1.3l-1.95-.46a89.74,89.74,0,0,0,1.3-10.46l2.21.29C353.43,312.16,353,315.9,352.76,317.57Zm1.58-11.86a69.92,69.92,0,0,0,10,2l-.49,2c-2.44-.33-8-1.48-10-2Z"/><path d="M387.29,310.42a30.8,30.8,0,0,1-4.65.93,46.1,46.1,0,0,1-5.62,10.9l-2-1a37.32,37.32,0,0,0,5.51-9.62c-.76.05-1.51.07-2.26.07-1,0-2,0-3-.07l-.16-1.95a24.19,24.19,0,0,0,3.17.18c.91,0,1.87-.05,2.86-.13a21,21,0,0,0,.81-4.45l2.31.21c-.26.94-.6,2.5-1,4a26.11,26.11,0,0,0,4-.94Zm3,3a26,26,0,0,0,0,2.78c0,.93.13,2.62.19,4.18a17.39,17.39,0,0,1,5.33,3.23l-1.12,1.77a17.56,17.56,0,0,0-4.14-2.94c0,.39,0,.75,0,1,0,2-1.35,3.74-4.52,3.74-2.84,0-5.15-1.17-5.15-3.72,0-2.36,2.23-3.9,5.15-3.9a11.88,11.88,0,0,1,2.44.24c-.08-2.11-.21-4.63-.26-6.42Zm-1.74,8.24a9.18,9.18,0,0,0-2.6-.37c-1.9,0-3.15.86-3.15,2s1,2,3,2,2.8-1.17,2.8-2.44C388.59,322.53,388.59,322.12,388.57,321.65Zm6.86-7.54a31.15,31.15,0,0,0-5.87-3.54l1-1.61a39.24,39.24,0,0,1,6,3.43Z"/><path d="M405.47,310.42c0,1.61,0,4,.19,6.08.41,4.32,1.66,7.15,3.48,7.15,1.33,0,2.52-2.65,3.2-5.25l1.64,1.87c-1.54,4.37-3.12,5.85-4.89,5.85-2.42,0-4.76-2.42-5.46-9.1a68.35,68.35,0,0,1-.29-6.86,13.69,13.69,0,0,0-.15-2.29l2.49.05C405.58,308.54,405.5,309.74,405.47,310.42Zm18.15,10.81-2.1.83c-.45-4.62-2-9.72-4.45-12.74l2-.7C421.41,311.61,423.26,316.89,423.62,321.23Z"/><path d="M438.6,310.57c-.07,1.41-.18,2.84-.39,4.27h10.35s0,.62-.05.93c-.52,7.41-1,10.27-2.05,11.31a2.89,2.89,0,0,1-2.21.86,42.76,42.76,0,0,1-4.35-.08,4.46,4.46,0,0,0-.67-1.87c1.84.18,3.69.18,4.34.18s1,0,1.22-.28c.78-.68,1.28-3.23,1.72-9.23h-8.58c-.91,4.6-3,8.89-8.27,11.44a6.45,6.45,0,0,0-1.38-1.59c7.18-3.22,7.93-10,8.24-15.94h-8v-1.84H439V304.2h2v4.53h10.66v1.84Z"/><path d="M475.17,315a8.55,8.55,0,0,1,2.65,5.95c0,3.82-3.46,6.16-8.53,6.16-3.51,0-6.34-1.53-6.34-5.74,0-.71.07-1.75.2-3a24.81,24.81,0,0,1-5.35-.93l.1-2a21.13,21.13,0,0,0,5.44,1c.18-1.51.39-3.12.57-4.63a35,35,0,0,1-5.49-.88l.11-1.93a23.24,23.24,0,0,0,5.61.94c.13-1,.24-2,.29-2.68a9.71,9.71,0,0,0,0-1.79l2.34.13a13,13,0,0,0-.33,1.79c-.08.65-.21,1.56-.34,2.63a39.94,39.94,0,0,0,5.2-.31l-.05,2c-1.64.15-3.18.26-5.23.26h-.18c-.21,1.5-.39,3.12-.57,4.6h.49a42.53,42.53,0,0,0,5.36-.31l-.06,2a46.86,46.86,0,0,1-5,.24h-.94c-.1,1-.15,1.92-.15,2.54,0,2.45,1.4,4,4.34,4,3.9,0,6.4-1.67,6.4-4.34a7.09,7.09,0,0,0-2.84-5.26Z"/><path d="M487.18,307.79a17.48,17.48,0,0,1-2.26,2.76,11.36,11.36,0,0,0-1.58-1,14.34,14.34,0,0,0,3.74-5.36l1.79.47c-.23.54-.49,1.09-.78,1.64h6.84v1.53H490.1a11.68,11.68,0,0,1,1,2.13l-1.66.5a14.7,14.7,0,0,0-1.23-2.63Zm-.28,9.7V328h-1.8V310.83h9.08v6.66Zm0-5.38v1.43h5.51v-1.43Zm5.51,4.1v-1.45H486.9v1.45Zm7.7,9.65h-7.86v.94h-1.74v-8h9.6ZM492.25,320v1.66h6.14V320Zm6.14,4.6V322.9h-6.14v1.74Zm8.43-18.38v1.53h-5.41a12.27,12.27,0,0,1,1.37,2.13l-1.71.57a13.11,13.11,0,0,0-1.72-2.7h-2a14,14,0,0,1-2.39,2.55,9.24,9.24,0,0,0-1.66-1,12.59,12.59,0,0,0,4.05-5.23l1.85.44a14.41,14.41,0,0,1-.83,1.67Zm-1.07,19.52c0,1.07-.26,1.61-1,1.9a13,13,0,0,1-4,.29,7.68,7.68,0,0,0-.6-1.72c1.46.08,2.81.05,3.23.05s.52-.15.52-.52v-8.29h-7.57v-6.66h9.39Zm-7.62-13.67v1.43h5.8v-1.43Zm5.8,4.1v-1.45h-5.8v1.45Z"/><path d="M535.14,323.36H524.47V328h-2v-4.66H512.05v-1.79h10.47V319.2h-8V308.83h2.39a19.53,19.53,0,0,0-2.44-3.56l1.64-.73a21.84,21.84,0,0,1,2.65,3.61l-1.33.68H523a17.28,17.28,0,0,0-2-3.95l1.72-.65a18.26,18.26,0,0,1,2.13,4l-1.48.6H528a27.87,27.87,0,0,0,2.73-4.52l2.08.67c-.81,1.3-1.77,2.73-2.63,3.85h2.73V319.2h-8.43v2.37h10.67Zm-18.75-10.11h6.13v-2.78h-6.13Zm6.13,4.32v-2.79h-6.13v2.79Zm8.4-7.1h-6.45v2.78h6.45Zm0,4.31h-6.45v2.79h6.45Z"/><path d="M545.59,306.52c-.15.44-.39,1.27-.49,1.74a58.56,58.56,0,0,0-1.25,9.85,26.28,26.28,0,0,0,.21,3.54c.44-1.17,1-2.68,1.43-3.69l1.12.83a55.07,55.07,0,0,0-1.82,5.77,6.22,6.22,0,0,0-.13,1.14l.07.91-1.87.13a32.25,32.25,0,0,1-.93-8.26,72,72,0,0,1,1.14-10.33,14.74,14.74,0,0,0,.18-1.82ZM551.47,319a9.7,9.7,0,0,0-.34,2.36c0,1.17.78,2.32,4.32,2.32a27.9,27.9,0,0,0,6.37-.68l0,2.18a33.47,33.47,0,0,1-6.42.52c-4.31,0-6.24-1.43-6.24-3.84a14.64,14.64,0,0,1,.42-3.05Zm-1-10.51a44.57,44.57,0,0,0,10.58,0v2.13a64.2,64.2,0,0,1-10.56,0Z"/><path d="M572.8,318.24v7.41c0,1.09-.24,1.64-.89,2a8.81,8.81,0,0,1-3.43.34,8,8,0,0,0-.57-1.85c1.17.05,2.23.05,2.57,0s.47-.11.47-.5v-6.86l-3.51,1.09L567,318c1.09-.26,2.44-.65,4-1.09v-5.67h-3.51v-1.77H571v-5.2h1.85v5.2h2.6v1.77h-2.6v5.12l2.49-.73.24,1.74Zm17.75-2.31a7.81,7.81,0,0,1-.07.83c-.42,7-.81,9.54-1.62,10.43a2.28,2.28,0,0,1-1.74.75,24.54,24.54,0,0,1-3.25-.05,4,4,0,0,0-.49-1.61c1.3.13,2.52.13,3,.13a1.11,1.11,0,0,0,1-.32c.55-.59,1-2.83,1.33-8.55H579c-.24.34-.47.65-.73,1h.65v1.93a24.65,24.65,0,0,0,4.76-1.75l1.22,1.25a35.53,35.53,0,0,1-6,1.93v1.43c0,.59.13.67,1.12.67h3.43c.73,0,.86-.21.94-1.82a5.4,5.4,0,0,0,1.53.63c-.21,2.23-.73,2.75-2.29,2.75h-3.79c-2.11,0-2.6-.44-2.6-2.21V319.7a16.15,16.15,0,0,1-1.85,1.71,11,11,0,0,0-1.4-1.3,15.6,15.6,0,0,0,5-6.16h-2v-8.79h12.27V314h-8.3a14.42,14.42,0,0,1-1,2Zm-11.85-7.1h8.71v-2.21H578.7Zm0,3.64h8.71v-2.24H578.7Z"/><path d="M618,313.59a32,32,0,0,1-4.29,8.73c.81,2.42,1.85,3.8,3.07,3.8.68,0,1-1.25,1.15-4.45a4.17,4.17,0,0,0,1.56,1c-.32,4.11-1,5.33-2.89,5.33s-3.22-1.45-4.24-3.9A21,21,0,0,1,608,328a8.81,8.81,0,0,0-1.38-1.43,15.48,15.48,0,0,0,1.64-1.14h-4.68V328h-1.72v-2.6h-5.56v-1.51h5.56v-1.4h-4.55v-6.32h4.53v-1.41h-5.15v-1.45h5.15v-1.64h1.77v1.64h5.22v1.45h-5.22v1.41h4.68v6.32h-4.71v1.4h5.36v.94a19.78,19.78,0,0,0,2.67-2.81A52.66,52.66,0,0,1,610,311.61H596V310h5.85v-2.08h-4.68v-1.56h4.68v-2.08h1.84v2.08h4.68v1.56h-4.68V310h6.27c-.1-1.82-.16-3.71-.16-5.66h2c0,2,0,3.87.11,5.66h7.28v1.64h-7.2A58.38,58.38,0,0,0,613,320a28.09,28.09,0,0,0,3.2-7Zm-19.21,5.2H602v-1.46h-3.2Zm0,2.57H602v-1.48h-3.2Zm8-4h-3.3v1.46h3.3Zm0,2.55h-3.3v1.48h3.3ZM617,309.19a22.59,22.59,0,0,0-3.59-3.64l1.38-.93a19.32,19.32,0,0,1,3.62,3.51Z"/><path d="M633.78,305.89c-.11.5-.24,1-.31,1.54-.16.75-.39,2.26-.68,3.64,1.2-.11,2.26-.19,2.89-.19,2.31,0,4.18.91,4.18,4.4,0,3.07-.41,7.12-1.48,9.28a3.64,3.64,0,0,1-3.77,2.13,15.83,15.83,0,0,1-3-.36l-.34-2.21a11.84,11.84,0,0,0,3.17.57,2.16,2.16,0,0,0,2.24-1.33c.83-1.71,1.22-5.07,1.22-7.85,0-2.34-1.07-2.75-2.73-2.75-.62,0-1.64.07-2.76.18-.93,3.69-2.7,9.49-5.4,13.8l-2.11-.85c2.63-3.51,4.52-9.31,5.41-12.74l-3.25.33c-.63.08-1.67.19-2.32.32l-.2-2.27c.8,0,1.45,0,2.28,0s2.34-.15,3.9-.28a27.51,27.51,0,0,0,.65-5.59Zm8.84,2.94a43.29,43.29,0,0,1,4.7,9.15l-2,1a31.34,31.34,0,0,0-4.6-9.26Zm1.06.42a32.32,32.32,0,0,0-2.1-3.62l1.38-.57a35.76,35.76,0,0,1,2.15,3.56Zm2.94-1.07a28.7,28.7,0,0,0-2.16-3.59l1.38-.57a34.23,34.23,0,0,1,2.19,3.54Z"/><path d="M58.31,352h-3.2v17.22c0,1.4-.33,2.08-1.32,2.36a19.77,19.77,0,0,1-5.38.37,9.4,9.4,0,0,0-.84-2.06c2.08.11,4.22.08,4.81,0s.76-.2.76-.75V352H35.3V350.1h23ZM39.83,365.47v2.08H38V355.82H48.51v9.65Zm0-7.78v5.93h6.78v-5.93Z"/><path d="M72.42,350.07a25.56,25.56,0,0,1,3.38,5.78l-1.64.72a13.82,13.82,0,0,0-.67-1.53c-3.64.21-7.39.39-10,.55l-.18-1.82,2-.08a40.55,40.55,0,0,0,2.4-5.44l2,.47c-.71,1.59-1.54,3.41-2.34,4.89l5.33-.23a28.85,28.85,0,0,0-1.75-2.68ZM74,369.78c0,1-.18,1.51-.88,1.82a10.76,10.76,0,0,1-3.49.31,7.25,7.25,0,0,0-.62-1.74c1.22.05,2.31,0,2.68,0s.41-.08.41-.41v-3.07H66.65V372h-1.8V357.46H74Zm-7.38-10.71v2.24h5.48v-2.24Zm5.48,6.14v-2.4H66.65v2.4Zm7.47-5.62c-2.47,0-3.12-.57-3.12-2.7v-8.58h1.89v4.34a43.43,43.43,0,0,0,6-2.45l1.3,1.41a53.22,53.22,0,0,1-7.31,2.62v2.63c0,.83.21,1,1.38,1h4.14c1,0,1.17-.42,1.27-3a5.73,5.73,0,0,0,1.77.75c-.24,3.15-.83,4-2.89,4Zm4.49,10.48c1.1,0,1.28-.52,1.41-3.43a5.05,5.05,0,0,0,1.74.72c-.26,3.49-.83,4.4-3,4.4h-4.6c-2.5,0-3.17-.57-3.17-2.71v-8.73h1.89v4.11a29.36,29.36,0,0,0,6.32-2.73L86,363.15a37.72,37.72,0,0,1-7.6,2.89v3c0,.86.24,1,1.46,1Z"/><path d="M94.07,352.78c1.69-.16,6.55-.63,11.28-1,2.81-.24,5.23-.37,7-.44v2.08a21.37,21.37,0,0,0-5,.41,9,9,0,0,0-5.87,8.14c0,5,4.68,6.6,8.86,6.76l-.75,2.18c-4.76-.2-10.19-2.75-10.19-8.5a10.39,10.39,0,0,1,4.78-8.68c-2.26.26-9.28.93-12.06,1.51l-.24-2.29C92.77,352.88,93.58,352.83,94.07,352.78Zm16.72,7.36-1.33.62a24.44,24.44,0,0,0-2.13-3.67l1.33-.57A32.37,32.37,0,0,1,110.79,360.14Zm3-1.12-1.35.62a22.79,22.79,0,0,0-2.21-3.61l1.3-.6A38.78,38.78,0,0,1,113.75,359Z"/><path d="M131.66,354.62c0,1.46,0,3.05.05,4.22a6.31,6.31,0,0,1,.83,3.3c0,3.48-1.69,7.36-7.67,9.15l-1.79-1.74c3.38-.78,5.77-2.19,6.83-4.47a3.7,3.7,0,0,1-2.21.65,4.15,4.15,0,0,1-4.26-4.32,4.53,4.53,0,0,1,4.55-4.5,5.26,5.26,0,0,1,1.72.29c0-.76,0-1.67,0-2.55-3.9,0-8.27.21-11.49.44l0-2c2.86-.05,7.69-.2,11.51-.26,0-.72,0-1.32-.05-1.69,0-.54-.1-1.3-.15-1.61h2.36l-.13,1.61c0,.39,0,1,0,1.67h.39l7.54,0,0,1.95c-1.45-.07-3.79-.13-7.57-.13Zm-1.38,5.65a2.29,2.29,0,0,0-2.29-1.59,2.61,2.61,0,0,0-2.6,2.7,2.48,2.48,0,0,0,2.63,2.55C129.52,363.93,130.51,362.71,130.28,360.27Z"/><path d="M148.91,366.79c1.28,1.95,3.62,2.84,6.68,3s9.1.05,12.3-.16a7.49,7.49,0,0,0-.62,1.82c-3,.13-8.66.18-11.65.08-3.43-.13-5.82-1.07-7.46-3.12-1,1.14-2.13,2.23-3.33,3.38l-1-1.8a38.74,38.74,0,0,0,3.31-3v-6.73h-3v-1.82h4.81Zm-1.19-12.4a17.28,17.28,0,0,0-3.54-4.55l1.53-1a17.68,17.68,0,0,1,3.62,4.44Zm6.31,3.38c0,3.35-.49,7.49-3.09,10.5a7.45,7.45,0,0,0-1.25-1.11c2.45-2.92,2.73-6.87,2.73-9.88v-3.85H150v-1.64h3.54v-3.51h1.76v3.51h3.54v1.33a15.55,15.55,0,0,0,1.87-4.94l1.69.36a22.72,22.72,0,0,1-.78,2.55h5.83v1.64H161a14.49,14.49,0,0,1-1.72,2.8,9,9,0,0,0-1.38-1,8.2,8.2,0,0,0,.81-1.06H154v2.75h4.19s0,.55,0,.78c-.18,7.39-.36,9.88-.91,10.66a1.81,1.81,0,0,1-1.35.73,20.22,20.22,0,0,1-2.13,0,4.66,4.66,0,0,0-.44-1.61c.78.07,1.48.07,1.82.07s.47,0,.62-.28c.39-.52.57-2.68.7-8.79Zm10.07,8.74c0,.85-.16,1.35-.81,1.61a8.26,8.26,0,0,1-3,.31,6.8,6.8,0,0,0-.57-1.64c1.06,0,2,0,2.34,0s.39-.08.39-.31v-4.39h-3.49v-1.62h3.49v-2.15h.83a17.29,17.29,0,0,0,1.48-1.82h-4.94V355h6.06l.34-.1,1.06.78a19.91,19.91,0,0,1-3.14,3.77v1h3.51v1.62H164.1Z"/><path d="M176.8,359.54a20.14,20.14,0,0,0-4.45-2.73l1.07-1.43a17.88,17.88,0,0,1,4.47,2.57Zm2,3.74c-1.17,2.73-2.73,6-4.06,8.4l-1.69-1.2a76.48,76.48,0,0,0,4.21-8.34Zm-.73-10.45a18.23,18.23,0,0,0-4.37-2.91l1.09-1.41a16.86,16.86,0,0,1,4.42,2.79ZM177.87,371a8.77,8.77,0,0,0,2.91-4.83l1.56.54a9.72,9.72,0,0,1-3,5.36Zm2.8-14c-.39.41-.8.8-1.19,1.17a12.92,12.92,0,0,0-1.48-1.48,22.92,22.92,0,0,0,6.11-8.35l1.89.57c-.26.6-.54,1.17-.85,1.74h4.65l.36-.1,1.25.88a25.68,25.68,0,0,1-2,3.41h5.25v10.3H180.67Zm1.75,2.21h4.23v-2.78h-4.23Zm0,4.34h4.23v-2.83h-4.23Zm1.76-11.21a27.35,27.35,0,0,1-1.69,2.5h4.76a17.51,17.51,0,0,0,1.48-2.5Zm1.36,14.07a20.63,20.63,0,0,1,.7,5.07l-1.69.29a20,20,0,0,0-.57-5.1Zm3.53-.13a19,19,0,0,1,1.87,5l-1.61.5a19.59,19.59,0,0,0-1.79-5.07Zm3.72-9.85h-4.37v2.78h4.37Zm0,4.29h-4.37v2.83h4.37Zm.23,5.22a22,22,0,0,1,3.25,5.23l-1.58.88a24,24,0,0,0-3.15-5.35Z"/><path d="M210.85,359.1,212,359v1.64l-1.15.13v9.1c0,1-.16,1.51-.78,1.79A7.4,7.4,0,0,1,207,372a7.37,7.37,0,0,0-.54-1.71c1,0,2,0,2.26,0s.44-.11.44-.42v-8.94l-5,.49c0,3.33-.31,7.77-2.15,10.63a6.08,6.08,0,0,0-1.46-.93c1.69-2.71,1.92-6.48,1.95-9.52l-1.69.16-.18-1.74c.57-.06,1.19-.11,1.87-.16v-8.09h2.37a26.86,26.86,0,0,0,.93-3.51l2.08.42c-.41,1-.83,2.16-1.22,3.09h4.16Zm-6.66.62c1.54-.13,3.23-.31,5-.47v-5.82h-5Zm2.27-5.25a11.8,11.8,0,0,1,1.5,3.46l-1.32.54a12.86,12.86,0,0,0-1.38-3.53Zm.72,13.39h-1.27v-5.8h1.27ZM216.86,349c-.6,4.19-1.67,8.17-3.56,10.84a8.08,8.08,0,0,0-1.38-1.11c1.69-2.45,2.65-6.32,3.07-10.14Zm-3.62,11.62h10v11.24h-1.87v-1h-6.32V372h-1.82Zm1.82,1.8V369h6.32V362.4Zm5.7-13.89c.67,3.83,2.1,7.78,4,9.7a6.63,6.63,0,0,0-1.4,1.54c-2-2.34-3.44-6.61-4.19-10.87Z"/><path d="M249,355.17a18.64,18.64,0,0,0,2.37-.13v2.18c-.26,0-1.22-.07-2.37-.07h-2.86v.91c0,6.94-1.48,10.5-7.43,13.15L237,369.57c4.73-1.82,7.09-4.05,7.09-11.33v-1.09h-7.41v4.21c0,1,.08,2.1.11,2.36h-2.29c0-.26.1-1.37.1-2.36v-4.21h-2.78c-1.14,0-2.31.07-2.62.1V355a19.43,19.43,0,0,0,2.62.18h2.78v-3.33c0-.83-.07-1.64-.1-1.9h2.31a17.59,17.59,0,0,0-.13,1.9v3.33H244v-3.25a13.41,13.41,0,0,0-.13-2.13h2.34c0,.26-.13,1.12-.13,2.13v3.25Z"/><path d="M257.37,358.76c.78.05,2.16.13,3.62.13h14.25c1.3,0,2.23-.08,2.8-.13v2.55c-.52,0-1.61-.13-2.78-.13H261c-1.43,0-2.81.05-3.62.13Z"/><path d="M303.67,358.24c.57,0,1.51-.05,2.05-.11v2.16c-.57-.05-1.35-.1-2-.1h-7.25a12.33,12.33,0,0,1-6.66,10.89l-2-1.43c4.09-1.9,6.24-4.81,6.56-9.46h-7.73c-.83,0-1.71.05-2.31.1v-2.16c.57.06,1.48.11,2.26.11h7.83v-4.73c-2.63.26-5.57.33-7.57.36L286.3,352a64.72,64.72,0,0,0,8.74-.39,36.12,36.12,0,0,0,6.71-1.51l1.37,1.79-1.48.39c-1.27.34-3.27.73-5.15,1v5Z"/><path d="M315.72,350.23a13.41,13.41,0,0,0-.44,1.74A63.24,63.24,0,0,0,314,362.35a23.08,23.08,0,0,0,.23,3.51c.42-1.17,1-2.71,1.46-3.75l1.09.86a55.55,55.55,0,0,0-1.82,5.69,4.23,4.23,0,0,0-.13,1.15,8.72,8.72,0,0,0,.08.88l-1.85.16a31.14,31.14,0,0,1-1-8.17,80.42,80.42,0,0,1,1.17-10.81,10.83,10.83,0,0,0,.19-1.82ZM332.47,369a19.56,19.56,0,0,0-3.88-2.94v.47c0,2.13-1,4.21-4.47,4.21s-5.35-1.43-5.35-3.72,1.92-3.93,5.3-3.93a11.19,11.19,0,0,1,2.39.24c-.08-2-.23-4.45-.26-6.58-.83,0-1.64,0-2.47,0-1.45,0-2.81-.08-4.31-.15v-2a39.15,39.15,0,0,0,4.36.23c.81,0,1.62,0,2.42-.05v-3.2a10.37,10.37,0,0,0-.13-1.56h2.37a15.44,15.44,0,0,0-.16,1.54c0,.7,0,1.9-.08,3.09a31.67,31.67,0,0,0,4.45-.6v2c-1.4.24-2.91.39-4.45.5,0,2.57.21,5.14.32,7.3a17.42,17.42,0,0,1,5.07,3.36Zm-5.93-3.83a8.23,8.23,0,0,0-2.63-.41c-1.92,0-3.25.86-3.25,2.05s1.25,2,3.1,2c2.18,0,2.81-1.06,2.81-2.78C326.57,365.78,326.57,365.47,326.54,365.15Z"/><path d="M358.82,351.27a40.86,40.86,0,0,1-7,5.64V368a20.34,20.34,0,0,0,.15,2.78h-2.55a23.4,23.4,0,0,0,.16-2.78v-9.83a51.88,51.88,0,0,1-9.78,4.06l-1.19-2a41,41,0,0,0,11.62-4.78,28.78,28.78,0,0,0,6.84-5.75Z"/><path d="M375.3,364.58A24.5,24.5,0,0,0,384,355l1.25,2.21a25.84,25.84,0,0,1-8.74,9.23,28,28,0,0,1-10.21,4.06l-1.38-2.13A26.81,26.81,0,0,0,375.3,364.58Zm-1.54-8.24L372.13,358a53.82,53.82,0,0,0-6.48-5.44l1.48-1.58A55.5,55.5,0,0,1,373.76,356.34Z"/><path d="M409.64,353.35a10.35,10.35,0,0,0-.6,1.4,26.51,26.51,0,0,1-3.8,7.73c1,.62,1.87,1.22,2.52,1.69L406.33,366c-.62-.5-1.48-1.12-2.47-1.8a24.59,24.59,0,0,1-10.19,6.92l-1.87-1.61a22.85,22.85,0,0,0,10.27-6.48c-2.05-1.32-4.24-2.62-5.69-3.43l1.32-1.53c1.51.78,3.69,2,5.72,3.25a21.84,21.84,0,0,0,3.36-6.94h-8.84a28.29,28.29,0,0,1-6.89,6.83l-1.75-1.35a23.07,23.07,0,0,0,8.35-9,11,11,0,0,0,.83-2.08l2.34.75c-.41.68-.88,1.56-1.14,2.06-.16.31-.34.62-.55,1h7.1a4.68,4.68,0,0,0,1.72-.26Z"/><path d="M415.74,358.76c.78.05,2.15.13,3.61.13H433.6c1.3,0,2.23-.08,2.81-.13v2.55c-.52,0-1.62-.13-2.79-.13H419.35c-1.43,0-2.81.05-3.61.13Z"/><path d="M462.27,354.29c-.47.49-1,1.09-1.46,1.56a31.83,31.83,0,0,1-5.87,5.4c0,2.14,0,5.26,0,7,0,.91.08,2.05.13,2.86h-2.37a23.13,23.13,0,0,0,.16-2.86c0-1.51,0-3.9,0-5.67a41.25,41.25,0,0,1-8.79,3.61l-1.25-1.92a32.62,32.62,0,0,0,10.53-4.42,22.65,22.65,0,0,0,5.28-4.76H447.84c-.91,0-2.4.05-3.18.11V353a29.39,29.39,0,0,0,3.15.13h5.1v-1.66a14.52,14.52,0,0,0-.16-2.29h2.39a15.9,15.9,0,0,0-.15,2.29v1.66h4.29a6.32,6.32,0,0,0,1.64-.15Zm-3.69,6.7a66.63,66.63,0,0,1,6.26,3.77l-1.35,1.77a45.52,45.52,0,0,0-6.27-4Z"/><path d="M474.61,362.22l-2,.72a46.64,46.64,0,0,0-2.31-5.85l1.92-.75C472.76,357.46,474.11,360.86,474.61,362.22Zm13.08-5.72c-.18.54-.29,1-.39,1.3a20.39,20.39,0,0,1-3.7,8,20.05,20.05,0,0,1-8.47,6.19l-1.72-1.77a17.31,17.31,0,0,0,8.45-5.51,17.85,17.85,0,0,0,3.59-8.9Zm-7.36,4.16-1.93.67a48.91,48.91,0,0,0-2-5.64l1.89-.65C478.72,356.08,480,359.51,480.33,360.66Z"/><path d="M508.69,363.33a69.1,69.1,0,0,0-10.22-4.18l0,8.58c0,.83.06,2.21.16,3.07h-2.5a27.13,27.13,0,0,0,.16-3.07V352.6a16.08,16.08,0,0,0-.21-2.71h2.55c-.08.81-.18,1.93-.18,2.71v4.23a85.94,85.94,0,0,1,11.1,4.29Z"/><path d="M524.82,349.89c-.1.5-.23,1-.31,1.54-.16.75-.39,2.26-.68,3.64,1.2-.11,2.27-.19,2.89-.19,2.31,0,4.19.91,4.19,4.4,0,3.07-.42,7.12-1.49,9.28a3.63,3.63,0,0,1-3.77,2.13,15.93,15.93,0,0,1-3-.36l-.34-2.21a12,12,0,0,0,3.18.57,2.14,2.14,0,0,0,2.23-1.33c.83-1.71,1.22-5.07,1.22-7.85,0-2.34-1.06-2.75-2.73-2.75-.62,0-1.63.07-2.75.18-.94,3.69-2.71,9.49-5.41,13.8l-2.11-.85c2.63-3.51,4.53-9.31,5.41-12.74l-3.25.33c-.62.08-1.66.19-2.31.32l-.21-2.27c.81,0,1.46,0,2.29,0s2.34-.15,3.9-.28a29,29,0,0,0,.65-5.59Zm8.84,2.94a43.8,43.8,0,0,1,4.71,9.15l-2,1a31.13,31.13,0,0,0-4.61-9.26Zm1.07.42a32.42,32.42,0,0,0-2.11-3.62l1.38-.57a37.82,37.82,0,0,1,2.16,3.56Zm2.94-1.07a30,30,0,0,0-2.16-3.59l1.38-.57a34.12,34.12,0,0,1,2.18,3.54Z"/><path d="M552.29,354.26c-.31.47-.75,1.17-1.14,1.79,0,.52-.08,1.1-.13,1.64a13,13,0,0,1,8.16-3.2A6.5,6.5,0,0,1,566,361c0,5.18-3.77,7.93-9.39,9l-.93-1.95c4.34-.65,8.24-2.65,8.22-7.1a4.68,4.68,0,0,0-5-4.55c-3,0-5.7,1.48-8,3.69-.05,1.07-.07,2.11-.07,3,0,2.34,0,3.9.1,6.21,0,.45.08,1.1.13,1.56h-2.26c0-.36.08-1.11.08-1.53,0-2.47,0-3.74.07-6.6,0-.26,0-.6,0-1-1.25,1.9-2.94,4.37-4.19,6.08l-1.3-1.79c1.43-1.8,4.4-5.8,5.7-7.83.05-.83.1-1.66.15-2.47-1.17.13-3.4.44-5,.65l-.21-2.16a12,12,0,0,0,1.69,0c.83,0,2.34-.21,3.66-.42.08-1.22.13-2.13.13-2.42a9.74,9.74,0,0,0-.1-1.92l2.47.08c-.13.62-.34,2.08-.52,3.87l.13,0Z"/><path d="M581.22,349.81c-.1.47-.2,1-.31,1.51-.13.76-.36,2.26-.65,3.64,1.2-.08,2.26-.15,2.89-.15,2.29,0,4.18.88,4.18,4.36,0,3.07-.44,7.13-1.5,9.29a3.63,3.63,0,0,1-3.77,2.15,14.82,14.82,0,0,1-3-.39L578.7,368a12.64,12.64,0,0,0,3.15.57,2.17,2.17,0,0,0,2.26-1.32c.81-1.75,1.2-5.07,1.2-7.88,0-2.34-1.07-2.76-2.71-2.76-.62,0-1.64.08-2.75.18-.94,3.7-2.68,9.47-5.41,13.84l-2.13-.86c2.62-3.51,4.55-9.34,5.4-12.77l-3.25.34-2.31.31-.21-2.26a21.87,21.87,0,0,0,2.29,0c.86,0,2.37-.16,3.93-.29a30.46,30.46,0,0,0,.65-5.59Zm8.87,2.73a45.75,45.75,0,0,1,4.71,9.21l-2,1a31,31,0,0,0-4.6-9.33Z"/><path d="M603,361.57a12.18,12.18,0,0,1,8.32-3.1c4,0,6.58,2.37,6.58,5.38,0,4.63-4.08,7.75-13.65,6.95l-.63-2.14c8.12,1,12.09-1.35,12.09-4.86,0-2.05-1.89-3.48-4.52-3.48a10,10,0,0,0-8,3.4,6.12,6.12,0,0,0-.78,1.3l-1.95-.46a89.74,89.74,0,0,0,1.3-10.46l2.21.29C603.63,356.16,603.18,359.9,603,361.57Zm1.59-11.86a69.51,69.51,0,0,0,10,2l-.49,2c-2.44-.33-8-1.48-10-2Z"/><path d="M637.57,354.42a30.8,30.8,0,0,1-4.65.93,46.47,46.47,0,0,1-5.62,10.9l-2-1a37.07,37.07,0,0,0,5.52-9.62c-.76.05-1.51.07-2.27.07-1,0-2,0-3-.07l-.15-1.95a24.19,24.19,0,0,0,3.17.18c.91,0,1.87-.05,2.86-.13a21.65,21.65,0,0,0,.81-4.45l2.31.21c-.26.94-.6,2.5-1,4a26.11,26.11,0,0,0,4-.94Zm3,3a26,26,0,0,0,0,2.78c0,.93.13,2.62.19,4.18a17.39,17.39,0,0,1,5.33,3.23L645,369.37a17.56,17.56,0,0,0-4.14-2.94c0,.39,0,.75,0,1,0,2-1.35,3.74-4.52,3.74-2.84,0-5.15-1.17-5.15-3.72,0-2.36,2.23-3.9,5.15-3.9a11.88,11.88,0,0,1,2.44.24c-.08-2.11-.21-4.63-.26-6.42Zm-1.74,8.24a9.18,9.18,0,0,0-2.6-.37c-1.9,0-3.15.86-3.15,2s1,2,3,2,2.8-1.17,2.8-2.44C638.87,366.53,638.87,366.12,638.85,365.65Zm6.86-7.54a31.15,31.15,0,0,0-5.87-3.54l1-1.61a39.24,39.24,0,0,1,6,3.43Z"/><path d="M39,398.42c0,1.61,0,4,.19,6.08.41,4.32,1.66,7.15,3.48,7.15,1.33,0,2.52-2.65,3.2-5.25l1.64,1.87c-1.54,4.37-3.12,5.85-4.89,5.85-2.42,0-4.76-2.42-5.46-9.1a68.35,68.35,0,0,1-.29-6.86,13.69,13.69,0,0,0-.15-2.29l2.49.05C39.1,396.54,39,397.74,39,398.42Zm18.15,10.81-2.1.83c-.45-4.62-2-9.72-4.45-12.74l2-.7C54.93,399.61,56.78,404.89,57.14,409.23Z"/><path d="M71.13,398.57c-.08,1.41-.18,2.84-.39,4.27H81.09s0,.62,0,.93c-.52,7.41-1,10.27-2.06,11.31a2.87,2.87,0,0,1-2.21.86,42.54,42.54,0,0,1-4.34-.08,4.34,4.34,0,0,0-.68-1.87c1.85.18,3.7.18,4.35.18s1,0,1.22-.28c.78-.68,1.27-3.23,1.71-9.23H70.45c-.91,4.6-3,8.89-8.26,11.44a6.66,6.66,0,0,0-1.38-1.59c7.17-3.22,7.93-10,8.24-15.94h-8v-1.84H71.55V392.2h2v4.53H84.16v1.84Z"/><path d="M106.7,403a8.51,8.51,0,0,1,2.65,5.95c0,3.82-3.46,6.16-8.53,6.16-3.51,0-6.34-1.53-6.34-5.74,0-.71.08-1.75.21-3a24.8,24.8,0,0,1-5.36-.93l.1-2a21.13,21.13,0,0,0,5.44,1c.18-1.51.39-3.12.57-4.63A35.19,35.19,0,0,1,90,399l.11-1.93a23.24,23.24,0,0,0,5.61.94c.13-1,.24-2,.29-2.68a10.67,10.67,0,0,0,0-1.79l2.34.13a13.17,13.17,0,0,0-.34,1.79c-.08.65-.21,1.56-.34,2.63a39.94,39.94,0,0,0,5.2-.31l0,2c-1.64.15-3.17.26-5.23.26h-.18c-.21,1.5-.39,3.12-.57,4.6h.49a42.53,42.53,0,0,0,5.36-.31l0,2a47.17,47.17,0,0,1-5.05.24h-.93a25,25,0,0,0-.16,2.54c0,2.45,1.4,4,4.34,4,3.9,0,6.4-1.67,6.4-4.34a7.09,7.09,0,0,0-2.84-5.26Z"/><path d="M117.72,395.79a18.05,18.05,0,0,1-2.26,2.76,10.91,10.91,0,0,0-1.59-1,14.37,14.37,0,0,0,3.75-5.36l1.79.47c-.23.54-.49,1.09-.78,1.64h6.84v1.53h-4.84a11.16,11.16,0,0,1,1,2.13l-1.67.5a13.93,13.93,0,0,0-1.22-2.63Zm-.28,9.7V416h-1.8V398.83h9.08v6.66Zm0-5.38v1.43H123v-1.43Zm5.51,4.1v-1.45h-5.51v1.45Zm7.69,9.65h-7.85v.94h-1.74v-8h9.59ZM122.79,408v1.66h6.14V408Zm6.14,4.6V410.9h-6.14v1.74Zm8.42-18.38v1.53h-5.41a11.81,11.81,0,0,1,1.38,2.13l-1.71.57a13.11,13.11,0,0,0-1.72-2.7h-2a14.33,14.33,0,0,1-2.39,2.55,9.6,9.6,0,0,0-1.66-1,12.59,12.59,0,0,0,4-5.23l1.85.44a16.21,16.21,0,0,1-.83,1.67Zm-1.06,19.52c0,1.07-.26,1.61-1,1.9a13,13,0,0,1-4,.29,7.68,7.68,0,0,0-.6-1.72c1.46.08,2.81.05,3.23.05s.52-.15.52-.52v-8.29H126.9v-6.66h9.39Zm-7.62-13.67v1.43h5.8v-1.43Zm5.8,4.1v-1.45h-5.8v1.45Z"/><path d="M164.68,411.36H154V416h-2v-4.66H141.59v-1.79h10.48V407.2h-8V396.83h2.4a20.13,20.13,0,0,0-2.45-3.56l1.64-.73a21.28,21.28,0,0,1,2.65,3.61l-1.32.68h5.59a17,17,0,0,0-2-3.95l1.72-.65a17.84,17.84,0,0,1,2.13,4l-1.48.6h4.63a27.87,27.87,0,0,0,2.73-4.52l2.08.67c-.81,1.3-1.77,2.73-2.63,3.85h2.73V407.2H154v2.37h10.66Zm-18.75-10.11h6.14v-2.78h-6.14Zm6.14,4.32v-2.79h-6.14v2.79Zm8.4-7.1H154v2.78h6.45Zm0,4.31H154v2.79h6.45Z"/><path d="M174.14,394.52c-.15.44-.39,1.27-.49,1.74a58.56,58.56,0,0,0-1.25,9.85,26.28,26.28,0,0,0,.21,3.54c.44-1.17,1-2.68,1.43-3.69l1.12.83a55.07,55.07,0,0,0-1.82,5.77,6.22,6.22,0,0,0-.13,1.14l.07.91-1.87.13a32.25,32.25,0,0,1-.93-8.26,72,72,0,0,1,1.14-10.33,14.74,14.74,0,0,0,.18-1.82ZM180,407a9.23,9.23,0,0,0-.34,2.36c0,1.17.78,2.32,4.32,2.32a27.9,27.9,0,0,0,6.37-.68l0,2.18a33.47,33.47,0,0,1-6.42.52c-4.32,0-6.24-1.43-6.24-3.84a14.64,14.64,0,0,1,.42-3.05Zm-1-10.51a44.65,44.65,0,0,0,10.59,0v2.13a64.2,64.2,0,0,1-10.56,0Z"/><path d="M200.35,406.24v7.41c0,1.09-.23,1.64-.88,2A8.9,8.9,0,0,1,196,416a7.51,7.51,0,0,0-.57-1.85c1.17.05,2.24.05,2.58,0s.46-.11.46-.5v-6.86L195,407.88l-.44-1.87c1.09-.26,2.45-.65,3.95-1.09v-5.67H195v-1.77h3.51v-5.2h1.85v5.2H203v1.77h-2.6v5.12l2.5-.73.23,1.74Zm17.76-2.31s0,.57-.08.83c-.42,7-.81,9.54-1.61,10.43a2.31,2.31,0,0,1-1.74.75,24.52,24.52,0,0,1-3.25-.05,4.19,4.19,0,0,0-.5-1.61c1.3.13,2.52.13,3,.13a1.11,1.11,0,0,0,1-.32c.55-.59,1-2.83,1.33-8.55h-9.7a11.54,11.54,0,0,1-.73,1h.65v1.93a24.65,24.65,0,0,0,4.76-1.75l1.22,1.25a35.23,35.23,0,0,1-6,1.93v1.43c0,.59.13.67,1.12.67H211c.73,0,.86-.21.94-1.82a5.4,5.4,0,0,0,1.53.63c-.2,2.23-.72,2.75-2.28,2.75h-3.8c-2.11,0-2.6-.44-2.6-2.21V407.7a15.36,15.36,0,0,1-1.85,1.71,9.78,9.78,0,0,0-1.4-1.3,15.6,15.6,0,0,0,5-6.16h-2v-8.79h12.27V402h-8.29a15.68,15.68,0,0,1-1,2Zm-11.86-7.1H215v-2.21h-8.71Zm0,3.64H215v-2.24h-8.71Z"/><path d="M244.52,401.59a32,32,0,0,1-4.29,8.73c.81,2.42,1.85,3.8,3.07,3.8.68,0,1-1.25,1.15-4.45a4.17,4.17,0,0,0,1.56,1c-.32,4.11-1,5.33-2.89,5.33s-3.22-1.45-4.24-3.9a21,21,0,0,1-4.34,3.9,8.81,8.81,0,0,0-1.38-1.43,15.48,15.48,0,0,0,1.64-1.14h-4.68V416H228.4v-2.6h-5.56v-1.51h5.56v-1.4h-4.55v-6.32h4.53v-1.41h-5.15v-1.45h5.15v-1.64h1.77v1.64h5.22v1.45h-5.22v1.41h4.68v6.32h-4.71v1.4h5.36v.94a19.78,19.78,0,0,0,2.67-2.81,52.66,52.66,0,0,1-1.58-10.43h-14V398h5.85v-2.08H223.7v-1.56h4.68v-2.08h1.84v2.08h4.68v1.56h-4.68V398h6.27c-.1-1.82-.16-3.71-.16-5.66h1.95c0,2,0,3.87.11,5.66h7.28v1.64h-7.2a58.38,58.38,0,0,0,1.11,8.4,28.09,28.09,0,0,0,3.2-7Zm-19.21,5.2h3.2v-1.46h-3.2Zm0,2.57h3.2v-1.48h-3.2Zm8-4H230v1.46h3.3Zm0,2.55H230v1.48h3.3Zm10.24-10.69a22.59,22.59,0,0,0-3.59-3.64l1.38-.93a19.32,19.32,0,0,1,3.62,3.51Z"/><path d="M259.34,393.89c-.1.5-.23,1-.31,1.54-.15.75-.39,2.26-.67,3.64,1.19-.11,2.26-.19,2.88-.19,2.32,0,4.19.91,4.19,4.4,0,3.07-.42,7.12-1.48,9.28a3.64,3.64,0,0,1-3.77,2.13,16,16,0,0,1-3.05-.36l-.33-2.21a11.84,11.84,0,0,0,3.17.57,2.14,2.14,0,0,0,2.23-1.33c.84-1.71,1.23-5.07,1.23-7.85,0-2.34-1.07-2.75-2.73-2.75-.63,0-1.64.07-2.76.18-.94,3.69-2.7,9.49-5.41,13.8l-2.1-.85c2.62-3.51,4.52-9.31,5.4-12.74l-3.25.33c-.62.08-1.66.19-2.31.32l-.21-2.27c.81,0,1.46,0,2.29,0s2.34-.15,3.9-.28a28.23,28.23,0,0,0,.65-5.59Zm8.84,2.94a43.33,43.33,0,0,1,4.71,9.15l-2,1a31.34,31.34,0,0,0-4.6-9.26Zm1.07.42a30.94,30.94,0,0,0-2.11-3.62l1.38-.57a35.82,35.82,0,0,1,2.16,3.56Zm2.94-1.07a28.7,28.7,0,0,0-2.16-3.59l1.38-.57a32.48,32.48,0,0,1,2.18,3.54Z"/><path d="M299.64,396h-3.19v17.22c0,1.4-.34,2.08-1.33,2.36a19.73,19.73,0,0,1-5.38.37,9.87,9.87,0,0,0-.83-2.06c2.08.11,4.21.08,4.81,0s.75-.2.75-.75V396H276.63V394.1h23Zm-18.48,13.45v2.08h-1.87V399.82h10.55v9.65Zm0-7.78v5.93h6.78v-5.93Z"/><path d="M312.67,394.07a25.56,25.56,0,0,1,3.38,5.78l-1.64.72a13.82,13.82,0,0,0-.67-1.53c-3.64.21-7.39.39-10,.55l-.18-1.82,2-.08a40.55,40.55,0,0,0,2.4-5.44l1.95.47c-.71,1.59-1.54,3.41-2.34,4.89l5.33-.23a28.85,28.85,0,0,0-1.75-2.68Zm1.61,19.71c0,1-.18,1.51-.88,1.82a10.76,10.76,0,0,1-3.49.31,7.25,7.25,0,0,0-.62-1.74c1.22.05,2.31,0,2.68,0s.41-.08.41-.41v-3.07H306.9V416h-1.8V401.46h9.18Zm-7.38-10.71v2.24h5.48v-2.24Zm5.48,6.14v-2.4H306.9v2.4Zm7.47-5.62c-2.47,0-3.12-.57-3.12-2.7v-8.58h1.89v4.34a43.43,43.43,0,0,0,6-2.45l1.3,1.41a53.22,53.22,0,0,1-7.31,2.62v2.63c0,.83.21,1,1.38,1h4.14c1,0,1.17-.42,1.27-3a5.73,5.73,0,0,0,1.77.75c-.24,3.15-.83,4-2.89,4Zm4.49,10.48c1.1,0,1.28-.52,1.41-3.43a5.05,5.05,0,0,0,1.74.72c-.26,3.49-.83,4.4-3,4.4h-4.6c-2.5,0-3.17-.57-3.17-2.71v-8.73h1.89v4.11a29.36,29.36,0,0,0,6.32-2.73l1.28,1.45a37.72,37.72,0,0,1-7.6,2.89v3c0,.86.24,1,1.46,1Z"/><path d="M333.24,396.78c1.69-.16,6.55-.63,11.28-1,2.81-.24,5.23-.37,6.94-.44v2.08a21.33,21.33,0,0,0-5,.41,9,9,0,0,0-5.88,8.14c0,5,4.68,6.6,8.87,6.76l-.75,2.18c-4.76-.2-10.2-2.75-10.2-8.5a10.4,10.4,0,0,1,4.79-8.68c-2.27.26-9.29.93-12.07,1.51l-.23-2.29C331.94,396.88,332.74,396.83,333.24,396.78ZM350,404.14l-1.33.62a24.44,24.44,0,0,0-2.13-3.67l1.32-.57A30.91,30.91,0,0,1,350,404.14Zm3-1.12-1.35.62a23.55,23.55,0,0,0-2.21-3.61l1.3-.6A38.78,38.78,0,0,1,352.92,403Z"/><path d="M369.74,398.62c0,1.46,0,3.05.05,4.22a6.22,6.22,0,0,1,.84,3.3c0,3.48-1.69,7.36-7.67,9.15l-1.8-1.74c3.38-.78,5.77-2.19,6.84-4.47a3.7,3.7,0,0,1-2.21.65,4.15,4.15,0,0,1-4.26-4.32,4.52,4.52,0,0,1,4.55-4.5,5.2,5.2,0,0,1,1.71.29c0-.76,0-1.67,0-2.55-3.9,0-8.27.21-11.5.44l0-2c2.86-.05,7.7-.2,11.52-.26,0-.72,0-1.32-.05-1.69,0-.54-.11-1.3-.16-1.61h2.37l-.13,1.61c0,.39,0,1,0,1.67h.39l7.54,0,0,1.95c-1.46-.07-3.8-.13-7.57-.13Zm-1.38,5.65a2.28,2.28,0,0,0-2.28-1.59,2.61,2.61,0,0,0-2.6,2.7,2.47,2.47,0,0,0,2.62,2.55C367.61,407.93,368.6,406.71,368.36,404.27Z"/><path d="M386.56,411.62a4,4,0,1,1-4-3.95A4,4,0,0,1,386.56,411.62Zm-1.35,0a2.61,2.61,0,0,0-2.63-2.62,2.64,2.64,0,0,0,0,5.28A2.61,2.61,0,0,0,385.21,411.62Z"/><path class="cls-6" d="M74.18,62.57c-.7.22-1.42.41-2.14.63v5.71c0,1.42-.24,2.18-1,2.62a7.08,7.08,0,0,1-3.57.57,10.63,10.63,0,0,0-.8-2.78,21.51,21.51,0,0,0,2.24,0c.29,0,.41-.09.41-.45V64l-2.67.72L66,61.93l3.27-.75V56.86H66.52V54.25h2.79V49.73H72v4.52h2v2.61H72v3.65L73.87,60Zm14.06-2.28s0,.77-.07,1.11c-.34,6.36-.72,8.81-1.49,9.69a2.71,2.71,0,0,1-1.89,1,22.73,22.73,0,0,1-3.05,0A6.65,6.65,0,0,0,81.16,70H78.47c-2.4,0-2.92-.67-2.92-2.86V65.19c-.32.29-.63.58-.94.82a13.64,13.64,0,0,0-2-2,12.83,12.83,0,0,0,4.25-5.13H75.31V50.45H87.14v8.48H79.79a10.24,10.24,0,0,1-.62,1.36ZM81,67.81c.55,0,.67-.2.74-1.37a7.44,7.44,0,0,0,2.14.86c-.19,1.47-.55,2.19-1.34,2.5.43,0,.79,0,1,0a1.05,1.05,0,0,0,.87-.31c.48-.48.81-2.38,1.08-6.86H77.75l-.4.55H78v1.29a20,20,0,0,0,3.43-1.22L83.06,65A28.29,28.29,0,0,1,78,66.49v.62c0,.6.12.7.82.7ZM77.9,53.74h6.53V52.47H77.9Zm0,3.17h6.53v-1.3H77.9Z"/><path class="cls-6" d="M112.84,59A27.86,27.86,0,0,1,109,66.87c.53,1.56,1.16,2.47,1.88,2.47.48,0,.72-1.15.84-3.93a6.91,6.91,0,0,0,2.25,1.51c-.38,4.17-1.25,5.21-3.36,5.21-1.53,0-2.71-1.06-3.6-2.86a21.09,21.09,0,0,1-3.48,2.9A9.12,9.12,0,0,0,101.59,70H99.35v2.14H96.86V70H92.15V68h4.71V67H92.92v-5.9h3.89v-.94H92.49v-2h4.32v-1h-5V54.77h4.92V53.5H92.9V51.34h3.86V49.73H99.5v1.61h3.84V53.5H99.5v1.27h5c-.07-1.65-.1-3.33-.1-5h2.88c0,1.73,0,3.41,0,5h6.21v2.36h-6.12a59.46,59.46,0,0,0,.67,6.14,23.78,23.78,0,0,0,2.19-5.11ZM94.91,63.39h2.16V62.5H94.91Zm0,2.23h2.16v-.89H94.91Zm6.44-2.23V62.5H99.14v.89Zm0,2.23v-.89H99.14v.89Zm2.4,2.86a17.31,17.31,0,0,0,2.18-2.11,47.48,47.48,0,0,1-1.27-9.24H99.38v1h4.39v2H99.38v.94h4.05V67H99.35V68h4.4ZM111,54.63a18.92,18.92,0,0,0-2.88-3.43l2.09-1.4a21.09,21.09,0,0,1,3,3.29Z"/><path class="cls-6" d="M124.82,66.75a30.64,30.64,0,0,0-1.73-3.12v8.42h-2.64V63.58a24.87,24.87,0,0,1-2.76,5.91,17.28,17.28,0,0,0-1.3-3,22.08,22.08,0,0,0,3.17-6.21h-2.74V57.65h3.63V49.8h2.64v7.85h3.55v2.67h-3.55v.17c.7.69,3,3.38,3.48,4.05Zm-6.94-9.55a24,24,0,0,0-1.08-5.52l2-.53a23.81,23.81,0,0,1,1.23,5.5Zm9.19-5.64c-.62,1.92-1.32,4.2-1.92,5.59l-1.8-.5A39.73,39.73,0,0,0,124.67,51Zm9.32,14.06V72.1H133.7v-6L127,67.3l-.43-2.66,7.13-1.27V49.68h2.69V62.89l2.44-.46.44,2.66Zm-8.21-8.71a20.82,20.82,0,0,1,4,2.76L130.77,62a20.32,20.32,0,0,0-3.94-3Zm3.48-.86a19.07,19.07,0,0,0-3.72-3.12L129.31,51a18.36,18.36,0,0,1,3.81,2.91Z"/><path class="cls-6" d="M82.53,86.07a15.9,15.9,0,0,1-1.42,1.25,24.42,24.42,0,0,0-2.33-1.87,14.71,14.71,0,0,0,5-5.74l2.79.81a14.12,14.12,0,0,1-.94,1.69H100v2.52H97.75V87.8h3.12v2.54H97.75v3h2.78v2.54H79.67V93.39h2.86v-3H79.31V87.8h3.22Zm-3.46,15a11.79,11.79,0,0,0,2.69-4.61l2.76.67a13.28,13.28,0,0,1-2.73,5Zm6-13.25h1.73V84.73H85.05Zm0,5.59h1.73v-3H85.05ZM88.72,97a31.68,31.68,0,0,1,.58,4.48l-2.79.41a30.86,30.86,0,0,0-.45-4.58Zm2.21-9.17V84.73H89.15V87.8Zm-1.78,2.54v3h1.78v-3Zm4.35,6.53a28,28,0,0,1,1.39,4.46l-2.86.56a24.78,24.78,0,0,0-1.22-4.56Zm1.63-12.14H93.31V87.8h1.82Zm0,5.61H93.31v3h1.82Zm3.17,6a32.82,32.82,0,0,1,3,4.8l-2.93,1a29.71,29.71,0,0,0-2.83-4.92Z"/><path class="cls-6" d="M112.22,96.75a30.64,30.64,0,0,0-1.73-3.12v8.42h-2.64V93.58a24.87,24.87,0,0,1-2.76,5.91,17.28,17.28,0,0,0-1.3-3A22.08,22.08,0,0,0,107,90.32h-2.74V87.65h3.63V79.8h2.64v7.85H114v2.67h-3.55v.17c.7.69,3,3.38,3.48,4.05Zm-6.94-9.55a24,24,0,0,0-1.08-5.52l2-.53a23.81,23.81,0,0,1,1.23,5.5Zm9.19-5.64c-.62,1.92-1.32,4.2-1.92,5.59l-1.8-.5A39.73,39.73,0,0,0,112.07,81Zm9.32,14.06v6.48H121.1v-6l-6.7,1.2L114,94.64l7.13-1.27V79.68h2.69V92.89l2.44-.46.44,2.66Zm-8.21-8.71a20.82,20.82,0,0,1,4,2.76L118.17,92a20.32,20.32,0,0,0-3.94-3Zm3.48-.86a19.07,19.07,0,0,0-3.72-3.12L116.71,81a18.36,18.36,0,0,1,3.81,2.91Z"/></g></g></svg>