<svg xmlns="http://www.w3.org/2000/svg" viewBox="0 0 433.09 158.59"><defs><style>.cls-1{fill:#fff;}</style></defs><g id="Layer_2" data-name="Layer 2"><g id="レイヤー_1" data-name="レイヤー 1"><path d="M379.79,38.81H53.3A53.3,53.3,0,0,0,0,92.12v.35a53.3,53.3,0,0,0,53.3,53.3H199.83l18.36,12.82,18.37-12.82H379.79a53.31,53.31,0,0,0,53.3-53.3v-.35A53.31,53.31,0,0,0,379.79,38.81Z"/><path class="cls-1" d="M89.09,82.11a40.87,40.87,0,0,1-3.87,3,20.18,20.18,0,0,0,4.71,2.64,12.75,12.75,0,0,0-2.37,3,21.33,21.33,0,0,1-6.42-4.53v1.23h-11v-1a26.37,26.37,0,0,1-6.78,4.74,12.68,12.68,0,0,0-2.13-2.61,20.9,20.9,0,0,0,5.07-3.09A20.9,20.9,0,0,0,63.05,83l2-2a18.11,18.11,0,0,1,3.39,2.43,18.88,18.88,0,0,0,2.25-3H64.49V77.58h7.86l.6-.15,2.31,1.2a20.19,20.19,0,0,1-3.39,5.85h7.71a29,29,0,0,1-4.11-6.93l3.06-1a19.44,19.44,0,0,0,1.59,3,25.11,25.11,0,0,0,3-2.85l2.7,1.92c-1.29,1.08-2.79,2.22-4.11,3.12.45.54.93,1,1.41,1.53a26.3,26.3,0,0,0,3.36-3.09Zm-6.33,15.6c-.63,1.23-1.23,2.4-1.74,3.27h7.53v2.94H62.75V101H70a14.35,14.35,0,0,0-1.38-3.12l1.56-.39H66.92V89.16H84.29v8.31h-2.7ZM70.37,94.65H80.6V92H70.37Zm1.8,2.82a12.21,12.21,0,0,1,1.44,3.18l-1.14.33h5.91l-.81-.18a28.56,28.56,0,0,0,1.56-3.33Z"/><path class="cls-1" d="M104.57,99.33c1.5-.87,3.48-2.13,5.43-3.42l1.08,2.7c-1.77,1.35-3.69,2.73-5.4,3.9l-1-1.71.09.87c-3.72.78-7.68,1.62-10.71,2.19l-.66-3.24c1.26-.18,2.76-.42,4.41-.69V92.1H93.74v-3h4.08V86.91H95.18V85.56l-.57.54a9.77,9.77,0,0,0-2.13-2.31,19.17,19.17,0,0,0,5.19-7.26h2.94a29.81,29.81,0,0,1,5,5.16l-1.89,2.25H104v3h-3.09V89.1h3.72v3h-3.72v7.26l3.6-.63Zm-8.25-6.09a34.27,34.27,0,0,1,1.05,5.16l-2.4.66A27.3,27.3,0,0,0,94,93.81Zm6.72-9.3a27.89,27.89,0,0,0-3.42-4.11,28.35,28.35,0,0,1-2.91,4.11Zm-1.8,13.92A36.79,36.79,0,0,0,102.29,93l2.58.63c-.54,1.68-1,3.6-1.47,4.83Zm14.85-3.39a13.83,13.83,0,0,0,5.49,5.58A13.25,13.25,0,0,0,119.3,103a15.1,15.1,0,0,1-4.92-5.79v3.93c0,1.5-.21,2.34-1.14,2.82a7.89,7.89,0,0,1-3.78.57,12.18,12.18,0,0,0-.84-3.09c.84.06,1.74,0,2,0s.42-.09.42-.39V89.31H104.9v-3h10.44V84.75H107v-2.7h8.34V80.43h-9V77.49h12.3v8.79h2.22v3h-6.48v1a19.46,19.46,0,0,0,1.23,3.21,25,25,0,0,0,2.7-3.6l2.79,1.71c-1.2,1.38-2.55,2.79-3.6,3.78Zm-8.7-4.11a14.65,14.65,0,0,1,3.09,3.78L108,95.79a17.15,17.15,0,0,0-2.94-3.93Z"/><path class="cls-1" d="M137.6,84.69c-.09,1.29-.18,2.61-.33,3.9h11.58a14.6,14.6,0,0,1-.12,1.56c-.54,8.16-1.17,11.52-2.37,12.84a4.43,4.43,0,0,1-3.24,1.38,41.09,41.09,0,0,1-5.13,0,8.3,8.3,0,0,0-1.26-3.51c2.07.21,4.17.21,5,.21a1.93,1.93,0,0,0,1.44-.39C144,100,144.53,97.41,145,92H136.7c-1.14,5.07-3.63,9.75-9.63,12.78a11.4,11.4,0,0,0-2.52-3c8.1-3.75,8.79-10.59,9.12-17h-8.58V81.27h11.49V76.38h3.69v4.89h11.85v3.42Z"/><path class="cls-1" d="M161.69,90.48a23.11,23.11,0,0,0-5.64-3.09l1.83-2.7a24.17,24.17,0,0,1,5.79,2.79Zm3.15,4.2c-1.47,3.12-3.21,6.54-4.89,9.42l-3.09-2.28a89.65,89.65,0,0,0,5.31-9.42Zm-1.5-12.12a22.88,22.88,0,0,0-5.61-3.3l2-2.67a26.33,26.33,0,0,1,5.73,3.06Zm17.73,22a16.57,16.57,0,0,0-1-2.37c-5.43.48-11.1.87-15.15,1.17l-.48-3.6,2.25-.09a54.35,54.35,0,0,0,2.85-7.77h-5.13V88.44h7.71V84.21h-6.21V80.79h6.21V76.53h3.72v4.26h6.51v3.42h-6.51v4.23h7.92v3.42H173.66l.12,0c-1,2.52-2.16,5.28-3.24,7.53,2.4-.12,5.07-.27,7.71-.42-.75-1.2-1.59-2.37-2.4-3.42L178.91,94a34.91,34.91,0,0,1,5.55,8.73Z"/><path class="cls-1" d="M195.17,78.84a25,25,0,0,0-.72,2.64A78.57,78.57,0,0,0,193,93a13.75,13.75,0,0,0,.12,1.92c.39-1,.87-2,1.32-3l1.83,1.47a70.87,70.87,0,0,0-2.13,7.08,5.86,5.86,0,0,0-.15,1.38c0,.3,0,.81,0,1.23l-3.36.24a35.84,35.84,0,0,1-1.17-9.48,88.05,88.05,0,0,1,1.23-12.39,22.29,22.29,0,0,0,.27-2.91Zm18.24,22.41a30.3,30.3,0,0,0-3.6-3c-.18,2.82-1.8,4.86-5.82,4.86s-6.66-1.74-6.66-4.86,2.55-5.1,6.6-5.1a13.35,13.35,0,0,1,1.95.12c-.09-1.83-.18-4-.21-6.09-.72,0-1.44,0-2.13,0-1.74,0-3.42-.06-5.19-.18V83.52a49.26,49.26,0,0,0,5.19.27c.69,0,1.41,0,2.1,0,0-1.47,0-2.67-.06-3.3a16.81,16.81,0,0,0-.18-1.95h4.26a19,19,0,0,0-.18,1.92c0,.66-.09,1.77-.09,3.09,1.62-.18,3.18-.39,4.59-.69v3.69c-1.44.21-3,.39-4.62.51.06,2.88.21,5.25.33,7.26a18.86,18.86,0,0,1,5.73,3.84ZM206,96.42a9.26,9.26,0,0,0-2.4-.33c-1.68,0-2.82.69-2.82,1.8s1.2,1.74,2.76,1.74c1.83,0,2.46-1,2.46-2.7Z"/><path class="cls-1" d="M227.87,99.66a20,20,0,0,0,6.12.69c2.28,0,10.29,0,13-.12a14.22,14.22,0,0,0-1.35,3.54H234c-5.58,0-9.15-.75-11.52-4.11a21.77,21.77,0,0,1-1.38,4.86,19.88,19.88,0,0,0-2.85-1.56c1.5-3,1.74-7.8,1.77-12.9l3.12.21c0,1.38-.06,2.76-.12,4.08a9,9,0,0,0,1.68,3.18v-9h-5.64V85.41h5.07V82.65h-4.38V79.56h4.38v-3h3.3v3h4.26v3.09h-4.26v2.76h4.77v.75a8,8,0,0,0,3.57-5.58h-3.21v-3h13.23s0,.81,0,1.23c-.21,5-.48,7.17-1.2,8a2.92,2.92,0,0,1-2,1,22.61,22.61,0,0,1-3.33.06,7.2,7.2,0,0,0-.87-3,21.12,21.12,0,0,0,2.43.12,1.11,1.11,0,0,0,.87-.3c.27-.39.48-1.5.63-4.17h-3.18c-.69,3.78-2.31,6.39-5,8.13a19.59,19.59,0,0,0-1.86-1.53v1.38h-4.32v3.27h4v3.09h-4Zm5.46-10.59h11.73v9.45H233.33Zm3.33,6.6h4.86V92h-4.86Z"/><path class="cls-1" d="M274.19,84.27a13,13,0,0,0-.21,1.59c-.12,3.24-.48,11.61-1.77,14.67-.66,1.53-1.8,2.31-3.87,2.31-1.71,0-3.51-.12-5-.24l-.45-4a24.83,24.83,0,0,0,4.2.42,1.6,1.6,0,0,0,1.71-1c.87-1.89,1.26-7.89,1.26-11.13h-6.75c-1.11,7.92-4,12.63-9.33,16.44l-3.48-2.82a17.2,17.2,0,0,0,3.93-2.94c2.79-2.76,4.29-6.12,4.95-10.68h-4c-1,0-2.67,0-4,.12V83c1.26.12,2.82.21,4,.21h4.29c0-.84.06-1.71.06-2.61a22.2,22.2,0,0,0-.21-2.76H264c-.09.69-.15,2-.18,2.67,0,.93-.06,1.83-.12,2.7h5.64a14.65,14.65,0,0,0,2.28-.21Z"/><path class="cls-1" d="M292,95.16A28.45,28.45,0,0,0,302.9,83.49l2.34,4.23a31.9,31.9,0,0,1-11.1,11.1A32.49,32.49,0,0,1,283,103.05l-2.52-4A30.92,30.92,0,0,0,292,95.16Zm0-9.72-3.06,3.15a62.38,62.38,0,0,0-7.5-6.48l2.82-3A63,63,0,0,1,292,85.44Z"/><path class="cls-1" d="M333.44,82.77a14.11,14.11,0,0,0-1,2.13,34.53,34.53,0,0,1-4.14,8.22c1.11.69,2.13,1.38,2.88,1.92l-2.73,3.51a34.74,34.74,0,0,0-2.79-2.13,28.63,28.63,0,0,1-11.07,7.47l-3.48-3a25.37,25.37,0,0,0,11.19-6.72c-2-1.32-4.08-2.55-5.61-3.42l2.55-2.85c1.59.81,3.63,1.95,5.64,3.15A21.85,21.85,0,0,0,328,84.63H319.4a35.3,35.3,0,0,1-7.92,7.74l-3.24-2.49a27.46,27.46,0,0,0,9.57-10,13.27,13.27,0,0,0,1.35-3.15l4.35,1.35c-.72,1-1.5,2.43-1.86,3.06l0,0h6.15a9.53,9.53,0,0,0,2.61-.33Z"/><path class="cls-1" d="M349.79,95.16a28.45,28.45,0,0,0,10.92-11.67l2.34,4.23A31.9,31.9,0,0,1,352,98.82a32.49,32.49,0,0,1-11.13,4.23l-2.52-4A30.92,30.92,0,0,0,349.79,95.16Zm0-9.72-3.06,3.15a62.38,62.38,0,0,0-7.5-6.48l2.82-3A63,63,0,0,1,349.79,85.44Z"/><path class="cls-1" d="M369.47,99.24a3.12,3.12,0,0,1,6.24,0,3.13,3.13,0,0,1-6.24,0Zm.51-15.3-.12-4.47h5.49l-.15,4.47L374.15,94.2h-3.09Z"/><path class="cls-1" d="M117.16,26.81a79,79,0,0,1,7.41,3L121,31.23a51.48,51.48,0,0,0-6.76-3.07l2.34-1.35H109l2.36,1a32,32,0,0,1-8.11,3.4c-.55-.59-1.64-1.71-2.29-2.26a30.79,30.79,0,0,0,7.15-2.18h-3.85V16.2h8.64a7.45,7.45,0,0,0-1.8-1.9,6.25,6.25,0,0,0,1.51-1.3h-2.34v2.71h-2.76V13H105.2a8.71,8.71,0,0,1-2.5,4.32,9.08,9.08,0,0,0-2-1.93,7,7,0,0,0,2.21-5.56V7.46l2,.5a33,33,0,0,0,5.41-1l1.89,1.82a34,34,0,0,1-6.6,1.12V10a7,7,0,0,1,0,.78h7.15v2.1a4.67,4.67,0,0,0,.91-3V7.49l2.08.49a41.26,41.26,0,0,0,5.83-1.06l1.87,1.84a40,40,0,0,1-7.1,1.12V10c0,.24,0,.5,0,.76h8.13V13h-3.27v2.73h-2.76V13h-2.62a7,7,0,0,1-2.55,3.2h8.47V26.81Zm-9.94-7.65h11.29V18.05H107.22Zm0,2.89h11.29V20.93H107.22Zm0,2.89h11.29V23.79H107.22Z"/><path class="cls-1" d="M132.26,17.55V31.18h-3.07V7.88h9.94v9.67Zm0-7.3v1.4h4v-1.4Zm4,5V13.73h-4v1.48Zm1.59,12.3V29h-2.89V19.35H145v8.16Zm0-5.62V25h4.29V21.89Zm13.28,5.59c0,1.72-.36,2.6-1.45,3.1s-2.71.6-5.1.6a11.08,11.08,0,0,0-1-3.18c1.51.11,3.28.08,3.77.06s.68-.16.68-.63V17.58h-7.05V7.88h10.19Zm-7.25-17.26v1.43H148V10.22Zm4.11,5V13.73h-4.11v1.51Z"/><path class="cls-1" d="M162,9.08a23,23,0,0,0-.62,2.28,64.36,64.36,0,0,0-1.25,9.44,12.21,12.21,0,0,0,.11,1.67c.36-.91.78-1.77,1.14-2.6l1.61,1.24a61.35,61.35,0,0,0-1.84,6.32,7.51,7.51,0,0,0-.16,1.2c0,.28,0,.7.05,1.06l-3,.21a32.79,32.79,0,0,1-1-8.42,70.48,70.48,0,0,1,1.07-10.19,20,20,0,0,0,.26-2.53Zm6,12.71a8.43,8.43,0,0,0-.32,2.16c0,1.14,1,1.82,3.59,1.82a29.56,29.56,0,0,0,6.45-.68l.08,3.49a36.08,36.08,0,0,1-6.66.52c-4.44,0-6.55-1.62-6.55-4.24A15.91,15.91,0,0,1,165,21.5Zm9-11v3.32a70.28,70.28,0,0,1-11,0l0-3.32A53.16,53.16,0,0,0,177,10.77Z"/><path class="cls-1" d="M204.93,7.75v23.4h-3.38V29.77H185.93v1.38H182.7V7.75Zm-3.38,19.14v-16H185.93v16ZM199,14v9.88H188.42V14Zm-3.12,2.7h-4.58v4.5h4.58Z"/><path class="cls-1" d="M224.07,11.55a15,15,0,0,1-1.35,1.74A24.48,24.48,0,0,0,233.51,20a14.32,14.32,0,0,0-1.82,2.57,33.64,33.64,0,0,1-5.33-2.73V21H215.93V19.74a34.16,34.16,0,0,1-5.49,2.88,12.75,12.75,0,0,0-1.66-2.39,25.7,25.7,0,0,0,10.63-7.33h1.51a12.18,12.18,0,0,0-1.35-.83c.21-.16.39-.34.6-.52H217a12.84,12.84,0,0,1,1.06,2.15l-2.73.91a14.52,14.52,0,0,0-1.43-3.06h-.26a21.74,21.74,0,0,1-2.34,3.17A22.83,22.83,0,0,0,208.73,13a16.73,16.73,0,0,0,4-6.42l3,.75c-.21.52-.42,1.07-.68,1.59h5.64V11a13.84,13.84,0,0,0,2.55-4.42l3,.7c-.21.54-.44,1.09-.67,1.64h7.25v2.6h-4.21a12,12,0,0,1,1.25,2l-2.86,1a18.54,18.54,0,0,0-1.77-3.06ZM213.38,22.7h15.5v8.4h-3.1v-.63h-9.43v.71h-3Zm3,2.65V27.8h9.43V25.35Zm8-6.89a22,22,0,0,1-3.33-3,19.94,19.94,0,0,1-3.22,3Z"/><path class="cls-1" d="M258.26,14.07c-1.56-.08-4-.13-7.46-.13,0,1.3,0,2.7,0,3.82a6.34,6.34,0,0,1,1,3.56c0,3.36-2,7.62-8.26,9.39L240.79,28c2.6-.54,4.86-1.4,6.29-2.94a5.52,5.52,0,0,1-1.17.13,4.54,4.54,0,0,1-4.45-4.73,4.85,4.85,0,0,1,5.15-4.81,6.36,6.36,0,0,1,1,.08l0-1.72c-3.9.06-7.88.21-11,.39l-.08-3.12c2.94,0,7.62-.13,11.08-.18a5.73,5.73,0,0,0,0-.78A17.72,17.72,0,0,0,247.29,8H251c-.08.41-.16,1.79-.18,2.21,0,.2,0,.46,0,.78,2.6,0,6.11,0,7.46,0Zm-11.73,8.21c1.07,0,2-.8,1.69-3a1.84,1.84,0,0,0-1.69-.91,2,2,0,0,0,0,4Z"/><path class="cls-1" d="M279.4,11.08c-.63.39-1.22.78-1.8,1.17-1.38,1-4.08,3.25-5.69,4.55a8.44,8.44,0,0,1,2.42-.29c4.37,0,7.69,2.73,7.69,6.48,0,4.05-3.09,7.28-9.31,7.28-3.58,0-6.29-1.64-6.29-4.22,0-2.08,1.9-4,4.63-4a5.19,5.19,0,0,1,5.49,4.39,3.75,3.75,0,0,0,2.1-3.51c0-2.31-2.34-3.87-5.33-3.87-3.95,0-6.52,2.11-9.28,5.23l-2.34-2.42c1.82-1.48,4.91-4.11,6.45-5.36s4.11-3.35,5.38-4.47c-1.33,0-4.86.18-6.21.29a16.63,16.63,0,0,0-2.11.2l-.1-3.35a22.78,22.78,0,0,0,2.34.13c1.35,0,6.86-.13,8.32-.26a12.38,12.38,0,0,0,2-.26Zm-5.83,16.2c-.15-1.67-1.12-2.76-2.52-2.76-1,0-1.59.57-1.59,1.22,0,1,1.1,1.61,2.6,1.61A14.19,14.19,0,0,0,273.57,27.28Z"/><path class="cls-1" d="M300.64,14.33a48.38,48.38,0,0,1-5,.86c-.24,1.09-.5,2.23-.78,3.3a84.46,84.46,0,0,1-4.09,11.91l-3.61-1.2a58,58,0,0,0,4.45-11.6c.18-.7.39-1.43.54-2.15-.6,0-1.17.05-1.69.05-1.25,0-2.21-.05-3.12-.11l-.08-3.19a26.11,26.11,0,0,0,3.25.18c.76,0,1.51,0,2.29-.08.11-.55.18-1.07.24-1.46a13.63,13.63,0,0,0,.1-2.62l3.93.31c-.19.73-.42,1.87-.55,2.44l-.21,1c1.46-.21,2.91-.5,4.32-.84Zm-.52,8.45a9,9,0,0,0-.37,2.16c0,1.11.65,2,3.41,2a32.7,32.7,0,0,0,5.36-.52l-.13,3.3a39.78,39.78,0,0,1-5.26.37c-4.34,0-6.55-1.51-6.55-4.11a17.72,17.72,0,0,1,.44-3.43Zm-1.51-6.45a47.44,47.44,0,0,1,4.94-.26,43.55,43.55,0,0,1,4.53.21L308,19.4a36.15,36.15,0,0,0-4.42-.34,41.16,41.16,0,0,0-5,.29Zm6.76-2.65a29.31,29.31,0,0,0-2-3.62l2.06-.85a36.08,36.08,0,0,1,2.05,3.56ZM308.47,8a30,30,0,0,1,2.1,3.53l-2.05.89a27.44,27.44,0,0,0-2.11-3.59Z"/><path class="cls-1" d="M319.23,8.76a19.33,19.33,0,0,0-.6,2.08c-.62,2.86-1.53,8.25-.86,11.44.34-.78.78-2,1.2-3l1.64,1c-.76,2.24-1.43,4.84-1.75,6.3a6.27,6.27,0,0,0-.18,1.24c0,.26.05.71.08,1.07l-2.89.29a28.94,28.94,0,0,1-1.48-8.35,67,67,0,0,1,.86-10.27,13.57,13.57,0,0,0,.16-2.24Zm16.51,7.49c-1,.13-2.37.24-3.82.31v1.07c0,6.08-.47,9.8-5.59,13.08l-3-2.34a9.77,9.77,0,0,0,3-2.06c2-2,2.4-4.34,2.4-8.68v-.94c-1,0-1.95.06-2.89.06-1.12,0-2.71-.08-4-.13V13.34a27.27,27.27,0,0,0,3.9.26c.94,0,1.93,0,2.91,0,0-1.43-.07-2.76-.13-3.46a11.13,11.13,0,0,0-.28-1.77h3.77a11.32,11.32,0,0,0-.13,1.74c0,.58,0,1.9,0,3.31a34.68,34.68,0,0,0,3.88-.47Z"/><polygon class="cls-1" points="94.41 46.34 72.02 0 64.1 5.12 94.41 46.34"/><polygon class="cls-1" points="341.98 46.34 364.37 0 372.28 5.12 341.98 46.34"/></g></g></svg>